<svg width="292" height="288" viewBox="0 0 292 288" fill="none" xmlns="http://www.w3.org/2000/svg">
<mask id="mask0_50_197" style="mask-type:alpha" maskUnits="userSpaceOnUse" x="2" y="2" width="288" height="284">
<rect x="2" y="2" width="288" height="284" rx="15" fill="#283036"/>
</mask>
<g mask="url(#mask0_50_197)">
<g filter="url(#filter0_f_50_197)">
<ellipse cx="266.5" cy="16.3946" rx="32.5" ry="31.3946" fill="#FF6E30" fill-opacity="0.6"/>
</g>
</g>
<g filter="url(#filter1_b_50_197)">
<rect x="2" y="2" width="288" height="284" rx="15" fill="#283036" fill-opacity="0.6"/>
<rect x="1" y="1" width="290" height="286" rx="16" stroke="url(#paint0_linear_50_197)" stroke-opacity="0.1" stroke-width="2"/>
</g>
<path d="M26.352 144.964H29.768V146H25.078V136.242H26.352V144.964ZM34.467 146.126C33.7483 146.126 33.095 145.963 32.507 145.636C31.9283 145.309 31.471 144.847 31.135 144.25C30.8083 143.643 30.645 142.943 30.645 142.15C30.645 141.366 30.813 140.675 31.149 140.078C31.4943 139.471 31.961 139.009 32.549 138.692C33.137 138.365 33.795 138.202 34.523 138.202C35.251 138.202 35.909 138.365 36.497 138.692C37.085 139.009 37.547 139.467 37.883 140.064C38.2283 140.661 38.401 141.357 38.401 142.15C38.401 142.943 38.2236 143.643 37.869 144.25C37.5236 144.847 37.0523 145.309 36.455 145.636C35.8576 145.963 35.195 146.126 34.467 146.126ZM34.467 145.006C34.9243 145.006 35.3536 144.899 35.755 144.684C36.1563 144.469 36.4783 144.147 36.721 143.718C36.973 143.289 37.099 142.766 37.099 142.15C37.099 141.534 36.9776 141.011 36.735 140.582C36.4923 140.153 36.175 139.835 35.783 139.63C35.391 139.415 34.9663 139.308 34.509 139.308C34.0423 139.308 33.613 139.415 33.221 139.63C32.8383 139.835 32.5303 140.153 32.297 140.582C32.0636 141.011 31.947 141.534 31.947 142.15C31.947 142.775 32.059 143.303 32.283 143.732C32.5163 144.161 32.8243 144.483 33.207 144.698C33.5896 144.903 34.0096 145.006 34.467 145.006ZM41.35 139.574C41.574 139.135 41.8914 138.795 42.302 138.552C42.722 138.309 43.2307 138.188 43.828 138.188V139.504H43.492C42.064 139.504 41.35 140.279 41.35 141.828V146H40.076V138.328H41.35V139.574ZM52.2987 141.87C52.2987 142.113 52.2847 142.369 52.2567 142.64H46.1247C46.1714 143.396 46.428 143.989 46.8947 144.418C47.3707 144.838 47.9447 145.048 48.6167 145.048C49.1674 145.048 49.6247 144.922 49.9887 144.67C50.362 144.409 50.6234 144.063 50.7727 143.634H52.1447C51.9394 144.371 51.5287 144.973 50.9127 145.44C50.2967 145.897 49.5314 146.126 48.6167 146.126C47.8887 146.126 47.2354 145.963 46.6567 145.636C46.0874 145.309 45.6394 144.847 45.3127 144.25C44.986 143.643 44.8227 142.943 44.8227 142.15C44.8227 141.357 44.9814 140.661 45.2987 140.064C45.616 139.467 46.0594 139.009 46.6287 138.692C47.2074 138.365 47.87 138.202 48.6167 138.202C49.3447 138.202 49.9887 138.361 50.5487 138.678C51.1087 138.995 51.538 139.434 51.8367 139.994C52.1447 140.545 52.2987 141.17 52.2987 141.87ZM50.9827 141.604C50.9827 141.119 50.8754 140.703 50.6607 140.358C50.446 140.003 50.152 139.737 49.7787 139.56C49.4147 139.373 49.0087 139.28 48.5607 139.28C47.9167 139.28 47.366 139.485 46.9087 139.896C46.4607 140.307 46.204 140.876 46.1387 141.604H50.9827ZM63.2063 138.188C63.8037 138.188 64.3357 138.314 64.8023 138.566C65.269 138.809 65.6377 139.177 65.9083 139.672C66.179 140.167 66.3143 140.769 66.3143 141.478V146H65.0543V141.66C65.0543 140.895 64.863 140.311 64.4803 139.91C64.107 139.499 63.5983 139.294 62.9543 139.294C62.2917 139.294 61.7643 139.509 61.3723 139.938C60.9803 140.358 60.7843 140.969 60.7843 141.772V146H59.5243V141.66C59.5243 140.895 59.333 140.311 58.9503 139.91C58.577 139.499 58.0683 139.294 57.4243 139.294C56.7617 139.294 56.2343 139.509 55.8423 139.938C55.4503 140.358 55.2543 140.969 55.2543 141.772V146H53.9803V138.328H55.2543V139.434C55.5063 139.033 55.8423 138.725 56.2623 138.51C56.6917 138.295 57.163 138.188 57.6763 138.188C58.3203 138.188 58.8897 138.333 59.3843 138.622C59.879 138.911 60.2477 139.336 60.4903 139.896C60.705 139.355 61.0597 138.935 61.5543 138.636C62.049 138.337 62.5997 138.188 63.2063 138.188ZM72.7946 137.082C72.5519 137.082 72.3466 136.998 72.1786 136.83C72.0106 136.662 71.9266 136.457 71.9266 136.214C71.9266 135.971 72.0106 135.766 72.1786 135.598C72.3466 135.43 72.5519 135.346 72.7946 135.346C73.0279 135.346 73.2239 135.43 73.3826 135.598C73.5506 135.766 73.6346 135.971 73.6346 136.214C73.6346 136.457 73.5506 136.662 73.3826 136.83C73.2239 136.998 73.0279 137.082 72.7946 137.082ZM73.4106 138.328V146H72.1366V138.328H73.4106ZM76.8559 139.742C77.1079 139.303 77.4812 138.939 77.9759 138.65C78.4799 138.351 79.0632 138.202 79.7259 138.202C80.4072 138.202 81.0232 138.365 81.5739 138.692C82.1339 139.019 82.5726 139.481 82.8899 140.078C83.2072 140.666 83.3659 141.352 83.3659 142.136C83.3659 142.911 83.2072 143.601 82.8899 144.208C82.5726 144.815 82.1339 145.286 81.5739 145.622C81.0232 145.958 80.4072 146.126 79.7259 146.126C79.0726 146.126 78.4939 145.981 77.9899 145.692C77.4952 145.393 77.1172 145.025 76.8559 144.586V149.64H75.5819V138.328H76.8559V139.742ZM82.0639 142.136C82.0639 141.557 81.9472 141.053 81.7139 140.624C81.4806 140.195 81.1632 139.868 80.7619 139.644C80.3699 139.42 79.9359 139.308 79.4599 139.308C78.9932 139.308 78.5592 139.425 78.1579 139.658C77.7659 139.882 77.4486 140.213 77.2059 140.652C76.9726 141.081 76.8559 141.581 76.8559 142.15C76.8559 142.729 76.9726 143.237 77.2059 143.676C77.4486 144.105 77.7659 144.437 78.1579 144.67C78.5592 144.894 78.9932 145.006 79.4599 145.006C79.9359 145.006 80.3699 144.894 80.7619 144.67C81.1632 144.437 81.4806 144.105 81.7139 143.676C81.9472 143.237 82.0639 142.724 82.0639 142.136ZM87.7588 146.126C87.1708 146.126 86.6435 146.028 86.1768 145.832C85.7102 145.627 85.3415 145.347 85.0708 144.992C84.8002 144.628 84.6508 144.213 84.6228 143.746H85.9388C85.9762 144.129 86.1535 144.441 86.4708 144.684C86.7975 144.927 87.2222 145.048 87.7448 145.048C88.2302 145.048 88.6128 144.941 88.8928 144.726C89.1728 144.511 89.3128 144.241 89.3128 143.914C89.3128 143.578 89.1635 143.331 88.8648 143.172C88.5662 143.004 88.1042 142.841 87.4788 142.682C86.9095 142.533 86.4428 142.383 86.0788 142.234C85.7242 142.075 85.4162 141.847 85.1548 141.548C84.9028 141.24 84.7768 140.839 84.7768 140.344C84.7768 139.952 84.8935 139.593 85.1268 139.266C85.3602 138.939 85.6915 138.683 86.1208 138.496C86.5502 138.3 87.0402 138.202 87.5908 138.202C88.4402 138.202 89.1262 138.417 89.6488 138.846C90.1715 139.275 90.4515 139.863 90.4888 140.61H89.2148C89.1868 140.209 89.0235 139.887 88.7248 139.644C88.4355 139.401 88.0435 139.28 87.5488 139.28C87.0915 139.28 86.7275 139.378 86.4568 139.574C86.1862 139.77 86.0508 140.027 86.0508 140.344C86.0508 140.596 86.1302 140.806 86.2888 140.974C86.4568 141.133 86.6622 141.263 86.9048 141.366C87.1568 141.459 87.5022 141.567 87.9408 141.688C88.4915 141.837 88.9395 141.987 89.2848 142.136C89.6302 142.276 89.9242 142.491 90.1668 142.78C90.4188 143.069 90.5495 143.447 90.5588 143.914C90.5588 144.334 90.4422 144.712 90.2088 145.048C89.9755 145.384 89.6442 145.65 89.2148 145.846C88.7948 146.033 88.3095 146.126 87.7588 146.126ZM99.1613 138.328V146H97.8873V144.866C97.6446 145.258 97.304 145.566 96.8653 145.79C96.436 146.005 95.96 146.112 95.4373 146.112C94.84 146.112 94.3033 145.991 93.8273 145.748C93.3513 145.496 92.9733 145.123 92.6933 144.628C92.4226 144.133 92.2873 143.531 92.2873 142.822V138.328H93.5473V142.654C93.5473 143.41 93.7386 143.993 94.1213 144.404C94.504 144.805 95.0266 145.006 95.6893 145.006C96.3706 145.006 96.9073 144.796 97.2993 144.376C97.6913 143.956 97.8873 143.345 97.8873 142.542V138.328H99.1613ZM110.538 138.188C111.136 138.188 111.668 138.314 112.134 138.566C112.601 138.809 112.97 139.177 113.24 139.672C113.511 140.167 113.646 140.769 113.646 141.478V146H112.386V141.66C112.386 140.895 112.195 140.311 111.812 139.91C111.439 139.499 110.93 139.294 110.286 139.294C109.624 139.294 109.096 139.509 108.704 139.938C108.312 140.358 108.116 140.969 108.116 141.772V146H106.856V141.66C106.856 140.895 106.665 140.311 106.282 139.91C105.909 139.499 105.4 139.294 104.756 139.294C104.094 139.294 103.566 139.509 103.174 139.938C102.782 140.358 102.586 140.969 102.586 141.772V146H101.312V138.328H102.586V139.434C102.838 139.033 103.174 138.725 103.594 138.51C104.024 138.295 104.495 138.188 105.008 138.188C105.652 138.188 106.222 138.333 106.716 138.622C107.211 138.911 107.58 139.336 107.822 139.896C108.037 139.355 108.392 138.935 108.886 138.636C109.381 138.337 109.932 138.188 110.538 138.188ZM118.993 142.136C118.993 141.352 119.151 140.666 119.469 140.078C119.786 139.481 120.22 139.019 120.771 138.692C121.331 138.365 121.956 138.202 122.647 138.202C123.244 138.202 123.799 138.342 124.313 138.622C124.826 138.893 125.218 139.252 125.489 139.7V135.64H126.777V146H125.489V144.558C125.237 145.015 124.863 145.393 124.369 145.692C123.874 145.981 123.295 146.126 122.633 146.126C121.951 146.126 121.331 145.958 120.771 145.622C120.22 145.286 119.786 144.815 119.469 144.208C119.151 143.601 118.993 142.911 118.993 142.136ZM125.489 142.15C125.489 141.571 125.372 141.067 125.139 140.638C124.905 140.209 124.588 139.882 124.187 139.658C123.795 139.425 123.361 139.308 122.885 139.308C122.409 139.308 121.975 139.42 121.583 139.644C121.191 139.868 120.878 140.195 120.645 140.624C120.411 141.053 120.295 141.557 120.295 142.136C120.295 142.724 120.411 143.237 120.645 143.676C120.878 144.105 121.191 144.437 121.583 144.67C121.975 144.894 122.409 145.006 122.885 145.006C123.361 145.006 123.795 144.894 124.187 144.67C124.588 144.437 124.905 144.105 125.139 143.676C125.372 143.237 125.489 142.729 125.489 142.15ZM132.276 146.126C131.557 146.126 130.904 145.963 130.316 145.636C129.737 145.309 129.28 144.847 128.944 144.25C128.617 143.643 128.454 142.943 128.454 142.15C128.454 141.366 128.622 140.675 128.958 140.078C129.303 139.471 129.77 139.009 130.358 138.692C130.946 138.365 131.604 138.202 132.332 138.202C133.06 138.202 133.718 138.365 134.306 138.692C134.894 139.009 135.356 139.467 135.692 140.064C136.037 140.661 136.21 141.357 136.21 142.15C136.21 142.943 136.032 143.643 135.678 144.25C135.332 144.847 134.861 145.309 134.264 145.636C133.666 145.963 133.004 146.126 132.276 146.126ZM132.276 145.006C132.733 145.006 133.162 144.899 133.564 144.684C133.965 144.469 134.287 144.147 134.53 143.718C134.782 143.289 134.908 142.766 134.908 142.15C134.908 141.534 134.786 141.011 134.544 140.582C134.301 140.153 133.984 139.835 133.592 139.63C133.2 139.415 132.775 139.308 132.318 139.308C131.851 139.308 131.422 139.415 131.03 139.63C130.647 139.835 130.339 140.153 130.106 140.582C129.872 141.011 129.756 141.534 129.756 142.15C129.756 142.775 129.868 143.303 130.092 143.732C130.325 144.161 130.633 144.483 131.016 144.698C131.398 144.903 131.818 145.006 132.276 145.006ZM139.159 135.64V146H137.885V135.64H139.159ZM144.676 146.126C143.957 146.126 143.304 145.963 142.716 145.636C142.137 145.309 141.68 144.847 141.344 144.25C141.017 143.643 140.854 142.943 140.854 142.15C140.854 141.366 141.022 140.675 141.358 140.078C141.703 139.471 142.17 139.009 142.758 138.692C143.346 138.365 144.004 138.202 144.732 138.202C145.46 138.202 146.118 138.365 146.706 138.692C147.294 139.009 147.756 139.467 148.092 140.064C148.437 140.661 148.61 141.357 148.61 142.15C148.61 142.943 148.433 143.643 148.078 144.25C147.733 144.847 147.261 145.309 146.664 145.636C146.067 145.963 145.404 146.126 144.676 146.126ZM144.676 145.006C145.133 145.006 145.563 144.899 145.964 144.684C146.365 144.469 146.687 144.147 146.93 143.718C147.182 143.289 147.308 142.766 147.308 142.15C147.308 141.534 147.187 141.011 146.944 140.582C146.701 140.153 146.384 139.835 145.992 139.63C145.6 139.415 145.175 139.308 144.718 139.308C144.251 139.308 143.822 139.415 143.43 139.63C143.047 139.835 142.739 140.153 142.506 140.582C142.273 141.011 142.156 141.534 142.156 142.15C142.156 142.775 142.268 143.303 142.492 143.732C142.725 144.161 143.033 144.483 143.416 144.698C143.799 144.903 144.219 145.006 144.676 145.006ZM151.559 139.574C151.783 139.135 152.1 138.795 152.511 138.552C152.931 138.309 153.44 138.188 154.037 138.188V139.504H153.701C152.273 139.504 151.559 140.279 151.559 141.828V146H150.285V138.328H151.559V139.574ZM161.956 146.126C161.368 146.126 160.841 146.028 160.374 145.832C159.907 145.627 159.539 145.347 159.268 144.992C158.997 144.628 158.848 144.213 158.82 143.746H160.136C160.173 144.129 160.351 144.441 160.668 144.684C160.995 144.927 161.419 145.048 161.942 145.048C162.427 145.048 162.81 144.941 163.09 144.726C163.37 144.511 163.51 144.241 163.51 143.914C163.51 143.578 163.361 143.331 163.062 143.172C162.763 143.004 162.301 142.841 161.676 142.682C161.107 142.533 160.64 142.383 160.276 142.234C159.921 142.075 159.613 141.847 159.352 141.548C159.1 141.24 158.974 140.839 158.974 140.344C158.974 139.952 159.091 139.593 159.324 139.266C159.557 138.939 159.889 138.683 160.318 138.496C160.747 138.3 161.237 138.202 161.788 138.202C162.637 138.202 163.323 138.417 163.846 138.846C164.369 139.275 164.649 139.863 164.686 140.61H163.412C163.384 140.209 163.221 139.887 162.922 139.644C162.633 139.401 162.241 139.28 161.746 139.28C161.289 139.28 160.925 139.378 160.654 139.574C160.383 139.77 160.248 140.027 160.248 140.344C160.248 140.596 160.327 140.806 160.486 140.974C160.654 141.133 160.859 141.263 161.102 141.366C161.354 141.459 161.699 141.567 162.138 141.688C162.689 141.837 163.137 141.987 163.482 142.136C163.827 142.276 164.121 142.491 164.364 142.78C164.616 143.069 164.747 143.447 164.756 143.914C164.756 144.334 164.639 144.712 164.406 145.048C164.173 145.384 163.841 145.65 163.412 145.846C162.992 146.033 162.507 146.126 161.956 146.126ZM167.213 137.082C166.97 137.082 166.765 136.998 166.597 136.83C166.429 136.662 166.345 136.457 166.345 136.214C166.345 135.971 166.429 135.766 166.597 135.598C166.765 135.43 166.97 135.346 167.213 135.346C167.446 135.346 167.642 135.43 167.801 135.598C167.969 135.766 168.053 135.971 168.053 136.214C168.053 136.457 167.969 136.662 167.801 136.83C167.642 136.998 167.446 137.082 167.213 137.082ZM167.829 138.328V146H166.555V138.328H167.829ZM171.554 139.378V143.9C171.554 144.273 171.633 144.539 171.792 144.698C171.951 144.847 172.226 144.922 172.618 144.922H173.556V146H172.408C171.699 146 171.167 145.837 170.812 145.51C170.457 145.183 170.28 144.647 170.28 143.9V139.378H169.286V138.328H170.28V136.396H171.554V138.328H173.556V139.378H171.554ZM178.356 142.136C178.356 141.352 178.515 140.666 178.832 140.078C179.149 139.481 179.583 139.019 180.134 138.692C180.694 138.365 181.315 138.202 181.996 138.202C182.668 138.202 183.251 138.347 183.746 138.636C184.241 138.925 184.609 139.289 184.852 139.728V138.328H186.14V146H184.852V144.572C184.6 145.02 184.222 145.393 183.718 145.692C183.223 145.981 182.645 146.126 181.982 146.126C181.301 146.126 180.685 145.958 180.134 145.622C179.583 145.286 179.149 144.815 178.832 144.208C178.515 143.601 178.356 142.911 178.356 142.136ZM184.852 142.15C184.852 141.571 184.735 141.067 184.502 140.638C184.269 140.209 183.951 139.882 183.55 139.658C183.158 139.425 182.724 139.308 182.248 139.308C181.772 139.308 181.338 139.42 180.946 139.644C180.554 139.868 180.241 140.195 180.008 140.624C179.775 141.053 179.658 141.557 179.658 142.136C179.658 142.724 179.775 143.237 180.008 143.676C180.241 144.105 180.554 144.437 180.946 144.67C181.338 144.894 181.772 145.006 182.248 145.006C182.724 145.006 183.158 144.894 183.55 144.67C183.951 144.437 184.269 144.105 184.502 143.676C184.735 143.237 184.852 142.729 184.852 142.15ZM197.519 138.188C198.116 138.188 198.648 138.314 199.115 138.566C199.582 138.809 199.95 139.177 200.221 139.672C200.492 140.167 200.627 140.769 200.627 141.478V146H199.367V141.66C199.367 140.895 199.176 140.311 198.793 139.91C198.42 139.499 197.911 139.294 197.267 139.294C196.604 139.294 196.077 139.509 195.685 139.938C195.293 140.358 195.097 140.969 195.097 141.772V146H193.837V141.66C193.837 140.895 193.646 140.311 193.263 139.91C192.89 139.499 192.381 139.294 191.737 139.294C191.074 139.294 190.547 139.509 190.155 139.938C189.763 140.358 189.567 140.969 189.567 141.772V146H188.293V138.328H189.567V139.434C189.819 139.033 190.155 138.725 190.575 138.51C191.004 138.295 191.476 138.188 191.989 138.188C192.633 138.188 193.202 138.333 193.697 138.622C194.192 138.911 194.56 139.336 194.803 139.896C195.018 139.355 195.372 138.935 195.867 138.636C196.362 138.337 196.912 138.188 197.519 138.188ZM209.717 141.87C209.717 142.113 209.703 142.369 209.675 142.64H203.543C203.589 143.396 203.846 143.989 204.313 144.418C204.789 144.838 205.363 145.048 206.035 145.048C206.585 145.048 207.043 144.922 207.407 144.67C207.78 144.409 208.041 144.063 208.191 143.634H209.563C209.357 144.371 208.947 144.973 208.331 145.44C207.715 145.897 206.949 146.126 206.035 146.126C205.307 146.126 204.653 145.963 204.075 145.636C203.505 145.309 203.057 144.847 202.731 144.25C202.404 143.643 202.241 142.943 202.241 142.15C202.241 141.357 202.399 140.661 202.717 140.064C203.034 139.467 203.477 139.009 204.047 138.692C204.625 138.365 205.288 138.202 206.035 138.202C206.763 138.202 207.407 138.361 207.967 138.678C208.527 138.995 208.956 139.434 209.255 139.994C209.563 140.545 209.717 141.17 209.717 141.87ZM208.401 141.604C208.401 141.119 208.293 140.703 208.079 140.358C207.864 140.003 207.57 139.737 207.197 139.56C206.833 139.373 206.427 139.28 205.979 139.28C205.335 139.28 204.784 139.485 204.327 139.896C203.879 140.307 203.622 140.876 203.557 141.604H208.401ZM212.952 139.378V143.9C212.952 144.273 213.032 144.539 213.19 144.698C213.349 144.847 213.624 144.922 214.016 144.922H214.954V146H213.806C213.097 146 212.565 145.837 212.21 145.51C211.856 145.183 211.678 144.647 211.678 143.9V139.378H210.684V138.328H211.678V136.396H212.952V138.328H214.954V139.378H212.952ZM217.814 144.236L216.246 148.002H215.392L216.414 144.236H217.814ZM24.602 172.15C24.602 171.357 24.7607 170.666 25.078 170.078C25.3953 169.481 25.834 169.019 26.394 168.692C26.9633 168.365 27.612 168.202 28.34 168.202C29.2827 168.202 30.0573 168.431 30.664 168.888C31.28 169.345 31.686 169.98 31.882 170.792H30.51C30.3793 170.325 30.1227 169.957 29.74 169.686C29.3667 169.415 28.9 169.28 28.34 169.28C27.612 169.28 27.024 169.532 26.576 170.036C26.128 170.531 25.904 171.235 25.904 172.15C25.904 173.074 26.128 173.788 26.576 174.292C27.024 174.796 27.612 175.048 28.34 175.048C28.9 175.048 29.3667 174.917 29.74 174.656C30.1133 174.395 30.37 174.021 30.51 173.536H31.882C31.6767 174.32 31.266 174.95 30.65 175.426C30.034 175.893 29.264 176.126 28.34 176.126C27.612 176.126 26.9633 175.963 26.394 175.636C25.834 175.309 25.3953 174.847 25.078 174.25C24.7607 173.653 24.602 172.953 24.602 172.15ZM36.9279 176.126C36.2092 176.126 35.5559 175.963 34.9679 175.636C34.3892 175.309 33.9319 174.847 33.5959 174.25C33.2692 173.643 33.1059 172.943 33.1059 172.15C33.1059 171.366 33.2739 170.675 33.6099 170.078C33.9552 169.471 34.4219 169.009 35.0099 168.692C35.5979 168.365 36.2559 168.202 36.9839 168.202C37.7119 168.202 38.3699 168.365 38.9579 168.692C39.5459 169.009 40.0079 169.467 40.3439 170.064C40.6892 170.661 40.8619 171.357 40.8619 172.15C40.8619 172.943 40.6846 173.643 40.3299 174.25C39.9846 174.847 39.5132 175.309 38.9159 175.636C38.3186 175.963 37.6559 176.126 36.9279 176.126ZM36.9279 175.006C37.3852 175.006 37.8146 174.899 38.2159 174.684C38.6172 174.469 38.9392 174.147 39.1819 173.718C39.4339 173.289 39.5599 172.766 39.5599 172.15C39.5599 171.534 39.4386 171.011 39.1959 170.582C38.9532 170.153 38.6359 169.835 38.2439 169.63C37.8519 169.415 37.4272 169.308 36.9699 169.308C36.5032 169.308 36.0739 169.415 35.6819 169.63C35.2992 169.835 34.9912 170.153 34.7579 170.582C34.5246 171.011 34.4079 171.534 34.4079 172.15C34.4079 172.775 34.5199 173.303 34.7439 173.732C34.9772 174.161 35.2852 174.483 35.6679 174.698C36.0506 174.903 36.4706 175.006 36.9279 175.006ZM46.275 168.188C47.2083 168.188 47.9643 168.473 48.543 169.042C49.1217 169.602 49.411 170.414 49.411 171.478V176H48.151V171.66C48.151 170.895 47.9597 170.311 47.577 169.91C47.1943 169.499 46.6717 169.294 46.009 169.294C45.337 169.294 44.8003 169.504 44.399 169.924C44.007 170.344 43.811 170.955 43.811 171.758V176H42.537V168.328H43.811V169.42C44.063 169.028 44.4037 168.725 44.833 168.51C45.2717 168.295 45.7523 168.188 46.275 168.188ZM54.2081 176.126C53.6201 176.126 53.0927 176.028 52.6261 175.832C52.1594 175.627 51.7907 175.347 51.5201 174.992C51.2494 174.628 51.1001 174.213 51.0721 173.746H52.3881C52.4254 174.129 52.6027 174.441 52.9201 174.684C53.2467 174.927 53.6714 175.048 54.1941 175.048C54.6794 175.048 55.0621 174.941 55.3421 174.726C55.6221 174.511 55.7621 174.241 55.7621 173.914C55.7621 173.578 55.6127 173.331 55.3141 173.172C55.0154 173.004 54.5534 172.841 53.9281 172.682C53.3587 172.533 52.8921 172.383 52.5281 172.234C52.1734 172.075 51.8654 171.847 51.6041 171.548C51.3521 171.24 51.2261 170.839 51.2261 170.344C51.2261 169.952 51.3427 169.593 51.5761 169.266C51.8094 168.939 52.1407 168.683 52.5701 168.496C52.9994 168.3 53.4894 168.202 54.0401 168.202C54.8894 168.202 55.5754 168.417 56.0981 168.846C56.6207 169.275 56.9007 169.863 56.9381 170.61H55.6641C55.6361 170.209 55.4727 169.887 55.1741 169.644C54.8847 169.401 54.4927 169.28 53.9981 169.28C53.5407 169.28 53.1767 169.378 52.9061 169.574C52.6354 169.77 52.5001 170.027 52.5001 170.344C52.5001 170.596 52.5794 170.806 52.7381 170.974C52.9061 171.133 53.1114 171.263 53.3541 171.366C53.6061 171.459 53.9514 171.567 54.3901 171.688C54.9407 171.837 55.3887 171.987 55.7341 172.136C56.0794 172.276 56.3734 172.491 56.6161 172.78C56.8681 173.069 56.9987 173.447 57.0081 173.914C57.0081 174.334 56.8914 174.712 56.6581 175.048C56.4247 175.384 56.0934 175.65 55.6641 175.846C55.2441 176.033 54.7587 176.126 54.2081 176.126ZM65.8065 171.87C65.8065 172.113 65.7925 172.369 65.7645 172.64H59.6325C59.6792 173.396 59.9358 173.989 60.4025 174.418C60.8785 174.838 61.4525 175.048 62.1245 175.048C62.6752 175.048 63.1325 174.922 63.4965 174.67C63.8698 174.409 64.1312 174.063 64.2805 173.634H65.6525C65.4472 174.371 65.0365 174.973 64.4205 175.44C63.8045 175.897 63.0392 176.126 62.1245 176.126C61.3965 176.126 60.7432 175.963 60.1645 175.636C59.5952 175.309 59.1472 174.847 58.8205 174.25C58.4938 173.643 58.3305 172.943 58.3305 172.15C58.3305 171.357 58.4892 170.661 58.8065 170.064C59.1238 169.467 59.5672 169.009 60.1365 168.692C60.7152 168.365 61.3778 168.202 62.1245 168.202C62.8525 168.202 63.4965 168.361 64.0565 168.678C64.6165 168.995 65.0458 169.434 65.3445 169.994C65.6525 170.545 65.8065 171.17 65.8065 171.87ZM64.4905 171.604C64.4905 171.119 64.3832 170.703 64.1685 170.358C63.9538 170.003 63.6598 169.737 63.2865 169.56C62.9225 169.373 62.5165 169.28 62.0685 169.28C61.4245 169.28 60.8738 169.485 60.4165 169.896C59.9685 170.307 59.7118 170.876 59.6465 171.604H64.4905ZM67.0122 172.15C67.0122 171.357 67.1708 170.666 67.4882 170.078C67.8055 169.481 68.2442 169.019 68.8042 168.692C69.3735 168.365 70.0222 168.202 70.7502 168.202C71.6928 168.202 72.4675 168.431 73.0742 168.888C73.6902 169.345 74.0962 169.98 74.2922 170.792H72.9202C72.7895 170.325 72.5328 169.957 72.1502 169.686C71.7768 169.415 71.3102 169.28 70.7502 169.28C70.0222 169.28 69.4342 169.532 68.9862 170.036C68.5382 170.531 68.3142 171.235 68.3142 172.15C68.3142 173.074 68.5382 173.788 68.9862 174.292C69.4342 174.796 70.0222 175.048 70.7502 175.048C71.3102 175.048 71.7768 174.917 72.1502 174.656C72.5235 174.395 72.7802 174.021 72.9202 173.536H74.2922C74.0868 174.32 73.6762 174.95 73.0602 175.426C72.4442 175.893 71.6742 176.126 70.7502 176.126C70.0222 176.126 69.3735 175.963 68.8042 175.636C68.2442 175.309 67.8055 174.847 67.4882 174.25C67.1708 173.653 67.0122 172.953 67.0122 172.15ZM77.5461 169.378V173.9C77.5461 174.273 77.6254 174.539 77.7841 174.698C77.9427 174.847 78.2181 174.922 78.6101 174.922H79.5481V176H78.4001C77.6907 176 77.1587 175.837 76.8041 175.51C76.4494 175.183 76.2721 174.647 76.2721 173.9V169.378H75.2781V168.328H76.2721V166.396H77.5461V168.328H79.5481V169.378H77.5461ZM88.0917 171.87C88.0917 172.113 88.0777 172.369 88.0497 172.64H81.9177C81.9643 173.396 82.221 173.989 82.6877 174.418C83.1637 174.838 83.7377 175.048 84.4097 175.048C84.9603 175.048 85.4177 174.922 85.7817 174.67C86.155 174.409 86.4163 174.063 86.5657 173.634H87.9377C87.7323 174.371 87.3217 174.973 86.7057 175.44C86.0897 175.897 85.3243 176.126 84.4097 176.126C83.6817 176.126 83.0283 175.963 82.4497 175.636C81.8803 175.309 81.4323 174.847 81.1057 174.25C80.779 173.643 80.6157 172.943 80.6157 172.15C80.6157 171.357 80.7743 170.661 81.0917 170.064C81.409 169.467 81.8523 169.009 82.4217 168.692C83.0003 168.365 83.663 168.202 84.4097 168.202C85.1377 168.202 85.7817 168.361 86.3417 168.678C86.9017 168.995 87.331 169.434 87.6297 169.994C87.9377 170.545 88.0917 171.17 88.0917 171.87ZM86.7757 171.604C86.7757 171.119 86.6683 170.703 86.4537 170.358C86.239 170.003 85.945 169.737 85.5717 169.56C85.2077 169.373 84.8017 169.28 84.3537 169.28C83.7097 169.28 83.159 169.485 82.7017 169.896C82.2537 170.307 81.997 170.876 81.9317 171.604H86.7757ZM91.3273 169.378V173.9C91.3273 174.273 91.4066 174.539 91.5653 174.698C91.724 174.847 91.9993 174.922 92.3913 174.922H93.3293V176H92.1813C91.472 176 90.94 175.837 90.5853 175.51C90.2306 175.183 90.0533 174.647 90.0533 173.9V169.378H89.0593V168.328H90.0533V166.396H91.3273V168.328H93.3293V169.378H91.3273ZM101.677 168.328V176H100.403V174.866C100.16 175.258 99.8196 175.566 99.3809 175.79C98.9516 176.005 98.4756 176.112 97.9529 176.112C97.3556 176.112 96.8189 175.991 96.3429 175.748C95.8669 175.496 95.4889 175.123 95.2089 174.628C94.9383 174.133 94.8029 173.531 94.8029 172.822V168.328H96.0629V172.654C96.0629 173.41 96.2543 173.993 96.6369 174.404C97.0196 174.805 97.5423 175.006 98.2049 175.006C98.8863 175.006 99.4229 174.796 99.8149 174.376C100.207 173.956 100.403 173.345 100.403 172.542V168.328H101.677ZM105.102 169.574C105.326 169.135 105.643 168.795 106.054 168.552C106.474 168.309 106.983 168.188 107.58 168.188V169.504H107.244C105.816 169.504 105.102 170.279 105.102 171.828V176H103.828V168.328H105.102V169.574ZM112.307 172.136C112.307 171.352 112.466 170.666 112.783 170.078C113.1 169.481 113.534 169.019 114.085 168.692C114.645 168.365 115.266 168.202 115.947 168.202C116.619 168.202 117.202 168.347 117.697 168.636C118.192 168.925 118.56 169.289 118.803 169.728V168.328H120.091V176H118.803V174.572C118.551 175.02 118.173 175.393 117.669 175.692C117.174 175.981 116.596 176.126 115.933 176.126C115.252 176.126 114.636 175.958 114.085 175.622C113.534 175.286 113.1 174.815 112.783 174.208C112.466 173.601 112.307 172.911 112.307 172.136ZM118.803 172.15C118.803 171.571 118.686 171.067 118.453 170.638C118.22 170.209 117.902 169.882 117.501 169.658C117.109 169.425 116.675 169.308 116.199 169.308C115.723 169.308 115.289 169.42 114.897 169.644C114.505 169.868 114.192 170.195 113.959 170.624C113.726 171.053 113.609 171.557 113.609 172.136C113.609 172.724 113.726 173.237 113.959 173.676C114.192 174.105 114.505 174.437 114.897 174.67C115.289 174.894 115.723 175.006 116.199 175.006C116.675 175.006 117.109 174.894 117.501 174.67C117.902 174.437 118.22 174.105 118.453 173.676C118.686 173.237 118.803 172.729 118.803 172.15ZM121.768 172.136C121.768 171.352 121.927 170.666 122.244 170.078C122.561 169.481 122.995 169.019 123.546 168.692C124.106 168.365 124.731 168.202 125.422 168.202C126.019 168.202 126.575 168.342 127.088 168.622C127.601 168.893 127.993 169.252 128.264 169.7V165.64H129.552V176H128.264V174.558C128.012 175.015 127.639 175.393 127.144 175.692C126.649 175.981 126.071 176.126 125.408 176.126C124.727 176.126 124.106 175.958 123.546 175.622C122.995 175.286 122.561 174.815 122.244 174.208C121.927 173.601 121.768 172.911 121.768 172.136ZM128.264 172.15C128.264 171.571 128.147 171.067 127.914 170.638C127.681 170.209 127.363 169.882 126.962 169.658C126.57 169.425 126.136 169.308 125.66 169.308C125.184 169.308 124.75 169.42 124.358 169.644C123.966 169.868 123.653 170.195 123.42 170.624C123.187 171.053 123.07 171.557 123.07 172.136C123.07 172.724 123.187 173.237 123.42 173.676C123.653 174.105 123.966 174.437 124.358 174.67C124.75 174.894 125.184 175.006 125.66 175.006C126.136 175.006 126.57 174.894 126.962 174.67C127.363 174.437 127.681 174.105 127.914 173.676C128.147 173.237 128.264 172.729 128.264 172.15ZM132.363 167.082C132.12 167.082 131.915 166.998 131.747 166.83C131.579 166.662 131.495 166.457 131.495 166.214C131.495 165.971 131.579 165.766 131.747 165.598C131.915 165.43 132.12 165.346 132.363 165.346C132.596 165.346 132.792 165.43 132.951 165.598C133.119 165.766 133.203 165.971 133.203 166.214C133.203 166.457 133.119 166.662 132.951 166.83C132.792 166.998 132.596 167.082 132.363 167.082ZM132.979 168.328V176H131.705V168.328H132.979ZM136.424 169.742C136.676 169.303 137.05 168.939 137.544 168.65C138.048 168.351 138.632 168.202 139.294 168.202C139.976 168.202 140.592 168.365 141.142 168.692C141.702 169.019 142.141 169.481 142.458 170.078C142.776 170.666 142.934 171.352 142.934 172.136C142.934 172.911 142.776 173.601 142.458 174.208C142.141 174.815 141.702 175.286 141.142 175.622C140.592 175.958 139.976 176.126 139.294 176.126C138.641 176.126 138.062 175.981 137.558 175.692C137.064 175.393 136.686 175.025 136.424 174.586V179.64H135.15V168.328H136.424V169.742ZM141.632 172.136C141.632 171.557 141.516 171.053 141.282 170.624C141.049 170.195 140.732 169.868 140.33 169.644C139.938 169.42 139.504 169.308 139.028 169.308C138.562 169.308 138.128 169.425 137.726 169.658C137.334 169.882 137.017 170.213 136.774 170.652C136.541 171.081 136.424 171.581 136.424 172.15C136.424 172.729 136.541 173.237 136.774 173.676C137.017 174.105 137.334 174.437 137.726 174.67C138.128 174.894 138.562 175.006 139.028 175.006C139.504 175.006 139.938 174.894 140.33 174.67C140.732 174.437 141.049 174.105 141.282 173.676C141.516 173.237 141.632 172.724 141.632 172.136ZM145.269 167.082C145.027 167.082 144.821 166.998 144.653 166.83C144.485 166.662 144.401 166.457 144.401 166.214C144.401 165.971 144.485 165.766 144.653 165.598C144.821 165.43 145.027 165.346 145.269 165.346C145.503 165.346 145.699 165.43 145.857 165.598C146.025 165.766 146.109 165.971 146.109 166.214C146.109 166.457 146.025 166.662 145.857 166.83C145.699 166.998 145.503 167.082 145.269 167.082ZM145.885 168.328V176H144.611V168.328H145.885ZM150.773 176.126C150.185 176.126 149.657 176.028 149.191 175.832C148.724 175.627 148.355 175.347 148.085 174.992C147.814 174.628 147.665 174.213 147.637 173.746H148.953C148.99 174.129 149.167 174.441 149.485 174.684C149.811 174.927 150.236 175.048 150.759 175.048C151.244 175.048 151.627 174.941 151.907 174.726C152.187 174.511 152.327 174.241 152.327 173.914C152.327 173.578 152.177 173.331 151.879 173.172C151.58 173.004 151.118 172.841 150.493 172.682C149.923 172.533 149.457 172.383 149.093 172.234C148.738 172.075 148.43 171.847 148.169 171.548C147.917 171.24 147.791 170.839 147.791 170.344C147.791 169.952 147.907 169.593 148.141 169.266C148.374 168.939 148.705 168.683 149.135 168.496C149.564 168.3 150.054 168.202 150.605 168.202C151.454 168.202 152.14 168.417 152.663 168.846C153.185 169.275 153.465 169.863 153.503 170.61H152.229C152.201 170.209 152.037 169.887 151.739 169.644C151.449 169.401 151.057 169.28 150.563 169.28C150.105 169.28 149.741 169.378 149.471 169.574C149.2 169.77 149.065 170.027 149.065 170.344C149.065 170.596 149.144 170.806 149.303 170.974C149.471 171.133 149.676 171.263 149.919 171.366C150.171 171.459 150.516 171.567 150.955 171.688C151.505 171.837 151.953 171.987 152.299 172.136C152.644 172.276 152.938 172.491 153.181 172.78C153.433 173.069 153.563 173.447 153.573 173.914C153.573 174.334 153.456 174.712 153.223 175.048C152.989 175.384 152.658 175.65 152.229 175.846C151.809 176.033 151.323 176.126 150.773 176.126ZM154.895 172.15C154.895 171.357 155.054 170.666 155.371 170.078C155.688 169.481 156.127 169.019 156.687 168.692C157.256 168.365 157.905 168.202 158.633 168.202C159.576 168.202 160.35 168.431 160.957 168.888C161.573 169.345 161.979 169.98 162.175 170.792H160.803C160.672 170.325 160.416 169.957 160.033 169.686C159.66 169.415 159.193 169.28 158.633 169.28C157.905 169.28 157.317 169.532 156.869 170.036C156.421 170.531 156.197 171.235 156.197 172.15C156.197 173.074 156.421 173.788 156.869 174.292C157.317 174.796 157.905 175.048 158.633 175.048C159.193 175.048 159.66 174.917 160.033 174.656C160.406 174.395 160.663 174.021 160.803 173.536H162.175C161.97 174.32 161.559 174.95 160.943 175.426C160.327 175.893 159.557 176.126 158.633 176.126C157.905 176.126 157.256 175.963 156.687 175.636C156.127 175.309 155.688 174.847 155.371 174.25C155.054 173.653 154.895 172.953 154.895 172.15ZM164.533 167.082C164.29 167.082 164.085 166.998 163.917 166.83C163.749 166.662 163.665 166.457 163.665 166.214C163.665 165.971 163.749 165.766 163.917 165.598C164.085 165.43 164.29 165.346 164.533 165.346C164.766 165.346 164.962 165.43 165.121 165.598C165.289 165.766 165.373 165.971 165.373 166.214C165.373 166.457 165.289 166.662 165.121 166.83C164.962 166.998 164.766 167.082 164.533 167.082ZM165.149 168.328V176H163.875V168.328H165.149ZM171.058 168.188C171.992 168.188 172.748 168.473 173.326 169.042C173.905 169.602 174.194 170.414 174.194 171.478V176H172.934V171.66C172.934 170.895 172.743 170.311 172.36 169.91C171.978 169.499 171.455 169.294 170.792 169.294C170.12 169.294 169.584 169.504 169.182 169.924C168.79 170.344 168.594 170.955 168.594 171.758V176H167.32V168.328H168.594V169.42C168.846 169.028 169.187 168.725 169.616 168.51C170.055 168.295 170.536 168.188 171.058 168.188ZM179.439 168.202C180.102 168.202 180.681 168.347 181.175 168.636C181.679 168.925 182.053 169.289 182.295 169.728V168.328H183.583V176.168C183.583 176.868 183.434 177.489 183.135 178.03C182.837 178.581 182.407 179.01 181.847 179.318C181.297 179.626 180.653 179.78 179.915 179.78C178.907 179.78 178.067 179.542 177.395 179.066C176.723 178.59 176.327 177.941 176.205 177.12H177.465C177.605 177.587 177.895 177.96 178.333 178.24C178.772 178.529 179.299 178.674 179.915 178.674C180.615 178.674 181.185 178.455 181.623 178.016C182.071 177.577 182.295 176.961 182.295 176.168V174.558C182.043 175.006 181.67 175.379 181.175 175.678C180.681 175.977 180.102 176.126 179.439 176.126C178.758 176.126 178.137 175.958 177.577 175.622C177.027 175.286 176.593 174.815 176.275 174.208C175.958 173.601 175.799 172.911 175.799 172.136C175.799 171.352 175.958 170.666 176.275 170.078C176.593 169.481 177.027 169.019 177.577 168.692C178.137 168.365 178.758 168.202 179.439 168.202ZM182.295 172.15C182.295 171.571 182.179 171.067 181.945 170.638C181.712 170.209 181.395 169.882 180.993 169.658C180.601 169.425 180.167 169.308 179.691 169.308C179.215 169.308 178.781 169.42 178.389 169.644C177.997 169.868 177.685 170.195 177.451 170.624C177.218 171.053 177.101 171.557 177.101 172.136C177.101 172.724 177.218 173.237 177.451 173.676C177.685 174.105 177.997 174.437 178.389 174.67C178.781 174.894 179.215 175.006 179.691 175.006C180.167 175.006 180.601 174.894 180.993 174.67C181.395 174.437 181.712 174.105 181.945 173.676C182.179 173.237 182.295 172.729 182.295 172.15ZM196.469 171.87C196.469 172.113 196.455 172.369 196.427 172.64H190.295C190.341 173.396 190.598 173.989 191.065 174.418C191.541 174.838 192.115 175.048 192.787 175.048C193.337 175.048 193.795 174.922 194.159 174.67C194.532 174.409 194.793 174.063 194.943 173.634H196.315C196.109 174.371 195.699 174.973 195.083 175.44C194.467 175.897 193.701 176.126 192.787 176.126C192.059 176.126 191.405 175.963 190.827 175.636C190.257 175.309 189.809 174.847 189.483 174.25C189.156 173.643 188.993 172.943 188.993 172.15C188.993 171.357 189.151 170.661 189.469 170.064C189.786 169.467 190.229 169.009 190.799 168.692C191.377 168.365 192.04 168.202 192.787 168.202C193.515 168.202 194.159 168.361 194.719 168.678C195.279 168.995 195.708 169.434 196.007 169.994C196.315 170.545 196.469 171.17 196.469 171.87ZM195.153 171.604C195.153 171.119 195.045 170.703 194.831 170.358C194.616 170.003 194.322 169.737 193.949 169.56C193.585 169.373 193.179 169.28 192.731 169.28C192.087 169.28 191.536 169.485 191.079 169.896C190.631 170.307 190.374 170.876 190.309 171.604H195.153ZM199.424 165.64V176H198.15V165.64H199.424ZM202.254 167.082C202.011 167.082 201.806 166.998 201.638 166.83C201.47 166.662 201.386 166.457 201.386 166.214C201.386 165.971 201.47 165.766 201.638 165.598C201.806 165.43 202.011 165.346 202.254 165.346C202.487 165.346 202.683 165.43 202.842 165.598C203.01 165.766 203.094 165.971 203.094 166.214C203.094 166.457 203.01 166.662 202.842 166.83C202.683 166.998 202.487 167.082 202.254 167.082ZM202.87 168.328V176H201.596V168.328H202.87ZM206.595 169.378V173.9C206.595 174.273 206.674 174.539 206.833 174.698C206.992 174.847 207.267 174.922 207.659 174.922H208.597V176H207.449C206.74 176 206.208 175.837 205.853 175.51C205.498 175.183 205.321 174.647 205.321 173.9V169.378H204.327V168.328H205.321V166.396H206.595V168.328H208.597V169.378H206.595ZM210.547 176.084C210.304 176.084 210.099 176 209.931 175.832C209.763 175.664 209.679 175.459 209.679 175.216C209.679 174.973 209.763 174.768 209.931 174.6C210.099 174.432 210.304 174.348 210.547 174.348C210.78 174.348 210.976 174.432 211.135 174.6C211.303 174.768 211.387 174.973 211.387 175.216C211.387 175.459 211.303 175.664 211.135 175.832C210.976 176 210.78 176.084 210.547 176.084Z" fill="white" fill-opacity="0.78"/>
<path d="M131.464 44.288C131.464 45.136 131.264 45.936 130.864 46.688C130.464 47.44 129.824 48.056 128.944 48.536C128.064 49 126.936 49.232 125.56 49.232H122.536V56H119.8V39.32H125.56C126.84 39.32 127.92 39.544 128.8 39.992C129.696 40.424 130.36 41.016 130.792 41.768C131.24 42.52 131.464 43.36 131.464 44.288ZM125.56 47C126.6 47 127.376 46.768 127.888 46.304C128.4 45.824 128.656 45.152 128.656 44.288C128.656 42.464 127.624 41.552 125.56 41.552H122.536V47H125.56ZM147.393 39.32V56H144.657V48.704H136.809V56H134.073V39.32H136.809V46.472H144.657V39.32H147.393ZM162.659 44.288C162.659 45.136 162.459 45.936 162.059 46.688C161.659 47.44 161.019 48.056 160.139 48.536C159.259 49 158.131 49.232 156.755 49.232H153.731V56H150.995V39.32H156.755C158.035 39.32 159.115 39.544 159.995 39.992C160.891 40.424 161.555 41.016 161.987 41.768C162.435 42.52 162.659 43.36 162.659 44.288ZM156.755 47C157.795 47 158.571 46.768 159.083 46.304C159.595 45.824 159.851 45.152 159.851 44.288C159.851 42.464 158.819 41.552 156.755 41.552H153.731V47H156.755ZM170.765 56.168C169.645 56.168 168.637 55.976 167.741 55.592C166.845 55.192 166.141 54.632 165.629 53.912C165.117 53.192 164.861 52.352 164.861 51.392H167.789C167.853 52.112 168.133 52.704 168.629 53.168C169.141 53.632 169.853 53.864 170.765 53.864C171.709 53.864 172.445 53.64 172.973 53.192C173.501 52.728 173.765 52.136 173.765 51.416C173.765 50.856 173.597 50.4 173.261 50.048C172.941 49.696 172.533 49.424 172.037 49.232C171.557 49.04 170.885 48.832 170.021 48.608C168.933 48.32 168.045 48.032 167.357 47.744C166.685 47.44 166.109 46.976 165.629 46.352C165.149 45.728 164.909 44.896 164.909 43.856C164.909 42.896 165.149 42.056 165.629 41.336C166.109 40.616 166.781 40.064 167.645 39.68C168.509 39.296 169.509 39.104 170.645 39.104C172.261 39.104 173.581 39.512 174.605 40.328C175.645 41.128 176.221 42.232 176.333 43.64H173.309C173.261 43.032 172.973 42.512 172.445 42.08C171.917 41.648 171.221 41.432 170.357 41.432C169.573 41.432 168.933 41.632 168.437 42.032C167.941 42.432 167.693 43.008 167.693 43.76C167.693 44.272 167.845 44.696 168.149 45.032C168.469 45.352 168.869 45.608 169.349 45.8C169.829 45.992 170.485 46.2 171.317 46.424C172.421 46.728 173.317 47.032 174.005 47.336C174.709 47.64 175.301 48.112 175.781 48.752C176.277 49.376 176.525 50.216 176.525 51.272C176.525 52.12 176.293 52.92 175.829 53.672C175.381 54.424 174.717 55.032 173.837 55.496C172.973 55.944 171.949 56.168 170.765 56.168ZM182.945 45.008V52.328C182.945 52.824 183.057 53.184 183.281 53.408C183.521 53.616 183.921 53.72 184.481 53.72H186.161V56H184.001C182.769 56 181.825 55.712 181.169 55.136C180.513 54.56 180.185 53.624 180.185 52.328V45.008H178.625V42.776H180.185V39.488H182.945V42.776H186.161V45.008H182.945ZM194.419 56.216C193.171 56.216 192.043 55.936 191.035 55.376C190.027 54.8 189.235 54 188.659 52.976C188.083 51.936 187.795 50.736 187.795 49.376C187.795 48.032 188.091 46.84 188.683 45.8C189.275 44.76 190.083 43.96 191.107 43.4C192.131 42.84 193.275 42.56 194.539 42.56C195.803 42.56 196.947 42.84 197.971 43.4C198.995 43.96 199.803 44.76 200.395 45.8C200.987 46.84 201.283 48.032 201.283 49.376C201.283 50.72 200.979 51.912 200.371 52.952C199.763 53.992 198.931 54.8 197.875 55.376C196.835 55.936 195.683 56.216 194.419 56.216ZM194.419 53.84C195.123 53.84 195.779 53.672 196.387 53.336C197.011 53 197.515 52.496 197.899 51.824C198.283 51.152 198.475 50.336 198.475 49.376C198.475 48.416 198.291 47.608 197.923 46.952C197.555 46.28 197.067 45.776 196.459 45.44C195.851 45.104 195.195 44.936 194.491 44.936C193.787 44.936 193.131 45.104 192.523 45.44C191.931 45.776 191.459 46.28 191.107 46.952C190.755 47.608 190.579 48.416 190.579 49.376C190.579 50.8 190.939 51.904 191.659 52.688C192.395 53.456 193.315 53.84 194.419 53.84ZM206.724 44.696C207.124 44.024 207.652 43.504 208.308 43.136C208.98 42.752 209.772 42.56 210.684 42.56V45.392H209.988C208.916 45.392 208.1 45.664 207.54 46.208C206.996 46.752 206.724 47.696 206.724 49.04V56H203.988V42.776H206.724V44.696ZM229.206 42.56C230.246 42.56 231.174 42.776 231.99 43.208C232.822 43.64 233.47 44.28 233.934 45.128C234.414 45.976 234.654 47 234.654 48.2V56H231.942V48.608C231.942 47.424 231.646 46.52 231.054 45.896C230.462 45.256 229.654 44.936 228.63 44.936C227.606 44.936 226.79 45.256 226.182 45.896C225.59 46.52 225.294 47.424 225.294 48.608V56H222.582V48.608C222.582 47.424 222.286 46.52 221.694 45.896C221.102 45.256 220.294 44.936 219.27 44.936C218.246 44.936 217.43 45.256 216.822 45.896C216.23 46.52 215.934 47.424 215.934 48.608V56H213.198V42.776H215.934V44.288C216.382 43.744 216.95 43.32 217.638 43.016C218.326 42.712 219.062 42.56 219.846 42.56C220.902 42.56 221.846 42.784 222.678 43.232C223.51 43.68 224.15 44.328 224.598 45.176C224.998 44.376 225.622 43.744 226.47 43.28C227.318 42.8 228.23 42.56 229.206 42.56Z" fill="white" fill-opacity="0.9"/>
<path d="M126.478 76.454V77.786H121.024V82.016H125.452V83.348H121.024V89H119.386V76.454H126.478ZM130.094 80.738C130.382 80.174 130.79 79.736 131.318 79.424C131.858 79.112 132.512 78.956 133.28 78.956V80.648H132.848C131.012 80.648 130.094 81.644 130.094 83.636V89H128.456V79.136H130.094V80.738ZM144.171 83.69C144.171 84.002 144.153 84.332 144.117 84.68H136.233C136.293 85.652 136.623 86.414 137.223 86.966C137.835 87.506 138.573 87.776 139.437 87.776C140.145 87.776 140.733 87.614 141.201 87.29C141.681 86.954 142.017 86.51 142.209 85.958H143.973C143.709 86.906 143.181 87.68 142.389 88.28C141.597 88.868 140.613 89.162 139.437 89.162C138.501 89.162 137.661 88.952 136.917 88.532C136.185 88.112 135.609 87.518 135.189 86.75C134.769 85.97 134.559 85.07 134.559 84.05C134.559 83.03 134.763 82.136 135.171 81.368C135.579 80.6 136.149 80.012 136.881 79.604C137.625 79.184 138.477 78.974 139.437 78.974C140.373 78.974 141.201 79.178 141.921 79.586C142.641 79.994 143.193 80.558 143.577 81.278C143.973 81.986 144.171 82.79 144.171 83.69ZM142.479 83.348C142.479 82.724 142.341 82.19 142.065 81.746C141.789 81.29 141.411 80.948 140.931 80.72C140.463 80.48 139.941 80.36 139.365 80.36C138.537 80.36 137.829 80.624 137.241 81.152C136.665 81.68 136.335 82.412 136.251 83.348H142.479ZM155.333 83.69C155.333 84.002 155.315 84.332 155.279 84.68H147.395C147.455 85.652 147.785 86.414 148.385 86.966C148.997 87.506 149.735 87.776 150.599 87.776C151.307 87.776 151.895 87.614 152.363 87.29C152.843 86.954 153.179 86.51 153.371 85.958H155.135C154.871 86.906 154.343 87.68 153.551 88.28C152.759 88.868 151.775 89.162 150.599 89.162C149.663 89.162 148.823 88.952 148.079 88.532C147.347 88.112 146.771 87.518 146.351 86.75C145.931 85.97 145.721 85.07 145.721 84.05C145.721 83.03 145.925 82.136 146.333 81.368C146.741 80.6 147.311 80.012 148.043 79.604C148.787 79.184 149.639 78.974 150.599 78.974C151.535 78.974 152.363 79.178 153.083 79.586C153.803 79.994 154.355 80.558 154.739 81.278C155.135 81.986 155.333 82.79 155.333 83.69ZM153.641 83.348C153.641 82.724 153.503 82.19 153.227 81.746C152.951 81.29 152.573 80.948 152.093 80.72C151.625 80.48 151.103 80.36 150.527 80.36C149.699 80.36 148.991 80.624 148.403 81.152C147.827 81.68 147.497 82.412 147.413 83.348H153.641Z" fill="#FFA537"/>
<g clip-path="url(#clip0_50_197)">
<path d="M60.2057 44.8971L57.1886 35.7543L34.88 31L24 43.3429L58.0114 60.7143L60.2057 44.8971Z" fill="url(#paint1_linear_50_197)"/>
<path d="M49.6 68.8514L48.96 49.8343L24 43.3429L30.1257 80.0057L49.6 79.8229V68.8514Z" fill="url(#paint2_linear_50_197)"/>
<path d="M44.2057 68.4858L45.3943 53.4001L63.4971 34.8401L79.68 37.7658L88 58.5201L79.3143 67.1143L65.1428 64.8286L56.3657 74.0629L44.2057 68.4858Z" fill="url(#paint3_linear_50_197)"/>
<path d="M63.4972 34.8401L37.5315 57.8801L42.5601 87.5029L64.1372 95.0001L88.0001 80.7372L63.4972 34.8401Z" fill="url(#paint4_linear_50_197)"/>
<path d="M36.2513 43.2514H75.7485V82.7485H36.2513V43.2514Z" fill="black"/>
<path d="M40 75.3429H54.8114V77.8114H40V75.3429Z" fill="white"/>
<path d="M39.817 48.3714H46.4913C50.4227 48.3714 52.7999 50.6571 52.7999 54.04V54.1314C52.7999 57.9714 49.8742 59.8914 46.1256 59.8914H43.3827V64.8286H39.817V48.3714ZM46.3084 56.6C48.137 56.6 49.1427 55.5029 49.1427 54.1314V54.04C49.1427 52.3943 48.0456 51.5714 46.217 51.5714H43.4742V56.6H46.3084Z" fill="white"/>
<path d="M53.7142 62.4514L55.8171 59.8914C57.2799 61.0799 58.8342 61.9028 60.7542 61.9028C62.2171 61.9028 63.1314 61.3542 63.1314 60.3485V60.2571C63.1314 59.3428 62.5828 58.8856 59.8399 58.1542C56.5485 57.3314 54.3542 56.4171 54.3542 53.1256V53.0342C54.3542 50.0171 56.7314 48.0971 60.1142 48.0971C62.4914 48.0971 64.5942 48.8285 66.2399 50.1999L64.3199 52.9428C62.8571 51.9371 61.3942 51.2971 60.0228 51.2971C58.6514 51.2971 57.9199 51.9371 57.9199 52.7599V52.8514C57.9199 53.9485 58.6514 54.3142 61.4857 55.0456C64.7771 55.9599 66.6971 57.1485 66.6971 59.9828V60.0742C66.6971 63.3656 64.2285 65.1942 60.6628 65.1942C58.1942 65.1028 55.7257 64.1885 53.7142 62.4514Z" fill="white"/>
</g>
<rect x="163" y="216" width="106" height="42" rx="8" fill="#FF6E30"/>
<path d="M209.136 231.832L205.04 243H202.32L198.224 231.832H200.624L203.696 240.712L206.752 231.832H209.136ZM211.615 233.08C211.22 233.08 210.89 232.957 210.623 232.712C210.367 232.456 210.239 232.141 210.239 231.768C210.239 231.395 210.367 231.085 210.623 230.84C210.89 230.584 211.22 230.456 211.615 230.456C212.01 230.456 212.335 230.584 212.591 230.84C212.858 231.085 212.991 231.395 212.991 231.768C212.991 232.141 212.858 232.456 212.591 232.712C212.335 232.957 212.01 233.08 211.615 233.08ZM212.719 234.136V243H210.479V234.136H212.719ZM218.324 243.144C217.599 243.144 216.948 243.016 216.372 242.76C215.796 242.493 215.337 242.136 214.996 241.688C214.665 241.24 214.484 240.744 214.452 240.2H216.708C216.751 240.541 216.916 240.824 217.204 241.048C217.503 241.272 217.871 241.384 218.308 241.384C218.735 241.384 219.065 241.299 219.3 241.128C219.545 240.957 219.668 240.739 219.668 240.472C219.668 240.184 219.519 239.971 219.22 239.832C218.932 239.683 218.468 239.523 217.828 239.352C217.167 239.192 216.623 239.027 216.196 238.856C215.78 238.685 215.417 238.424 215.108 238.072C214.809 237.72 214.66 237.245 214.66 236.648C214.66 236.157 214.799 235.709 215.076 235.304C215.364 234.899 215.769 234.579 216.292 234.344C216.825 234.109 217.449 233.992 218.164 233.992C219.22 233.992 220.063 234.259 220.692 234.792C221.321 235.315 221.668 236.024 221.732 236.92H219.588C219.556 236.568 219.407 236.291 219.14 236.088C218.884 235.875 218.537 235.768 218.1 235.768C217.695 235.768 217.38 235.843 217.156 235.992C216.943 236.141 216.836 236.349 216.836 236.616C216.836 236.915 216.985 237.144 217.284 237.304C217.583 237.453 218.047 237.608 218.676 237.768C219.316 237.928 219.844 238.093 220.26 238.264C220.676 238.435 221.033 238.701 221.332 239.064C221.641 239.416 221.801 239.885 221.812 240.472C221.812 240.984 221.668 241.443 221.38 241.848C221.103 242.253 220.697 242.573 220.164 242.808C219.641 243.032 219.028 243.144 218.324 243.144ZM224.787 233.08C224.392 233.08 224.062 232.957 223.795 232.712C223.539 232.456 223.411 232.141 223.411 231.768C223.411 231.395 223.539 231.085 223.795 230.84C224.062 230.584 224.392 230.456 224.787 230.456C225.182 230.456 225.507 230.584 225.763 230.84C226.03 231.085 226.163 231.395 226.163 231.768C226.163 232.141 226.03 232.456 225.763 232.712C225.507 232.957 225.182 233.08 224.787 233.08ZM225.891 234.136V243H223.651V234.136H225.891ZM230.712 235.976V240.264C230.712 240.563 230.781 240.781 230.92 240.92C231.069 241.048 231.315 241.112 231.656 241.112H232.696V243H231.288C229.4 243 228.456 242.083 228.456 240.248V235.976H227.4V234.136H228.456V231.944H230.712V234.136H232.696V235.976H230.712Z" fill="white"/>
<rect x="24" y="216" width="42" height="42" rx="8" fill="#242C32"/>
<path d="M50.8334 228.25C48.3834 228.25 46.225 229.475 45 231.4C43.775 229.475 41.6167 228.25 39.1667 228.25C35.3167 228.25 32.1667 231.4 32.1667 235.25C32.1667 242.192 45 249.25 45 249.25C45 249.25 57.8334 242.25 57.8334 235.25C57.8334 231.4 54.6834 228.25 50.8334 228.25Z" fill="white" fill-opacity="0.38"/>
<rect x="78" y="216" width="42" height="42" rx="8" fill="#242C32"/>
<path d="M101.5 239.25H100.25V238C100.25 237.668 100.118 237.351 99.8839 237.116C99.6495 236.882 99.3315 236.75 99 236.75C98.6685 236.75 98.3505 236.882 98.1161 237.116C97.8817 237.351 97.75 237.668 97.75 238V239.25H96.5C96.1685 239.25 95.8505 239.382 95.6161 239.616C95.3817 239.851 95.25 240.168 95.25 240.5C95.25 240.832 95.3817 241.149 95.6161 241.384C95.8505 241.618 96.1685 241.75 96.5 241.75H97.75V243C97.75 243.332 97.8817 243.649 98.1161 243.884C98.3505 244.118 98.6685 244.25 99 244.25C99.3315 244.25 99.6495 244.118 99.8839 243.884C100.118 243.649 100.25 243.332 100.25 243V241.75H101.5C101.832 241.75 102.149 241.618 102.384 241.384C102.618 241.149 102.75 240.832 102.75 240.5C102.75 240.168 102.618 239.851 102.384 239.616C102.149 239.382 101.832 239.25 101.5 239.25Z" fill="white" fill-opacity="0.38"/>
<path d="M108.375 231.813H99.625L96.3375 227.838C96.2212 227.694 96.0745 227.578 95.9081 227.498C95.7417 227.418 95.5596 227.376 95.375 227.375H89.625C88.8083 227.365 88.0208 227.679 87.4351 228.248C86.8494 228.818 86.5132 229.596 86.5 230.413V245.588C86.5132 246.404 86.8494 247.182 87.4351 247.752C88.0208 248.321 88.8083 248.635 89.625 248.625H108.375C109.192 248.635 109.979 248.321 110.565 247.752C111.151 247.182 111.487 246.404 111.5 245.588V234.85C111.487 234.033 111.151 233.255 110.565 232.686C109.979 232.116 109.192 231.802 108.375 231.813ZM109 245.563C108.995 245.639 108.975 245.714 108.941 245.783C108.907 245.852 108.859 245.913 108.801 245.963C108.743 246.013 108.675 246.051 108.602 246.075C108.529 246.098 108.452 246.107 108.375 246.1H89.625C89.5485 246.107 89.4713 246.098 89.3982 246.075C89.325 246.051 89.2573 246.013 89.199 245.963C89.1407 245.913 89.0931 245.852 89.0589 245.783C89.0247 245.714 89.0047 245.639 89 245.563V230.413C89.0047 230.336 89.0247 230.261 89.0589 230.192C89.0931 230.123 89.1407 230.062 89.199 230.012C89.2573 229.962 89.325 229.924 89.3982 229.9C89.4713 229.877 89.5485 229.868 89.625 229.875H94.7875L98.0375 233.85C98.1538 233.993 98.3005 234.109 98.4669 234.189C98.6333 234.269 98.8154 234.311 99 234.313H108.375C108.452 234.306 108.529 234.314 108.602 234.338C108.675 234.361 108.743 234.399 108.801 234.449C108.859 234.499 108.907 234.561 108.941 234.629C108.975 234.698 108.995 234.773 109 234.85V245.563Z" fill="white" fill-opacity="0.38"/>
<defs>
<filter id="filter0_f_50_197" x="184" y="-65" width="165" height="162.789" filterUnits="userSpaceOnUse" color-interpolation-filters="sRGB">
<feFlood flood-opacity="0" result="BackgroundImageFix"/>
<feBlend mode="normal" in="SourceGraphic" in2="BackgroundImageFix" result="shape"/>
<feGaussianBlur stdDeviation="25" result="effect1_foregroundBlur_50_197"/>
</filter>
<filter id="filter1_b_50_197" x="-50" y="-50" width="392" height="388" filterUnits="userSpaceOnUse" color-interpolation-filters="sRGB">
<feFlood flood-opacity="0" result="BackgroundImageFix"/>
<feGaussianBlur in="BackgroundImage" stdDeviation="25"/>
<feComposite in2="SourceAlpha" operator="in" result="effect1_backgroundBlur_50_197"/>
<feBlend mode="normal" in="SourceGraphic" in2="effect1_backgroundBlur_50_197" result="shape"/>
</filter>
<linearGradient id="paint0_linear_50_197" x1="-4.97959" y1="-2.34694" x2="332.236" y2="183.229" gradientUnits="userSpaceOnUse">
<stop stop-color="white" stop-opacity="0.8"/>
<stop offset="0.310056" stop-color="white" stop-opacity="0"/>
<stop offset="0.473246" stop-color="white" stop-opacity="0.5"/>
<stop offset="1" stop-color="white" stop-opacity="0"/>
</linearGradient>
<linearGradient id="paint1_linear_50_197" x1="24.5102" y1="73.8306" x2="51.3801" y2="38.3381" gradientUnits="userSpaceOnUse">
<stop offset="0.016" stop-color="#765AF8"/>
<stop offset="0.382" stop-color="#B345F1"/>
<stop offset="0.758" stop-color="#FA3293"/>
<stop offset="0.941" stop-color="#FF318C"/>
</linearGradient>
<linearGradient id="paint2_linear_50_197" x1="26.496" y1="75.2322" x2="53.323" y2="39.7963" gradientUnits="userSpaceOnUse">
<stop offset="0.016" stop-color="#765AF8"/>
<stop offset="0.382" stop-color="#B345F1"/>
<stop offset="0.758" stop-color="#FA3293"/>
<stop offset="0.941" stop-color="#FF318C"/>
</linearGradient>
<linearGradient id="paint3_linear_50_197" x1="70.4978" y1="73.4275" x2="55.3362" y2="37.4439" gradientUnits="userSpaceOnUse">
<stop offset="0.183" stop-color="#765AF8"/>
<stop offset="0.238" stop-color="#8655F6"/>
<stop offset="0.345" stop-color="#9F4CF3"/>
<stop offset="0.443" stop-color="#AE47F2"/>
<stop offset="0.522" stop-color="#B345F1"/>
</linearGradient>
<linearGradient id="paint4_linear_50_197" x1="81.8433" y1="83.4243" x2="46.5811" y2="56.1575" gradientUnits="userSpaceOnUse">
<stop offset="0.016" stop-color="#765AF8"/>
<stop offset="0.382" stop-color="#B345F1"/>
</linearGradient>
<clipPath id="clip0_50_197">
<rect width="64" height="64" fill="white" transform="translate(24 31)"/>
</clipPath>
</defs>
</svg>
