<svg width="288" height="284" viewBox="0 0 288 284" fill="none" xmlns="http://www.w3.org/2000/svg">
<rect width="288" height="284" rx="15" fill="#1E252B"/>
<path d="M24.352 142.964H27.768V144H23.078V134.242H24.352V142.964ZM32.467 144.126C31.7483 144.126 31.095 143.963 30.507 143.636C29.9283 143.309 29.471 142.847 29.135 142.25C28.8083 141.643 28.645 140.943 28.645 140.15C28.645 139.366 28.813 138.675 29.149 138.078C29.4943 137.471 29.961 137.009 30.549 136.692C31.137 136.365 31.795 136.202 32.523 136.202C33.251 136.202 33.909 136.365 34.497 136.692C35.085 137.009 35.547 137.467 35.883 138.064C36.2283 138.661 36.401 139.357 36.401 140.15C36.401 140.943 36.2236 141.643 35.869 142.25C35.5236 142.847 35.0523 143.309 34.455 143.636C33.8576 143.963 33.195 144.126 32.467 144.126ZM32.467 143.006C32.9243 143.006 33.3536 142.899 33.755 142.684C34.1563 142.469 34.4783 142.147 34.721 141.718C34.973 141.289 35.099 140.766 35.099 140.15C35.099 139.534 34.9776 139.011 34.735 138.582C34.4923 138.153 34.175 137.835 33.783 137.63C33.391 137.415 32.9663 137.308 32.509 137.308C32.0423 137.308 31.613 137.415 31.221 137.63C30.8383 137.835 30.5303 138.153 30.297 138.582C30.0636 139.011 29.947 139.534 29.947 140.15C29.947 140.775 30.059 141.303 30.283 141.732C30.5163 142.161 30.8243 142.483 31.207 142.698C31.5896 142.903 32.0096 143.006 32.467 143.006ZM39.35 137.574C39.574 137.135 39.8914 136.795 40.302 136.552C40.722 136.309 41.2307 136.188 41.828 136.188V137.504H41.492C40.064 137.504 39.35 138.279 39.35 139.828V144H38.076V136.328H39.35V137.574ZM50.2987 139.87C50.2987 140.113 50.2847 140.369 50.2567 140.64H44.1247C44.1714 141.396 44.428 141.989 44.8947 142.418C45.3707 142.838 45.9447 143.048 46.6167 143.048C47.1674 143.048 47.6247 142.922 47.9887 142.67C48.362 142.409 48.6234 142.063 48.7727 141.634H50.1447C49.9394 142.371 49.5287 142.973 48.9127 143.44C48.2967 143.897 47.5314 144.126 46.6167 144.126C45.8887 144.126 45.2354 143.963 44.6567 143.636C44.0874 143.309 43.6394 142.847 43.3127 142.25C42.986 141.643 42.8227 140.943 42.8227 140.15C42.8227 139.357 42.9814 138.661 43.2987 138.064C43.616 137.467 44.0594 137.009 44.6287 136.692C45.2074 136.365 45.87 136.202 46.6167 136.202C47.3447 136.202 47.9887 136.361 48.5487 136.678C49.1087 136.995 49.538 137.434 49.8367 137.994C50.1447 138.545 50.2987 139.17 50.2987 139.87ZM48.9827 139.604C48.9827 139.119 48.8754 138.703 48.6607 138.358C48.446 138.003 48.152 137.737 47.7787 137.56C47.4147 137.373 47.0087 137.28 46.5607 137.28C45.9167 137.28 45.366 137.485 44.9087 137.896C44.4607 138.307 44.204 138.876 44.1387 139.604H48.9827ZM61.2063 136.188C61.8037 136.188 62.3357 136.314 62.8023 136.566C63.269 136.809 63.6377 137.177 63.9083 137.672C64.179 138.167 64.3143 138.769 64.3143 139.478V144H63.0543V139.66C63.0543 138.895 62.863 138.311 62.4803 137.91C62.107 137.499 61.5983 137.294 60.9543 137.294C60.2917 137.294 59.7643 137.509 59.3723 137.938C58.9803 138.358 58.7843 138.969 58.7843 139.772V144H57.5243V139.66C57.5243 138.895 57.333 138.311 56.9503 137.91C56.577 137.499 56.0683 137.294 55.4243 137.294C54.7617 137.294 54.2343 137.509 53.8423 137.938C53.4503 138.358 53.2543 138.969 53.2543 139.772V144H51.9803V136.328H53.2543V137.434C53.5063 137.033 53.8423 136.725 54.2623 136.51C54.6917 136.295 55.163 136.188 55.6763 136.188C56.3203 136.188 56.8897 136.333 57.3843 136.622C57.879 136.911 58.2477 137.336 58.4903 137.896C58.705 137.355 59.0597 136.935 59.5543 136.636C60.049 136.337 60.5997 136.188 61.2063 136.188ZM70.7946 135.082C70.5519 135.082 70.3466 134.998 70.1786 134.83C70.0106 134.662 69.9266 134.457 69.9266 134.214C69.9266 133.971 70.0106 133.766 70.1786 133.598C70.3466 133.43 70.5519 133.346 70.7946 133.346C71.0279 133.346 71.2239 133.43 71.3826 133.598C71.5506 133.766 71.6346 133.971 71.6346 134.214C71.6346 134.457 71.5506 134.662 71.3826 134.83C71.2239 134.998 71.0279 135.082 70.7946 135.082ZM71.4106 136.328V144H70.1366V136.328H71.4106ZM74.8559 137.742C75.1079 137.303 75.4812 136.939 75.9759 136.65C76.4799 136.351 77.0632 136.202 77.7259 136.202C78.4072 136.202 79.0232 136.365 79.5739 136.692C80.1339 137.019 80.5726 137.481 80.8899 138.078C81.2072 138.666 81.3659 139.352 81.3659 140.136C81.3659 140.911 81.2072 141.601 80.8899 142.208C80.5726 142.815 80.1339 143.286 79.5739 143.622C79.0232 143.958 78.4072 144.126 77.7259 144.126C77.0726 144.126 76.4939 143.981 75.9899 143.692C75.4952 143.393 75.1172 143.025 74.8559 142.586V147.64H73.5819V136.328H74.8559V137.742ZM80.0639 140.136C80.0639 139.557 79.9472 139.053 79.7139 138.624C79.4806 138.195 79.1632 137.868 78.7619 137.644C78.3699 137.42 77.9359 137.308 77.4599 137.308C76.9932 137.308 76.5592 137.425 76.1579 137.658C75.7659 137.882 75.4486 138.213 75.2059 138.652C74.9726 139.081 74.8559 139.581 74.8559 140.15C74.8559 140.729 74.9726 141.237 75.2059 141.676C75.4486 142.105 75.7659 142.437 76.1579 142.67C76.5592 142.894 76.9932 143.006 77.4599 143.006C77.9359 143.006 78.3699 142.894 78.7619 142.67C79.1632 142.437 79.4806 142.105 79.7139 141.676C79.9472 141.237 80.0639 140.724 80.0639 140.136ZM85.7588 144.126C85.1708 144.126 84.6435 144.028 84.1768 143.832C83.7102 143.627 83.3415 143.347 83.0708 142.992C82.8002 142.628 82.6508 142.213 82.6228 141.746H83.9388C83.9762 142.129 84.1535 142.441 84.4708 142.684C84.7975 142.927 85.2222 143.048 85.7448 143.048C86.2302 143.048 86.6128 142.941 86.8928 142.726C87.1728 142.511 87.3128 142.241 87.3128 141.914C87.3128 141.578 87.1635 141.331 86.8648 141.172C86.5662 141.004 86.1042 140.841 85.4788 140.682C84.9095 140.533 84.4428 140.383 84.0788 140.234C83.7242 140.075 83.4162 139.847 83.1548 139.548C82.9028 139.24 82.7768 138.839 82.7768 138.344C82.7768 137.952 82.8935 137.593 83.1268 137.266C83.3602 136.939 83.6915 136.683 84.1208 136.496C84.5502 136.3 85.0402 136.202 85.5908 136.202C86.4402 136.202 87.1262 136.417 87.6488 136.846C88.1715 137.275 88.4515 137.863 88.4888 138.61H87.2148C87.1868 138.209 87.0235 137.887 86.7248 137.644C86.4355 137.401 86.0435 137.28 85.5488 137.28C85.0915 137.28 84.7275 137.378 84.4568 137.574C84.1862 137.77 84.0508 138.027 84.0508 138.344C84.0508 138.596 84.1302 138.806 84.2888 138.974C84.4568 139.133 84.6622 139.263 84.9048 139.366C85.1568 139.459 85.5022 139.567 85.9408 139.688C86.4915 139.837 86.9395 139.987 87.2848 140.136C87.6302 140.276 87.9242 140.491 88.1668 140.78C88.4188 141.069 88.5495 141.447 88.5588 141.914C88.5588 142.334 88.4422 142.712 88.2088 143.048C87.9755 143.384 87.6442 143.65 87.2148 143.846C86.7948 144.033 86.3095 144.126 85.7588 144.126ZM97.1613 136.328V144H95.8873V142.866C95.6446 143.258 95.304 143.566 94.8653 143.79C94.436 144.005 93.96 144.112 93.4373 144.112C92.84 144.112 92.3033 143.991 91.8273 143.748C91.3513 143.496 90.9733 143.123 90.6933 142.628C90.4226 142.133 90.2873 141.531 90.2873 140.822V136.328H91.5473V140.654C91.5473 141.41 91.7386 141.993 92.1213 142.404C92.504 142.805 93.0266 143.006 93.6893 143.006C94.3706 143.006 94.9073 142.796 95.2993 142.376C95.6913 141.956 95.8873 141.345 95.8873 140.542V136.328H97.1613ZM108.538 136.188C109.136 136.188 109.668 136.314 110.134 136.566C110.601 136.809 110.97 137.177 111.24 137.672C111.511 138.167 111.646 138.769 111.646 139.478V144H110.386V139.66C110.386 138.895 110.195 138.311 109.812 137.91C109.439 137.499 108.93 137.294 108.286 137.294C107.624 137.294 107.096 137.509 106.704 137.938C106.312 138.358 106.116 138.969 106.116 139.772V144H104.856V139.66C104.856 138.895 104.665 138.311 104.282 137.91C103.909 137.499 103.4 137.294 102.756 137.294C102.094 137.294 101.566 137.509 101.174 137.938C100.782 138.358 100.586 138.969 100.586 139.772V144H99.3124V136.328H100.586V137.434C100.838 137.033 101.174 136.725 101.594 136.51C102.024 136.295 102.495 136.188 103.008 136.188C103.652 136.188 104.222 136.333 104.716 136.622C105.211 136.911 105.58 137.336 105.822 137.896C106.037 137.355 106.392 136.935 106.886 136.636C107.381 136.337 107.932 136.188 108.538 136.188ZM116.993 140.136C116.993 139.352 117.151 138.666 117.469 138.078C117.786 137.481 118.22 137.019 118.771 136.692C119.331 136.365 119.956 136.202 120.647 136.202C121.244 136.202 121.799 136.342 122.313 136.622C122.826 136.893 123.218 137.252 123.489 137.7V133.64H124.777V144H123.489V142.558C123.237 143.015 122.863 143.393 122.369 143.692C121.874 143.981 121.295 144.126 120.633 144.126C119.951 144.126 119.331 143.958 118.771 143.622C118.22 143.286 117.786 142.815 117.469 142.208C117.151 141.601 116.993 140.911 116.993 140.136ZM123.489 140.15C123.489 139.571 123.372 139.067 123.139 138.638C122.905 138.209 122.588 137.882 122.187 137.658C121.795 137.425 121.361 137.308 120.885 137.308C120.409 137.308 119.975 137.42 119.583 137.644C119.191 137.868 118.878 138.195 118.645 138.624C118.411 139.053 118.295 139.557 118.295 140.136C118.295 140.724 118.411 141.237 118.645 141.676C118.878 142.105 119.191 142.437 119.583 142.67C119.975 142.894 120.409 143.006 120.885 143.006C121.361 143.006 121.795 142.894 122.187 142.67C122.588 142.437 122.905 142.105 123.139 141.676C123.372 141.237 123.489 140.729 123.489 140.15ZM130.276 144.126C129.557 144.126 128.904 143.963 128.316 143.636C127.737 143.309 127.28 142.847 126.944 142.25C126.617 141.643 126.454 140.943 126.454 140.15C126.454 139.366 126.622 138.675 126.958 138.078C127.303 137.471 127.77 137.009 128.358 136.692C128.946 136.365 129.604 136.202 130.332 136.202C131.06 136.202 131.718 136.365 132.306 136.692C132.894 137.009 133.356 137.467 133.692 138.064C134.037 138.661 134.21 139.357 134.21 140.15C134.21 140.943 134.032 141.643 133.678 142.25C133.332 142.847 132.861 143.309 132.264 143.636C131.666 143.963 131.004 144.126 130.276 144.126ZM130.276 143.006C130.733 143.006 131.162 142.899 131.564 142.684C131.965 142.469 132.287 142.147 132.53 141.718C132.782 141.289 132.908 140.766 132.908 140.15C132.908 139.534 132.786 139.011 132.544 138.582C132.301 138.153 131.984 137.835 131.592 137.63C131.2 137.415 130.775 137.308 130.318 137.308C129.851 137.308 129.422 137.415 129.03 137.63C128.647 137.835 128.339 138.153 128.106 138.582C127.872 139.011 127.756 139.534 127.756 140.15C127.756 140.775 127.868 141.303 128.092 141.732C128.325 142.161 128.633 142.483 129.016 142.698C129.398 142.903 129.818 143.006 130.276 143.006ZM137.159 133.64V144H135.885V133.64H137.159ZM142.676 144.126C141.957 144.126 141.304 143.963 140.716 143.636C140.137 143.309 139.68 142.847 139.344 142.25C139.017 141.643 138.854 140.943 138.854 140.15C138.854 139.366 139.022 138.675 139.358 138.078C139.703 137.471 140.17 137.009 140.758 136.692C141.346 136.365 142.004 136.202 142.732 136.202C143.46 136.202 144.118 136.365 144.706 136.692C145.294 137.009 145.756 137.467 146.092 138.064C146.437 138.661 146.61 139.357 146.61 140.15C146.61 140.943 146.433 141.643 146.078 142.25C145.733 142.847 145.261 143.309 144.664 143.636C144.067 143.963 143.404 144.126 142.676 144.126ZM142.676 143.006C143.133 143.006 143.563 142.899 143.964 142.684C144.365 142.469 144.687 142.147 144.93 141.718C145.182 141.289 145.308 140.766 145.308 140.15C145.308 139.534 145.187 139.011 144.944 138.582C144.701 138.153 144.384 137.835 143.992 137.63C143.6 137.415 143.175 137.308 142.718 137.308C142.251 137.308 141.822 137.415 141.43 137.63C141.047 137.835 140.739 138.153 140.506 138.582C140.273 139.011 140.156 139.534 140.156 140.15C140.156 140.775 140.268 141.303 140.492 141.732C140.725 142.161 141.033 142.483 141.416 142.698C141.799 142.903 142.219 143.006 142.676 143.006ZM149.559 137.574C149.783 137.135 150.1 136.795 150.511 136.552C150.931 136.309 151.44 136.188 152.037 136.188V137.504H151.701C150.273 137.504 149.559 138.279 149.559 139.828V144H148.285V136.328H149.559V137.574ZM159.956 144.126C159.368 144.126 158.841 144.028 158.374 143.832C157.907 143.627 157.539 143.347 157.268 142.992C156.997 142.628 156.848 142.213 156.82 141.746H158.136C158.173 142.129 158.351 142.441 158.668 142.684C158.995 142.927 159.419 143.048 159.942 143.048C160.427 143.048 160.81 142.941 161.09 142.726C161.37 142.511 161.51 142.241 161.51 141.914C161.51 141.578 161.361 141.331 161.062 141.172C160.763 141.004 160.301 140.841 159.676 140.682C159.107 140.533 158.64 140.383 158.276 140.234C157.921 140.075 157.613 139.847 157.352 139.548C157.1 139.24 156.974 138.839 156.974 138.344C156.974 137.952 157.091 137.593 157.324 137.266C157.557 136.939 157.889 136.683 158.318 136.496C158.747 136.3 159.237 136.202 159.788 136.202C160.637 136.202 161.323 136.417 161.846 136.846C162.369 137.275 162.649 137.863 162.686 138.61H161.412C161.384 138.209 161.221 137.887 160.922 137.644C160.633 137.401 160.241 137.28 159.746 137.28C159.289 137.28 158.925 137.378 158.654 137.574C158.383 137.77 158.248 138.027 158.248 138.344C158.248 138.596 158.327 138.806 158.486 138.974C158.654 139.133 158.859 139.263 159.102 139.366C159.354 139.459 159.699 139.567 160.138 139.688C160.689 139.837 161.137 139.987 161.482 140.136C161.827 140.276 162.121 140.491 162.364 140.78C162.616 141.069 162.747 141.447 162.756 141.914C162.756 142.334 162.639 142.712 162.406 143.048C162.173 143.384 161.841 143.65 161.412 143.846C160.992 144.033 160.507 144.126 159.956 144.126ZM165.213 135.082C164.97 135.082 164.765 134.998 164.597 134.83C164.429 134.662 164.345 134.457 164.345 134.214C164.345 133.971 164.429 133.766 164.597 133.598C164.765 133.43 164.97 133.346 165.213 133.346C165.446 133.346 165.642 133.43 165.801 133.598C165.969 133.766 166.053 133.971 166.053 134.214C166.053 134.457 165.969 134.662 165.801 134.83C165.642 134.998 165.446 135.082 165.213 135.082ZM165.829 136.328V144H164.555V136.328H165.829ZM169.554 137.378V141.9C169.554 142.273 169.633 142.539 169.792 142.698C169.951 142.847 170.226 142.922 170.618 142.922H171.556V144H170.408C169.699 144 169.167 143.837 168.812 143.51C168.457 143.183 168.28 142.647 168.28 141.9V137.378H167.286V136.328H168.28V134.396H169.554V136.328H171.556V137.378H169.554ZM176.356 140.136C176.356 139.352 176.515 138.666 176.832 138.078C177.149 137.481 177.583 137.019 178.134 136.692C178.694 136.365 179.315 136.202 179.996 136.202C180.668 136.202 181.251 136.347 181.746 136.636C182.241 136.925 182.609 137.289 182.852 137.728V136.328H184.14V144H182.852V142.572C182.6 143.02 182.222 143.393 181.718 143.692C181.223 143.981 180.645 144.126 179.982 144.126C179.301 144.126 178.685 143.958 178.134 143.622C177.583 143.286 177.149 142.815 176.832 142.208C176.515 141.601 176.356 140.911 176.356 140.136ZM182.852 140.15C182.852 139.571 182.735 139.067 182.502 138.638C182.269 138.209 181.951 137.882 181.55 137.658C181.158 137.425 180.724 137.308 180.248 137.308C179.772 137.308 179.338 137.42 178.946 137.644C178.554 137.868 178.241 138.195 178.008 138.624C177.775 139.053 177.658 139.557 177.658 140.136C177.658 140.724 177.775 141.237 178.008 141.676C178.241 142.105 178.554 142.437 178.946 142.67C179.338 142.894 179.772 143.006 180.248 143.006C180.724 143.006 181.158 142.894 181.55 142.67C181.951 142.437 182.269 142.105 182.502 141.676C182.735 141.237 182.852 140.729 182.852 140.15ZM195.519 136.188C196.116 136.188 196.648 136.314 197.115 136.566C197.582 136.809 197.95 137.177 198.221 137.672C198.492 138.167 198.627 138.769 198.627 139.478V144H197.367V139.66C197.367 138.895 197.176 138.311 196.793 137.91C196.42 137.499 195.911 137.294 195.267 137.294C194.604 137.294 194.077 137.509 193.685 137.938C193.293 138.358 193.097 138.969 193.097 139.772V144H191.837V139.66C191.837 138.895 191.646 138.311 191.263 137.91C190.89 137.499 190.381 137.294 189.737 137.294C189.074 137.294 188.547 137.509 188.155 137.938C187.763 138.358 187.567 138.969 187.567 139.772V144H186.293V136.328H187.567V137.434C187.819 137.033 188.155 136.725 188.575 136.51C189.004 136.295 189.476 136.188 189.989 136.188C190.633 136.188 191.202 136.333 191.697 136.622C192.192 136.911 192.56 137.336 192.803 137.896C193.018 137.355 193.372 136.935 193.867 136.636C194.362 136.337 194.912 136.188 195.519 136.188ZM207.717 139.87C207.717 140.113 207.703 140.369 207.675 140.64H201.543C201.589 141.396 201.846 141.989 202.313 142.418C202.789 142.838 203.363 143.048 204.035 143.048C204.585 143.048 205.043 142.922 205.407 142.67C205.78 142.409 206.041 142.063 206.191 141.634H207.563C207.357 142.371 206.947 142.973 206.331 143.44C205.715 143.897 204.949 144.126 204.035 144.126C203.307 144.126 202.653 143.963 202.075 143.636C201.505 143.309 201.057 142.847 200.731 142.25C200.404 141.643 200.241 140.943 200.241 140.15C200.241 139.357 200.399 138.661 200.717 138.064C201.034 137.467 201.477 137.009 202.047 136.692C202.625 136.365 203.288 136.202 204.035 136.202C204.763 136.202 205.407 136.361 205.967 136.678C206.527 136.995 206.956 137.434 207.255 137.994C207.563 138.545 207.717 139.17 207.717 139.87ZM206.401 139.604C206.401 139.119 206.293 138.703 206.079 138.358C205.864 138.003 205.57 137.737 205.197 137.56C204.833 137.373 204.427 137.28 203.979 137.28C203.335 137.28 202.784 137.485 202.327 137.896C201.879 138.307 201.622 138.876 201.557 139.604H206.401ZM210.952 137.378V141.9C210.952 142.273 211.032 142.539 211.19 142.698C211.349 142.847 211.624 142.922 212.016 142.922H212.954V144H211.806C211.097 144 210.565 143.837 210.21 143.51C209.856 143.183 209.678 142.647 209.678 141.9V137.378H208.684V136.328H209.678V134.396H210.952V136.328H212.954V137.378H210.952ZM215.814 142.236L214.246 146.002H213.392L214.414 142.236H215.814ZM22.602 170.15C22.602 169.357 22.7607 168.666 23.078 168.078C23.3953 167.481 23.834 167.019 24.394 166.692C24.9633 166.365 25.612 166.202 26.34 166.202C27.2827 166.202 28.0573 166.431 28.664 166.888C29.28 167.345 29.686 167.98 29.882 168.792H28.51C28.3793 168.325 28.1227 167.957 27.74 167.686C27.3667 167.415 26.9 167.28 26.34 167.28C25.612 167.28 25.024 167.532 24.576 168.036C24.128 168.531 23.904 169.235 23.904 170.15C23.904 171.074 24.128 171.788 24.576 172.292C25.024 172.796 25.612 173.048 26.34 173.048C26.9 173.048 27.3667 172.917 27.74 172.656C28.1133 172.395 28.37 172.021 28.51 171.536H29.882C29.6767 172.32 29.266 172.95 28.65 173.426C28.034 173.893 27.264 174.126 26.34 174.126C25.612 174.126 24.9633 173.963 24.394 173.636C23.834 173.309 23.3953 172.847 23.078 172.25C22.7607 171.653 22.602 170.953 22.602 170.15ZM34.9279 174.126C34.2092 174.126 33.5559 173.963 32.9679 173.636C32.3892 173.309 31.9319 172.847 31.5959 172.25C31.2692 171.643 31.1059 170.943 31.1059 170.15C31.1059 169.366 31.2739 168.675 31.6099 168.078C31.9552 167.471 32.4219 167.009 33.0099 166.692C33.5979 166.365 34.2559 166.202 34.9839 166.202C35.7119 166.202 36.3699 166.365 36.9579 166.692C37.5459 167.009 38.0079 167.467 38.3439 168.064C38.6892 168.661 38.8619 169.357 38.8619 170.15C38.8619 170.943 38.6846 171.643 38.3299 172.25C37.9846 172.847 37.5132 173.309 36.9159 173.636C36.3186 173.963 35.6559 174.126 34.9279 174.126ZM34.9279 173.006C35.3852 173.006 35.8146 172.899 36.2159 172.684C36.6172 172.469 36.9392 172.147 37.1819 171.718C37.4339 171.289 37.5599 170.766 37.5599 170.15C37.5599 169.534 37.4386 169.011 37.1959 168.582C36.9532 168.153 36.6359 167.835 36.2439 167.63C35.8519 167.415 35.4272 167.308 34.9699 167.308C34.5032 167.308 34.0739 167.415 33.6819 167.63C33.2992 167.835 32.9912 168.153 32.7579 168.582C32.5246 169.011 32.4079 169.534 32.4079 170.15C32.4079 170.775 32.5199 171.303 32.7439 171.732C32.9772 172.161 33.2852 172.483 33.6679 172.698C34.0506 172.903 34.4706 173.006 34.9279 173.006ZM44.275 166.188C45.2083 166.188 45.9643 166.473 46.543 167.042C47.1217 167.602 47.411 168.414 47.411 169.478V174H46.151V169.66C46.151 168.895 45.9597 168.311 45.577 167.91C45.1943 167.499 44.6717 167.294 44.009 167.294C43.337 167.294 42.8003 167.504 42.399 167.924C42.007 168.344 41.811 168.955 41.811 169.758V174H40.537V166.328H41.811V167.42C42.063 167.028 42.4037 166.725 42.833 166.51C43.2717 166.295 43.7523 166.188 44.275 166.188ZM52.2081 174.126C51.6201 174.126 51.0927 174.028 50.6261 173.832C50.1594 173.627 49.7907 173.347 49.5201 172.992C49.2494 172.628 49.1001 172.213 49.0721 171.746H50.3881C50.4254 172.129 50.6027 172.441 50.9201 172.684C51.2467 172.927 51.6714 173.048 52.1941 173.048C52.6794 173.048 53.0621 172.941 53.3421 172.726C53.6221 172.511 53.7621 172.241 53.7621 171.914C53.7621 171.578 53.6127 171.331 53.3141 171.172C53.0154 171.004 52.5534 170.841 51.9281 170.682C51.3587 170.533 50.8921 170.383 50.5281 170.234C50.1734 170.075 49.8654 169.847 49.6041 169.548C49.3521 169.24 49.2261 168.839 49.2261 168.344C49.2261 167.952 49.3427 167.593 49.5761 167.266C49.8094 166.939 50.1407 166.683 50.5701 166.496C50.9994 166.3 51.4894 166.202 52.0401 166.202C52.8894 166.202 53.5754 166.417 54.0981 166.846C54.6207 167.275 54.9007 167.863 54.9381 168.61H53.6641C53.6361 168.209 53.4727 167.887 53.1741 167.644C52.8847 167.401 52.4927 167.28 51.9981 167.28C51.5407 167.28 51.1767 167.378 50.9061 167.574C50.6354 167.77 50.5001 168.027 50.5001 168.344C50.5001 168.596 50.5794 168.806 50.7381 168.974C50.9061 169.133 51.1114 169.263 51.3541 169.366C51.6061 169.459 51.9514 169.567 52.3901 169.688C52.9407 169.837 53.3887 169.987 53.7341 170.136C54.0794 170.276 54.3734 170.491 54.6161 170.78C54.8681 171.069 54.9987 171.447 55.0081 171.914C55.0081 172.334 54.8914 172.712 54.6581 173.048C54.4247 173.384 54.0934 173.65 53.6641 173.846C53.2441 174.033 52.7587 174.126 52.2081 174.126ZM63.8065 169.87C63.8065 170.113 63.7925 170.369 63.7645 170.64H57.6325C57.6792 171.396 57.9358 171.989 58.4025 172.418C58.8785 172.838 59.4525 173.048 60.1245 173.048C60.6752 173.048 61.1325 172.922 61.4965 172.67C61.8698 172.409 62.1312 172.063 62.2805 171.634H63.6525C63.4472 172.371 63.0365 172.973 62.4205 173.44C61.8045 173.897 61.0392 174.126 60.1245 174.126C59.3965 174.126 58.7432 173.963 58.1645 173.636C57.5952 173.309 57.1472 172.847 56.8205 172.25C56.4938 171.643 56.3305 170.943 56.3305 170.15C56.3305 169.357 56.4892 168.661 56.8065 168.064C57.1238 167.467 57.5672 167.009 58.1365 166.692C58.7152 166.365 59.3778 166.202 60.1245 166.202C60.8525 166.202 61.4965 166.361 62.0565 166.678C62.6165 166.995 63.0458 167.434 63.3445 167.994C63.6525 168.545 63.8065 169.17 63.8065 169.87ZM62.4905 169.604C62.4905 169.119 62.3832 168.703 62.1685 168.358C61.9538 168.003 61.6598 167.737 61.2865 167.56C60.9225 167.373 60.5165 167.28 60.0685 167.28C59.4245 167.28 58.8738 167.485 58.4165 167.896C57.9685 168.307 57.7118 168.876 57.6465 169.604H62.4905ZM65.0122 170.15C65.0122 169.357 65.1708 168.666 65.4882 168.078C65.8055 167.481 66.2442 167.019 66.8042 166.692C67.3735 166.365 68.0222 166.202 68.7502 166.202C69.6928 166.202 70.4675 166.431 71.0742 166.888C71.6902 167.345 72.0962 167.98 72.2922 168.792H70.9202C70.7895 168.325 70.5328 167.957 70.1502 167.686C69.7768 167.415 69.3102 167.28 68.7502 167.28C68.0222 167.28 67.4342 167.532 66.9862 168.036C66.5382 168.531 66.3142 169.235 66.3142 170.15C66.3142 171.074 66.5382 171.788 66.9862 172.292C67.4342 172.796 68.0222 173.048 68.7502 173.048C69.3102 173.048 69.7768 172.917 70.1502 172.656C70.5235 172.395 70.7802 172.021 70.9202 171.536H72.2922C72.0868 172.32 71.6762 172.95 71.0602 173.426C70.4442 173.893 69.6742 174.126 68.7502 174.126C68.0222 174.126 67.3735 173.963 66.8042 173.636C66.2442 173.309 65.8055 172.847 65.4882 172.25C65.1708 171.653 65.0122 170.953 65.0122 170.15ZM75.5461 167.378V171.9C75.5461 172.273 75.6254 172.539 75.7841 172.698C75.9427 172.847 76.2181 172.922 76.6101 172.922H77.5481V174H76.4001C75.6907 174 75.1587 173.837 74.8041 173.51C74.4494 173.183 74.2721 172.647 74.2721 171.9V167.378H73.2781V166.328H74.2721V164.396H75.5461V166.328H77.5481V167.378H75.5461ZM86.0917 169.87C86.0917 170.113 86.0777 170.369 86.0497 170.64H79.9177C79.9643 171.396 80.221 171.989 80.6877 172.418C81.1637 172.838 81.7377 173.048 82.4097 173.048C82.9603 173.048 83.4177 172.922 83.7817 172.67C84.155 172.409 84.4163 172.063 84.5657 171.634H85.9377C85.7323 172.371 85.3217 172.973 84.7057 173.44C84.0897 173.897 83.3243 174.126 82.4097 174.126C81.6817 174.126 81.0283 173.963 80.4497 173.636C79.8803 173.309 79.4323 172.847 79.1057 172.25C78.779 171.643 78.6157 170.943 78.6157 170.15C78.6157 169.357 78.7743 168.661 79.0917 168.064C79.409 167.467 79.8523 167.009 80.4217 166.692C81.0003 166.365 81.663 166.202 82.4097 166.202C83.1377 166.202 83.7817 166.361 84.3417 166.678C84.9017 166.995 85.331 167.434 85.6297 167.994C85.9377 168.545 86.0917 169.17 86.0917 169.87ZM84.7757 169.604C84.7757 169.119 84.6683 168.703 84.4537 168.358C84.239 168.003 83.945 167.737 83.5717 167.56C83.2077 167.373 82.8017 167.28 82.3537 167.28C81.7097 167.28 81.159 167.485 80.7017 167.896C80.2537 168.307 79.997 168.876 79.9317 169.604H84.7757ZM89.3273 167.378V171.9C89.3273 172.273 89.4066 172.539 89.5653 172.698C89.724 172.847 89.9993 172.922 90.3913 172.922H91.3293V174H90.1813C89.472 174 88.94 173.837 88.5853 173.51C88.2306 173.183 88.0533 172.647 88.0533 171.9V167.378H87.0593V166.328H88.0533V164.396H89.3273V166.328H91.3293V167.378H89.3273ZM99.6769 166.328V174H98.4029V172.866C98.1603 173.258 97.8196 173.566 97.3809 173.79C96.9516 174.005 96.4756 174.112 95.9529 174.112C95.3556 174.112 94.8189 173.991 94.3429 173.748C93.8669 173.496 93.4889 173.123 93.2089 172.628C92.9383 172.133 92.8029 171.531 92.8029 170.822V166.328H94.0629V170.654C94.0629 171.41 94.2543 171.993 94.6369 172.404C95.0196 172.805 95.5423 173.006 96.2049 173.006C96.8863 173.006 97.4229 172.796 97.8149 172.376C98.2069 171.956 98.4029 171.345 98.4029 170.542V166.328H99.6769ZM103.102 167.574C103.326 167.135 103.643 166.795 104.054 166.552C104.474 166.309 104.983 166.188 105.58 166.188V167.504H105.244C103.816 167.504 103.102 168.279 103.102 169.828V174H101.828V166.328H103.102V167.574ZM110.307 170.136C110.307 169.352 110.466 168.666 110.783 168.078C111.1 167.481 111.534 167.019 112.085 166.692C112.645 166.365 113.266 166.202 113.947 166.202C114.619 166.202 115.202 166.347 115.697 166.636C116.192 166.925 116.56 167.289 116.803 167.728V166.328H118.091V174H116.803V172.572C116.551 173.02 116.173 173.393 115.669 173.692C115.174 173.981 114.596 174.126 113.933 174.126C113.252 174.126 112.636 173.958 112.085 173.622C111.534 173.286 111.1 172.815 110.783 172.208C110.466 171.601 110.307 170.911 110.307 170.136ZM116.803 170.15C116.803 169.571 116.686 169.067 116.453 168.638C116.22 168.209 115.902 167.882 115.501 167.658C115.109 167.425 114.675 167.308 114.199 167.308C113.723 167.308 113.289 167.42 112.897 167.644C112.505 167.868 112.192 168.195 111.959 168.624C111.726 169.053 111.609 169.557 111.609 170.136C111.609 170.724 111.726 171.237 111.959 171.676C112.192 172.105 112.505 172.437 112.897 172.67C113.289 172.894 113.723 173.006 114.199 173.006C114.675 173.006 115.109 172.894 115.501 172.67C115.902 172.437 116.22 172.105 116.453 171.676C116.686 171.237 116.803 170.729 116.803 170.15ZM119.768 170.136C119.768 169.352 119.927 168.666 120.244 168.078C120.561 167.481 120.995 167.019 121.546 166.692C122.106 166.365 122.731 166.202 123.422 166.202C124.019 166.202 124.575 166.342 125.088 166.622C125.601 166.893 125.993 167.252 126.264 167.7V163.64H127.552V174H126.264V172.558C126.012 173.015 125.639 173.393 125.144 173.692C124.649 173.981 124.071 174.126 123.408 174.126C122.727 174.126 122.106 173.958 121.546 173.622C120.995 173.286 120.561 172.815 120.244 172.208C119.927 171.601 119.768 170.911 119.768 170.136ZM126.264 170.15C126.264 169.571 126.147 169.067 125.914 168.638C125.681 168.209 125.363 167.882 124.962 167.658C124.57 167.425 124.136 167.308 123.66 167.308C123.184 167.308 122.75 167.42 122.358 167.644C121.966 167.868 121.653 168.195 121.42 168.624C121.187 169.053 121.07 169.557 121.07 170.136C121.07 170.724 121.187 171.237 121.42 171.676C121.653 172.105 121.966 172.437 122.358 172.67C122.75 172.894 123.184 173.006 123.66 173.006C124.136 173.006 124.57 172.894 124.962 172.67C125.363 172.437 125.681 172.105 125.914 171.676C126.147 171.237 126.264 170.729 126.264 170.15ZM130.363 165.082C130.12 165.082 129.915 164.998 129.747 164.83C129.579 164.662 129.495 164.457 129.495 164.214C129.495 163.971 129.579 163.766 129.747 163.598C129.915 163.43 130.12 163.346 130.363 163.346C130.596 163.346 130.792 163.43 130.951 163.598C131.119 163.766 131.203 163.971 131.203 164.214C131.203 164.457 131.119 164.662 130.951 164.83C130.792 164.998 130.596 165.082 130.363 165.082ZM130.979 166.328V174H129.705V166.328H130.979ZM134.424 167.742C134.676 167.303 135.05 166.939 135.544 166.65C136.048 166.351 136.632 166.202 137.294 166.202C137.976 166.202 138.592 166.365 139.142 166.692C139.702 167.019 140.141 167.481 140.458 168.078C140.776 168.666 140.934 169.352 140.934 170.136C140.934 170.911 140.776 171.601 140.458 172.208C140.141 172.815 139.702 173.286 139.142 173.622C138.592 173.958 137.976 174.126 137.294 174.126C136.641 174.126 136.062 173.981 135.558 173.692C135.064 173.393 134.686 173.025 134.424 172.586V177.64H133.15V166.328H134.424V167.742ZM139.632 170.136C139.632 169.557 139.516 169.053 139.282 168.624C139.049 168.195 138.732 167.868 138.33 167.644C137.938 167.42 137.504 167.308 137.028 167.308C136.562 167.308 136.128 167.425 135.726 167.658C135.334 167.882 135.017 168.213 134.774 168.652C134.541 169.081 134.424 169.581 134.424 170.15C134.424 170.729 134.541 171.237 134.774 171.676C135.017 172.105 135.334 172.437 135.726 172.67C136.128 172.894 136.562 173.006 137.028 173.006C137.504 173.006 137.938 172.894 138.33 172.67C138.732 172.437 139.049 172.105 139.282 171.676C139.516 171.237 139.632 170.724 139.632 170.136ZM143.269 165.082C143.027 165.082 142.821 164.998 142.653 164.83C142.485 164.662 142.401 164.457 142.401 164.214C142.401 163.971 142.485 163.766 142.653 163.598C142.821 163.43 143.027 163.346 143.269 163.346C143.503 163.346 143.699 163.43 143.857 163.598C144.025 163.766 144.109 163.971 144.109 164.214C144.109 164.457 144.025 164.662 143.857 164.83C143.699 164.998 143.503 165.082 143.269 165.082ZM143.885 166.328V174H142.611V166.328H143.885ZM148.773 174.126C148.185 174.126 147.657 174.028 147.191 173.832C146.724 173.627 146.355 173.347 146.085 172.992C145.814 172.628 145.665 172.213 145.637 171.746H146.953C146.99 172.129 147.167 172.441 147.485 172.684C147.811 172.927 148.236 173.048 148.759 173.048C149.244 173.048 149.627 172.941 149.907 172.726C150.187 172.511 150.327 172.241 150.327 171.914C150.327 171.578 150.177 171.331 149.879 171.172C149.58 171.004 149.118 170.841 148.493 170.682C147.923 170.533 147.457 170.383 147.093 170.234C146.738 170.075 146.43 169.847 146.169 169.548C145.917 169.24 145.791 168.839 145.791 168.344C145.791 167.952 145.907 167.593 146.141 167.266C146.374 166.939 146.705 166.683 147.135 166.496C147.564 166.3 148.054 166.202 148.605 166.202C149.454 166.202 150.14 166.417 150.663 166.846C151.185 167.275 151.465 167.863 151.503 168.61H150.229C150.201 168.209 150.037 167.887 149.739 167.644C149.449 167.401 149.057 167.28 148.563 167.28C148.105 167.28 147.741 167.378 147.471 167.574C147.2 167.77 147.065 168.027 147.065 168.344C147.065 168.596 147.144 168.806 147.303 168.974C147.471 169.133 147.676 169.263 147.919 169.366C148.171 169.459 148.516 169.567 148.955 169.688C149.505 169.837 149.953 169.987 150.299 170.136C150.644 170.276 150.938 170.491 151.181 170.78C151.433 171.069 151.563 171.447 151.573 171.914C151.573 172.334 151.456 172.712 151.223 173.048C150.989 173.384 150.658 173.65 150.229 173.846C149.809 174.033 149.323 174.126 148.773 174.126ZM152.895 170.15C152.895 169.357 153.054 168.666 153.371 168.078C153.688 167.481 154.127 167.019 154.687 166.692C155.256 166.365 155.905 166.202 156.633 166.202C157.576 166.202 158.35 166.431 158.957 166.888C159.573 167.345 159.979 167.98 160.175 168.792H158.803C158.672 168.325 158.416 167.957 158.033 167.686C157.66 167.415 157.193 167.28 156.633 167.28C155.905 167.28 155.317 167.532 154.869 168.036C154.421 168.531 154.197 169.235 154.197 170.15C154.197 171.074 154.421 171.788 154.869 172.292C155.317 172.796 155.905 173.048 156.633 173.048C157.193 173.048 157.66 172.917 158.033 172.656C158.406 172.395 158.663 172.021 158.803 171.536H160.175C159.97 172.32 159.559 172.95 158.943 173.426C158.327 173.893 157.557 174.126 156.633 174.126C155.905 174.126 155.256 173.963 154.687 173.636C154.127 173.309 153.688 172.847 153.371 172.25C153.054 171.653 152.895 170.953 152.895 170.15ZM162.533 165.082C162.29 165.082 162.085 164.998 161.917 164.83C161.749 164.662 161.665 164.457 161.665 164.214C161.665 163.971 161.749 163.766 161.917 163.598C162.085 163.43 162.29 163.346 162.533 163.346C162.766 163.346 162.962 163.43 163.121 163.598C163.289 163.766 163.373 163.971 163.373 164.214C163.373 164.457 163.289 164.662 163.121 164.83C162.962 164.998 162.766 165.082 162.533 165.082ZM163.149 166.328V174H161.875V166.328H163.149ZM169.058 166.188C169.992 166.188 170.748 166.473 171.326 167.042C171.905 167.602 172.194 168.414 172.194 169.478V174H170.934V169.66C170.934 168.895 170.743 168.311 170.36 167.91C169.978 167.499 169.455 167.294 168.792 167.294C168.12 167.294 167.584 167.504 167.182 167.924C166.79 168.344 166.594 168.955 166.594 169.758V174H165.32V166.328H166.594V167.42C166.846 167.028 167.187 166.725 167.616 166.51C168.055 166.295 168.536 166.188 169.058 166.188ZM177.439 166.202C178.102 166.202 178.681 166.347 179.175 166.636C179.679 166.925 180.053 167.289 180.295 167.728V166.328H181.583V174.168C181.583 174.868 181.434 175.489 181.135 176.03C180.837 176.581 180.407 177.01 179.847 177.318C179.297 177.626 178.653 177.78 177.915 177.78C176.907 177.78 176.067 177.542 175.395 177.066C174.723 176.59 174.327 175.941 174.205 175.12H175.465C175.605 175.587 175.895 175.96 176.333 176.24C176.772 176.529 177.299 176.674 177.915 176.674C178.615 176.674 179.185 176.455 179.623 176.016C180.071 175.577 180.295 174.961 180.295 174.168V172.558C180.043 173.006 179.67 173.379 179.175 173.678C178.681 173.977 178.102 174.126 177.439 174.126C176.758 174.126 176.137 173.958 175.577 173.622C175.027 173.286 174.593 172.815 174.275 172.208C173.958 171.601 173.799 170.911 173.799 170.136C173.799 169.352 173.958 168.666 174.275 168.078C174.593 167.481 175.027 167.019 175.577 166.692C176.137 166.365 176.758 166.202 177.439 166.202ZM180.295 170.15C180.295 169.571 180.179 169.067 179.945 168.638C179.712 168.209 179.395 167.882 178.993 167.658C178.601 167.425 178.167 167.308 177.691 167.308C177.215 167.308 176.781 167.42 176.389 167.644C175.997 167.868 175.685 168.195 175.451 168.624C175.218 169.053 175.101 169.557 175.101 170.136C175.101 170.724 175.218 171.237 175.451 171.676C175.685 172.105 175.997 172.437 176.389 172.67C176.781 172.894 177.215 173.006 177.691 173.006C178.167 173.006 178.601 172.894 178.993 172.67C179.395 172.437 179.712 172.105 179.945 171.676C180.179 171.237 180.295 170.729 180.295 170.15ZM194.469 169.87C194.469 170.113 194.455 170.369 194.427 170.64H188.295C188.341 171.396 188.598 171.989 189.065 172.418C189.541 172.838 190.115 173.048 190.787 173.048C191.337 173.048 191.795 172.922 192.159 172.67C192.532 172.409 192.793 172.063 192.943 171.634H194.315C194.109 172.371 193.699 172.973 193.083 173.44C192.467 173.897 191.701 174.126 190.787 174.126C190.059 174.126 189.405 173.963 188.827 173.636C188.257 173.309 187.809 172.847 187.483 172.25C187.156 171.643 186.993 170.943 186.993 170.15C186.993 169.357 187.151 168.661 187.469 168.064C187.786 167.467 188.229 167.009 188.799 166.692C189.377 166.365 190.04 166.202 190.787 166.202C191.515 166.202 192.159 166.361 192.719 166.678C193.279 166.995 193.708 167.434 194.007 167.994C194.315 168.545 194.469 169.17 194.469 169.87ZM193.153 169.604C193.153 169.119 193.045 168.703 192.831 168.358C192.616 168.003 192.322 167.737 191.949 167.56C191.585 167.373 191.179 167.28 190.731 167.28C190.087 167.28 189.536 167.485 189.079 167.896C188.631 168.307 188.374 168.876 188.309 169.604H193.153ZM197.424 163.64V174H196.15V163.64H197.424ZM200.254 165.082C200.011 165.082 199.806 164.998 199.638 164.83C199.47 164.662 199.386 164.457 199.386 164.214C199.386 163.971 199.47 163.766 199.638 163.598C199.806 163.43 200.011 163.346 200.254 163.346C200.487 163.346 200.683 163.43 200.842 163.598C201.01 163.766 201.094 163.971 201.094 164.214C201.094 164.457 201.01 164.662 200.842 164.83C200.683 164.998 200.487 165.082 200.254 165.082ZM200.87 166.328V174H199.596V166.328H200.87ZM204.595 167.378V171.9C204.595 172.273 204.674 172.539 204.833 172.698C204.992 172.847 205.267 172.922 205.659 172.922H206.597V174H205.449C204.74 174 204.208 173.837 203.853 173.51C203.498 173.183 203.321 172.647 203.321 171.9V167.378H202.327V166.328H203.321V164.396H204.595V166.328H206.597V167.378H204.595ZM208.547 174.084C208.304 174.084 208.099 174 207.931 173.832C207.763 173.664 207.679 173.459 207.679 173.216C207.679 172.973 207.763 172.768 207.931 172.6C208.099 172.432 208.304 172.348 208.547 172.348C208.78 172.348 208.976 172.432 209.135 172.6C209.303 172.768 209.387 172.973 209.387 173.216C209.387 173.459 209.303 173.664 209.135 173.832C208.976 174 208.78 174.084 208.547 174.084Z" fill="white" fill-opacity="0.55"/>
<path d="M129.464 42.288C129.464 43.136 129.264 43.936 128.864 44.688C128.464 45.44 127.824 46.056 126.944 46.536C126.064 47 124.936 47.232 123.56 47.232H120.536V54H117.8V37.32H123.56C124.84 37.32 125.92 37.544 126.8 37.992C127.696 38.424 128.36 39.016 128.792 39.768C129.24 40.52 129.464 41.36 129.464 42.288ZM123.56 45C124.6 45 125.376 44.768 125.888 44.304C126.4 43.824 126.656 43.152 126.656 42.288C126.656 40.464 125.624 39.552 123.56 39.552H120.536V45H123.56ZM134.809 42.696C135.209 42.024 135.737 41.504 136.393 41.136C137.065 40.752 137.857 40.56 138.769 40.56V43.392H138.073C137.001 43.392 136.185 43.664 135.625 44.208C135.081 44.752 134.809 45.696 134.809 47.04V54H132.073V40.776H134.809V42.696ZM147.02 54.216C145.772 54.216 144.644 53.936 143.636 53.376C142.628 52.8 141.836 52 141.26 50.976C140.684 49.936 140.396 48.736 140.396 47.376C140.396 46.032 140.692 44.84 141.284 43.8C141.876 42.76 142.684 41.96 143.708 41.4C144.732 40.84 145.876 40.56 147.14 40.56C148.404 40.56 149.548 40.84 150.572 41.4C151.596 41.96 152.404 42.76 152.996 43.8C153.588 44.84 153.884 46.032 153.884 47.376C153.884 48.72 153.58 49.912 152.972 50.952C152.364 51.992 151.532 52.8 150.476 53.376C149.436 53.936 148.284 54.216 147.02 54.216ZM147.02 51.84C147.724 51.84 148.38 51.672 148.988 51.336C149.612 51 150.116 50.496 150.5 49.824C150.884 49.152 151.076 48.336 151.076 47.376C151.076 46.416 150.892 45.608 150.524 44.952C150.156 44.28 149.668 43.776 149.06 43.44C148.452 43.104 147.796 42.936 147.092 42.936C146.388 42.936 145.732 43.104 145.124 43.44C144.532 43.776 144.06 44.28 143.708 44.952C143.356 45.608 143.18 46.416 143.18 47.376C143.18 48.8 143.54 49.904 144.26 50.688C144.996 51.456 145.916 51.84 147.02 51.84ZM155.677 47.376C155.677 46.016 155.949 44.824 156.493 43.8C157.053 42.76 157.821 41.96 158.797 41.4C159.773 40.84 160.893 40.56 162.157 40.56C163.757 40.56 165.077 40.944 166.117 41.712C167.173 42.464 167.885 43.544 168.253 44.952H165.301C165.061 44.296 164.677 43.784 164.149 43.416C163.621 43.048 162.957 42.864 162.157 42.864C161.037 42.864 160.141 43.264 159.469 44.064C158.813 44.848 158.485 45.952 158.485 47.376C158.485 48.8 158.813 49.912 159.469 50.712C160.141 51.512 161.037 51.912 162.157 51.912C163.741 51.912 164.789 51.216 165.301 49.824H168.253C167.869 51.168 167.149 52.24 166.093 53.04C165.037 53.824 163.725 54.216 162.157 54.216C160.893 54.216 159.773 53.936 158.797 53.376C157.821 52.8 157.053 52 156.493 50.976C155.949 49.936 155.677 48.736 155.677 47.376ZM173.716 42.696C174.116 42.024 174.644 41.504 175.3 41.136C175.972 40.752 176.764 40.56 177.676 40.56V43.392H176.98C175.908 43.392 175.092 43.664 174.532 44.208C173.988 44.752 173.716 45.696 173.716 47.04V54H170.98V40.776H173.716V42.696ZM192.311 47.064C192.311 47.56 192.279 48.008 192.215 48.408H182.111C182.191 49.464 182.583 50.312 183.287 50.952C183.991 51.592 184.855 51.912 185.879 51.912C187.351 51.912 188.391 51.296 188.999 50.064H191.951C191.551 51.28 190.823 52.28 189.767 53.064C188.727 53.832 187.431 54.216 185.879 54.216C184.615 54.216 183.479 53.936 182.471 53.376C181.479 52.8 180.695 52 180.119 50.976C179.559 49.936 179.279 48.736 179.279 47.376C179.279 46.016 179.551 44.824 180.095 43.8C180.655 42.76 181.431 41.96 182.423 41.4C183.431 40.84 184.583 40.56 185.879 40.56C187.127 40.56 188.239 40.832 189.215 41.376C190.191 41.92 190.951 42.688 191.495 43.68C192.039 44.656 192.311 45.784 192.311 47.064ZM189.455 46.2C189.439 45.192 189.079 44.384 188.375 43.776C187.671 43.168 186.799 42.864 185.759 42.864C184.815 42.864 184.007 43.168 183.335 43.776C182.663 44.368 182.263 45.176 182.135 46.2H189.455ZM194.091 47.328C194.091 46 194.363 44.824 194.907 43.8C195.467 42.776 196.219 41.984 197.163 41.424C198.123 40.848 199.179 40.56 200.331 40.56C201.371 40.56 202.275 40.768 203.043 41.184C203.827 41.584 204.451 42.088 204.915 42.696V40.776H207.675V54H204.915V52.032C204.451 52.656 203.819 53.176 203.019 53.592C202.219 54.008 201.307 54.216 200.283 54.216C199.147 54.216 198.107 53.928 197.163 53.352C196.219 52.76 195.467 51.944 194.907 50.904C194.363 49.848 194.091 48.656 194.091 47.328ZM204.915 47.376C204.915 46.464 204.723 45.672 204.339 45C203.971 44.328 203.483 43.816 202.875 43.464C202.267 43.112 201.611 42.936 200.907 42.936C200.203 42.936 199.547 43.112 198.939 43.464C198.331 43.8 197.835 44.304 197.451 44.976C197.083 45.632 196.899 46.416 196.899 47.328C196.899 48.24 197.083 49.04 197.451 49.728C197.835 50.416 198.331 50.944 198.939 51.312C199.563 51.664 200.219 51.84 200.907 51.84C201.611 51.84 202.267 51.664 202.875 51.312C203.483 50.96 203.971 50.448 204.339 49.776C204.723 49.088 204.915 48.288 204.915 47.376ZM214.461 43.008V50.328C214.461 50.824 214.573 51.184 214.797 51.408C215.037 51.616 215.437 51.72 215.997 51.72H217.677V54H215.517C214.285 54 213.341 53.712 212.685 53.136C212.029 52.56 211.701 51.624 211.701 50.328V43.008H210.141V40.776H211.701V37.488H214.461V40.776H217.677V43.008H214.461ZM232.318 47.064C232.318 47.56 232.286 48.008 232.222 48.408H222.118C222.198 49.464 222.59 50.312 223.294 50.952C223.998 51.592 224.862 51.912 225.886 51.912C227.358 51.912 228.398 51.296 229.006 50.064H231.958C231.558 51.28 230.83 52.28 229.774 53.064C228.734 53.832 227.438 54.216 225.886 54.216C224.622 54.216 223.486 53.936 222.478 53.376C221.486 52.8 220.702 52 220.126 50.976C219.566 49.936 219.286 48.736 219.286 47.376C219.286 46.016 219.558 44.824 220.102 43.8C220.662 42.76 221.438 41.96 222.43 41.4C223.438 40.84 224.59 40.56 225.886 40.56C227.134 40.56 228.246 40.832 229.222 41.376C230.198 41.92 230.958 42.688 231.502 43.68C232.046 44.656 232.318 45.784 232.318 47.064ZM229.462 46.2C229.446 45.192 229.086 44.384 228.382 43.776C227.678 43.168 226.806 42.864 225.766 42.864C224.822 42.864 224.014 43.168 223.342 43.776C222.67 44.368 222.27 45.176 222.142 46.2H229.462Z" fill="white" fill-opacity="0.78"/>
<path d="M125.774 78.126C125.774 79.17 125.414 80.04 124.694 80.736C123.986 81.42 122.9 81.762 121.436 81.762H119.024V87H117.386V74.454H121.436C122.852 74.454 123.926 74.796 124.658 75.48C125.402 76.164 125.774 77.046 125.774 78.126ZM121.436 80.412C122.348 80.412 123.02 80.214 123.452 79.818C123.884 79.422 124.1 78.858 124.1 78.126C124.1 76.578 123.212 75.804 121.436 75.804H119.024V80.412H121.436ZM127.198 82.032C127.198 81.024 127.402 80.142 127.81 79.386C128.218 78.618 128.776 78.024 129.484 77.604C130.204 77.184 131.002 76.974 131.878 76.974C132.742 76.974 133.492 77.16 134.128 77.532C134.764 77.904 135.238 78.372 135.55 78.936V77.136H137.206V87H135.55V85.164C135.226 85.74 134.74 86.22 134.092 86.604C133.456 86.976 132.712 87.162 131.86 87.162C130.984 87.162 130.192 86.946 129.484 86.514C128.776 86.082 128.218 85.476 127.81 84.696C127.402 83.916 127.198 83.028 127.198 82.032ZM135.55 82.05C135.55 81.306 135.4 80.658 135.1 80.106C134.8 79.554 134.392 79.134 133.876 78.846C133.372 78.546 132.814 78.396 132.202 78.396C131.59 78.396 131.032 78.54 130.528 78.828C130.024 79.116 129.622 79.536 129.322 80.088C129.022 80.64 128.872 81.288 128.872 82.032C128.872 82.788 129.022 83.448 129.322 84.012C129.622 84.564 130.024 84.99 130.528 85.29C131.032 85.578 131.59 85.722 132.202 85.722C132.814 85.722 133.372 85.578 133.876 85.29C134.392 84.99 134.8 84.564 135.1 84.012C135.4 83.448 135.55 82.794 135.55 82.05ZM140.82 75.534C140.508 75.534 140.244 75.426 140.028 75.21C139.812 74.994 139.704 74.73 139.704 74.418C139.704 74.106 139.812 73.842 140.028 73.626C140.244 73.41 140.508 73.302 140.82 73.302C141.12 73.302 141.372 73.41 141.576 73.626C141.792 73.842 141.9 74.106 141.9 74.418C141.9 74.73 141.792 74.994 141.576 75.21C141.372 75.426 141.12 75.534 140.82 75.534ZM141.612 77.136V87H139.974V77.136H141.612ZM143.792 82.032C143.792 81.024 143.996 80.142 144.404 79.386C144.812 78.618 145.37 78.024 146.078 77.604C146.798 77.184 147.602 76.974 148.49 76.974C149.258 76.974 149.972 77.154 150.632 77.514C151.292 77.862 151.796 78.324 152.144 78.9V73.68H153.8V87H152.144V85.146C151.82 85.734 151.34 86.22 150.704 86.604C150.068 86.976 149.324 87.162 148.472 87.162C147.596 87.162 146.798 86.946 146.078 86.514C145.37 86.082 144.812 85.476 144.404 84.696C143.996 83.916 143.792 83.028 143.792 82.032ZM152.144 82.05C152.144 81.306 151.994 80.658 151.694 80.106C151.394 79.554 150.986 79.134 150.47 78.846C149.966 78.546 149.408 78.396 148.796 78.396C148.184 78.396 147.626 78.54 147.122 78.828C146.618 79.116 146.216 79.536 145.916 80.088C145.616 80.64 145.466 81.288 145.466 82.032C145.466 82.788 145.616 83.448 145.916 84.012C146.216 84.564 146.618 84.99 147.122 85.29C147.626 85.578 148.184 85.722 148.796 85.722C149.408 85.722 149.966 85.578 150.47 85.29C150.986 84.99 151.394 84.564 151.694 84.012C151.994 83.448 152.144 82.794 152.144 82.05Z" fill="#FFA537" fill-opacity="0.55"/>
<g opacity="0.78">
<path d="M26 53.2667C26 46.1727 26 42.6257 27.3806 39.9161C28.595 37.5327 30.5327 35.595 32.9161 34.3806C35.6257 33 39.1727 33 46.2667 33H61.7333C68.8273 33 72.3743 33 75.0839 34.3806C77.4673 35.595 79.405 37.5327 80.6194 39.9161C82 42.6257 82 46.1727 82 53.2667V68.7333C82 75.8273 82 79.3743 80.6194 82.0839C79.405 84.4673 77.4673 86.405 75.0839 87.6194C72.3743 89 68.8273 89 61.7333 89H46.2667C39.1727 89 35.6257 89 32.9161 87.6194C30.5327 86.405 28.595 84.4673 27.3806 82.0839C26 79.3743 26 75.8273 26 68.7333V53.2667Z" fill="#1E252B"/>
<path d="M41.7334 61.8C33.9334 67.5408 32.4 75.9334 32.4 82.9334C32.7556 80.8445 34.3867 75.9467 38.0667 73.0667C43.5334 68.7884 53.5333 70.1978 64.4667 62.9334C75.4001 55.6689 76.4667 46.2 75.0667 38.9333C74.094 45.9451 70.7744 49.001 66.2 51.7334C56.2668 57.6667 50.0668 55.6667 41.7334 61.8Z" fill="url(#paint0_linear_50_145)"/>
<path d="M41.7334 61.8C33.9334 67.5408 32.4 75.9334 32.4 82.9334C32.7556 80.8445 34.3867 75.9467 38.0667 73.0667C43.5334 68.7884 53.5333 70.1978 64.4667 62.9334C75.4001 55.6689 76.4667 46.2 75.0667 38.9333C74.094 45.9451 70.7744 49.001 66.2 51.7334C56.2668 57.6667 50.0668 55.6667 41.7334 61.8Z" fill="url(#paint1_linear_50_145)"/>
<path d="M32.4933 80.0639C32.9213 73.739 34.975 66.774 41.7333 61.8C46.0777 58.6025 49.8422 57.6155 53.8582 56.5626C56.2018 55.9482 58.6311 55.3113 61.3112 54.1995C60.3334 55.1333 55.6871 57.3133 52.1825 58.7699C48.6871 60.2227 45.0018 61.7543 41.9334 63.8C35.777 67.9042 33.2737 75.045 32.4933 80.0639Z" fill="url(#paint2_linear_50_145)"/>
<path d="M32.4933 80.0639C32.9213 73.739 34.975 66.774 41.7333 61.8C46.0777 58.6025 49.8422 57.6155 53.8582 56.5626C56.2018 55.9482 58.6311 55.3113 61.3112 54.1995C60.3334 55.1333 55.6871 57.3133 52.1825 58.7699C48.6871 60.2227 45.0018 61.7543 41.9334 63.8C35.777 67.9042 33.2737 75.045 32.4933 80.0639Z" fill="url(#paint3_linear_50_145)"/>
<path d="M70.4355 57.7418C69.6689 58.4927 68.8141 59.1649 67.8668 59.7333C63.6001 62.2934 59.065 63.1189 54.6522 63.9223C51.1357 64.5624 47.6969 65.1884 44.5334 66.6667C37.4006 69.9998 33.0007 76.9324 32.4002 82.9322C32.4002 82.9324 32.4001 82.9327 32.4001 82.9329C32.4001 82.9318 32.4 82.9308 32.4 82.9297C32.4001 82.4717 32.4067 82.0078 32.4212 81.539C32.4575 80.7953 32.5344 79.9713 32.6616 79.0926C33.6033 74.1584 36.1644 67.646 41.9334 63.8C44.3756 62.1719 47.2084 60.8693 50.0254 59.673C52.5027 58.8597 54.7354 58.3535 56.8626 57.8712C60.2111 57.1121 63.2983 56.4122 66.6668 54.6667C73.7349 51.0041 75.5868 43.4776 75.089 39.0503C76.1458 44.6601 75.7186 51.5598 70.4355 57.7418Z" fill="url(#paint4_linear_50_145)"/>
<path d="M70.4353 57.7419C69.6687 58.4928 68.814 59.165 67.8667 59.7334C63.6 62.2934 59.0649 63.119 54.6521 63.9223C51.1357 64.5624 47.6968 65.1884 44.5334 66.6667C40.4313 68.5836 37.2331 71.691 35.1416 75.1268C36.987 72.5337 39.7983 69.637 43.2667 68.5334C46.6512 67.4565 49.8795 67.3452 53.2333 67.2296C54.1946 67.1965 55.1662 67.163 56.1547 67.1063C58.8189 66.1365 61.6109 64.8308 64.4666 62.9334C66.9281 61.2979 68.8895 59.5506 70.4353 57.7419Z" fill="url(#paint5_linear_50_145)"/>
<path d="M70.4353 57.7419C69.6687 58.4928 68.814 59.165 67.8667 59.7334C63.6 62.2934 59.0649 63.119 54.6521 63.9223C51.1357 64.5624 47.6968 65.1884 44.5334 66.6667C40.4313 68.5836 37.2331 71.691 35.1416 75.1268C36.987 72.5337 39.7983 69.637 43.2667 68.5334C46.6512 67.4565 49.8795 67.3452 53.2333 67.2296C54.1946 67.1965 55.1662 67.163 56.1547 67.1063C58.8189 66.1365 61.6109 64.8308 64.4666 62.9334C66.9281 61.2979 68.8895 59.5506 70.4353 57.7419Z" fill="url(#paint6_linear_50_145)"/>
<path d="M75.0889 39.0503C75.0816 39.0112 75.0741 38.9723 75.0666 38.9333C74.0939 45.9451 70.7744 49.001 66.2 51.7334C64.4671 52.7684 62.8479 53.5621 61.3111 54.1996C60.3331 55.1335 55.687 57.3134 52.1825 58.7699L52.1819 58.7701C51.4687 59.0666 50.7476 59.3663 50.0254 59.673C52.5027 58.8597 54.7353 58.3535 56.8625 57.8712C60.2111 57.1121 63.2982 56.4122 66.6667 54.6667C73.7349 51.0041 75.5867 43.4776 75.0889 39.0503Z" fill="url(#paint7_linear_50_145)"/>
<path d="M75.0889 39.0503C75.0816 39.0112 75.0741 38.9723 75.0666 38.9333C74.0939 45.9451 70.7744 49.001 66.2 51.7334C64.4671 52.7684 62.8479 53.5621 61.3111 54.1996C60.3331 55.1335 55.687 57.3134 52.1825 58.7699L52.1819 58.7701C51.4687 59.0666 50.7476 59.3663 50.0254 59.673C52.5027 58.8597 54.7353 58.3535 56.8625 57.8712C60.2111 57.1121 63.2982 56.4122 66.6667 54.6667C73.7349 51.0041 75.5867 43.4776 75.0889 39.0503Z" fill="url(#paint8_linear_50_145)"/>
</g>
<rect x="161" y="214" width="106" height="42" rx="8" fill="#1E252B"/>
<path d="M207.136 229.832L203.04 241H200.32L196.224 229.832H198.624L201.696 238.712L204.752 229.832H207.136ZM209.615 231.08C209.22 231.08 208.89 230.957 208.623 230.712C208.367 230.456 208.239 230.141 208.239 229.768C208.239 229.395 208.367 229.085 208.623 228.84C208.89 228.584 209.22 228.456 209.615 228.456C210.01 228.456 210.335 228.584 210.591 228.84C210.858 229.085 210.991 229.395 210.991 229.768C210.991 230.141 210.858 230.456 210.591 230.712C210.335 230.957 210.01 231.08 209.615 231.08ZM210.719 232.136V241H208.479V232.136H210.719ZM216.324 241.144C215.599 241.144 214.948 241.016 214.372 240.76C213.796 240.493 213.337 240.136 212.996 239.688C212.665 239.24 212.484 238.744 212.452 238.2H214.708C214.751 238.541 214.916 238.824 215.204 239.048C215.503 239.272 215.871 239.384 216.308 239.384C216.735 239.384 217.065 239.299 217.3 239.128C217.545 238.957 217.668 238.739 217.668 238.472C217.668 238.184 217.519 237.971 217.22 237.832C216.932 237.683 216.468 237.523 215.828 237.352C215.167 237.192 214.623 237.027 214.196 236.856C213.78 236.685 213.417 236.424 213.108 236.072C212.809 235.72 212.66 235.245 212.66 234.648C212.66 234.157 212.799 233.709 213.076 233.304C213.364 232.899 213.769 232.579 214.292 232.344C214.825 232.109 215.449 231.992 216.164 231.992C217.22 231.992 218.063 232.259 218.692 232.792C219.321 233.315 219.668 234.024 219.732 234.92H217.588C217.556 234.568 217.407 234.291 217.14 234.088C216.884 233.875 216.537 233.768 216.1 233.768C215.695 233.768 215.38 233.843 215.156 233.992C214.943 234.141 214.836 234.349 214.836 234.616C214.836 234.915 214.985 235.144 215.284 235.304C215.583 235.453 216.047 235.608 216.676 235.768C217.316 235.928 217.844 236.093 218.26 236.264C218.676 236.435 219.033 236.701 219.332 237.064C219.641 237.416 219.801 237.885 219.812 238.472C219.812 238.984 219.668 239.443 219.38 239.848C219.103 240.253 218.697 240.573 218.164 240.808C217.641 241.032 217.028 241.144 216.324 241.144ZM222.787 231.08C222.392 231.08 222.062 230.957 221.795 230.712C221.539 230.456 221.411 230.141 221.411 229.768C221.411 229.395 221.539 229.085 221.795 228.84C222.062 228.584 222.392 228.456 222.787 228.456C223.182 228.456 223.507 228.584 223.763 228.84C224.03 229.085 224.163 229.395 224.163 229.768C224.163 230.141 224.03 230.456 223.763 230.712C223.507 230.957 223.182 231.08 222.787 231.08ZM223.891 232.136V241H221.651V232.136H223.891ZM228.712 233.976V238.264C228.712 238.563 228.781 238.781 228.92 238.92C229.069 239.048 229.315 239.112 229.656 239.112H230.696V241H229.288C227.4 241 226.456 240.083 226.456 238.248V233.976H225.4V232.136H226.456V229.944H228.712V232.136H230.696V233.976H228.712Z" fill="white" fill-opacity="0.55"/>
<rect x="22" y="214" width="42" height="42" rx="8" fill="#1E252B"/>
<path d="M48.8334 226.25C46.3834 226.25 44.225 227.475 43 229.4C41.775 227.475 39.6167 226.25 37.1667 226.25C33.3167 226.25 30.1667 229.4 30.1667 233.25C30.1667 240.192 43 247.25 43 247.25C43 247.25 55.8334 240.25 55.8334 233.25C55.8334 229.4 52.6834 226.25 48.8334 226.25Z" fill="white" fill-opacity="0.38"/>
<rect x="76" y="214" width="42" height="42" rx="8" fill="#1E252B"/>
<path d="M99.5 237.25H98.25V236C98.25 235.668 98.1183 235.351 97.8839 235.116C97.6495 234.882 97.3315 234.75 97 234.75C96.6685 234.75 96.3505 234.882 96.1161 235.116C95.8817 235.351 95.75 235.668 95.75 236V237.25H94.5C94.1685 237.25 93.8505 237.382 93.6161 237.616C93.3817 237.851 93.25 238.168 93.25 238.5C93.25 238.832 93.3817 239.149 93.6161 239.384C93.8505 239.618 94.1685 239.75 94.5 239.75H95.75V241C95.75 241.332 95.8817 241.649 96.1161 241.884C96.3505 242.118 96.6685 242.25 97 242.25C97.3315 242.25 97.6495 242.118 97.8839 241.884C98.1183 241.649 98.25 241.332 98.25 241V239.75H99.5C99.8315 239.75 100.149 239.618 100.384 239.384C100.618 239.149 100.75 238.832 100.75 238.5C100.75 238.168 100.618 237.851 100.384 237.616C100.149 237.382 99.8315 237.25 99.5 237.25Z" fill="white" fill-opacity="0.38"/>
<path d="M106.375 229.812H97.625L94.3375 225.837C94.2212 225.694 94.0745 225.578 93.9081 225.498C93.7417 225.418 93.5596 225.376 93.375 225.375H87.625C86.8083 225.365 86.0208 225.679 85.4351 226.248C84.8494 226.818 84.5132 227.596 84.5 228.412V243.587C84.5132 244.404 84.8494 245.182 85.4351 245.752C86.0208 246.321 86.8083 246.635 87.625 246.625H106.375C107.192 246.635 107.979 246.321 108.565 245.752C109.151 245.182 109.487 244.404 109.5 243.587V232.85C109.487 232.033 109.151 231.255 108.565 230.686C107.979 230.116 107.192 229.802 106.375 229.812ZM107 243.562C106.995 243.639 106.975 243.714 106.941 243.783C106.907 243.852 106.859 243.913 106.801 243.963C106.743 244.013 106.675 244.051 106.602 244.075C106.529 244.098 106.452 244.107 106.375 244.1H87.625C87.5485 244.107 87.4713 244.098 87.3982 244.075C87.325 244.051 87.2573 244.013 87.199 243.963C87.1407 243.913 87.0931 243.852 87.0589 243.783C87.0247 243.714 87.0047 243.639 87 243.562V228.412C87.0047 228.336 87.0247 228.261 87.0589 228.192C87.0931 228.123 87.1407 228.062 87.199 228.012C87.2573 227.962 87.325 227.924 87.3982 227.9C87.4713 227.877 87.5485 227.868 87.625 227.875H92.7875L96.0375 231.85C96.1538 231.993 96.3005 232.109 96.4669 232.189C96.6333 232.269 96.8154 232.311 97 232.312H106.375C106.452 232.306 106.529 232.314 106.602 232.338C106.675 232.361 106.743 232.399 106.801 232.449C106.859 232.499 106.907 232.561 106.941 232.629C106.975 232.698 106.995 232.773 107 232.85V243.562Z" fill="white" fill-opacity="0.38"/>
<defs>
<linearGradient id="paint0_linear_50_145" x1="56.8" y1="65.4" x2="33.7334" y2="81.9333" gradientUnits="userSpaceOnUse">
<stop stop-color="#FE5004"/>
<stop offset="0.602538" stop-color="#FFB915"/>
<stop offset="1" stop-color="#FFFC41"/>
</linearGradient>
<linearGradient id="paint1_linear_50_145" x1="47.6667" y1="66.8" x2="47.8" y2="69.2" gradientUnits="userSpaceOnUse">
<stop stop-color="#FD3E00"/>
<stop offset="1" stop-color="#FD4400" stop-opacity="0"/>
</linearGradient>
<linearGradient id="paint2_linear_50_145" x1="61.3333" y1="53" x2="28.8" y2="81.9333" gradientUnits="userSpaceOnUse">
<stop stop-color="#005FC6"/>
<stop offset="0.279756" stop-color="#23A4DF"/>
<stop offset="0.465158" stop-color="#3AC2B7"/>
<stop offset="0.640642" stop-color="#60EC7A"/>
<stop offset="0.818668" stop-color="#CFFDBD"/>
<stop offset="1" stop-color="#D0FCB6"/>
</linearGradient>
<linearGradient id="paint3_linear_50_145" x1="54.7333" y1="58.5333" x2="51.9333" y2="56" gradientUnits="userSpaceOnUse">
<stop stop-color="#0061CB"/>
<stop offset="1" stop-color="#067EEA" stop-opacity="0"/>
</linearGradient>
<linearGradient id="paint4_linear_50_145" x1="75.2" y1="39" x2="32.4" y2="82.8667" gradientUnits="userSpaceOnUse">
<stop stop-color="#8E55F1"/>
<stop offset="0.140795" stop-color="#8B48DF"/>
<stop offset="0.274905" stop-color="#E04DD9"/>
<stop offset="0.492309" stop-color="#F496C8"/>
<stop offset="0.633104" stop-color="#FAD2BA"/>
<stop offset="0.856964" stop-color="#FEF7E5"/>
<stop offset="1" stop-color="#FFF5BF"/>
</linearGradient>
<linearGradient id="paint5_linear_50_145" x1="70.9999" y1="57.3334" x2="36.0666" y2="73.1334" gradientUnits="userSpaceOnUse">
<stop stop-color="#F41A73"/>
<stop offset="0.399909" stop-color="#FC50A3"/>
<stop offset="0.584511" stop-color="#FE9485"/>
<stop offset="0.703104" stop-color="#FFAF88"/>
<stop offset="1" stop-color="#FFC385"/>
</linearGradient>
<linearGradient id="paint6_linear_50_145" x1="58.3999" y1="62.2" x2="58.4666" y2="65.4" gradientUnits="userSpaceOnUse">
<stop stop-color="#9B0008"/>
<stop offset="1" stop-color="#EA115A" stop-opacity="0"/>
</linearGradient>
<linearGradient id="paint7_linear_50_145" x1="75.2" y1="42.6" x2="43.6666" y2="63.2" gradientUnits="userSpaceOnUse">
<stop stop-color="#231283"/>
<stop offset="0.362865" stop-color="#7053C6"/>
<stop offset="0.466353" stop-color="#7272DB"/>
<stop offset="0.634311" stop-color="#399EE9"/>
<stop offset="1" stop-color="#00CFFF"/>
</linearGradient>
<linearGradient id="paint8_linear_50_145" x1="67.3333" y1="53" x2="68.7333" y2="54.8" gradientUnits="userSpaceOnUse">
<stop stop-color="#3F259D" stop-opacity="0"/>
<stop offset="1" stop-color="#412DAA"/>
</linearGradient>
</defs>
</svg>
