<svg width="396" height="298" viewBox="0 0 396 298" fill="none" xmlns="http://www.w3.org/2000/svg">
<g filter="url(#filter0_b_38_36)">
<rect x="2" y="2" width="392" height="294" rx="15" fill="#283036" fill-opacity="0.6"/>
<rect x="1" y="1" width="394" height="296" rx="16" stroke="url(#paint0_linear_38_36)" stroke-opacity="0.1" stroke-width="2"/>
</g>
<path d="M37.688 150.816H41.592V152H36.232V140.848H37.688V150.816ZM46.9623 152.144C46.1409 152.144 45.3943 151.957 44.7223 151.584C44.0609 151.211 43.5383 150.683 43.1543 150C42.7809 149.307 42.5943 148.507 42.5943 147.6C42.5943 146.704 42.7863 145.915 43.1703 145.232C43.5649 144.539 44.0983 144.011 44.7703 143.648C45.4423 143.275 46.1943 143.088 47.0263 143.088C47.8583 143.088 48.6103 143.275 49.2823 143.648C49.9543 144.011 50.4823 144.533 50.8663 145.216C51.2609 145.899 51.4583 146.693 51.4583 147.6C51.4583 148.507 51.2556 149.307 50.8503 150C50.4556 150.683 49.9169 151.211 49.2343 151.584C48.5516 151.957 47.7943 152.144 46.9623 152.144ZM46.9623 150.864C47.4849 150.864 47.9756 150.741 48.4343 150.496C48.8929 150.251 49.2609 149.883 49.5383 149.392C49.8263 148.901 49.9703 148.304 49.9703 147.6C49.9703 146.896 49.8316 146.299 49.5543 145.808C49.2769 145.317 48.9143 144.955 48.4663 144.72C48.0183 144.475 47.5329 144.352 47.0103 144.352C46.4769 144.352 45.9863 144.475 45.5383 144.72C45.1009 144.955 44.7489 145.317 44.4823 145.808C44.2156 146.299 44.0823 146.896 44.0823 147.6C44.0823 148.315 44.2103 148.917 44.4663 149.408C44.7329 149.899 45.0849 150.267 45.5223 150.512C45.9596 150.747 46.4396 150.864 46.9623 150.864ZM54.8286 144.656C55.0846 144.155 55.4473 143.765 55.9166 143.488C56.3966 143.211 56.978 143.072 57.6606 143.072V144.576H57.2766C55.6446 144.576 54.8286 145.461 54.8286 147.232V152H53.3726V143.232H54.8286V144.656ZM67.3414 147.28C67.3414 147.557 67.3254 147.851 67.2934 148.16H60.2854C60.3387 149.024 60.632 149.701 61.1654 150.192C61.7094 150.672 62.3654 150.912 63.1334 150.912C63.7627 150.912 64.2854 150.768 64.7014 150.48C65.128 150.181 65.4267 149.787 65.5974 149.296H67.1654C66.9307 150.139 66.4614 150.827 65.7574 151.36C65.0534 151.883 64.1787 152.144 63.1334 152.144C62.3014 152.144 61.5547 151.957 60.8934 151.584C60.2427 151.211 59.7307 150.683 59.3574 150C58.984 149.307 58.7974 148.507 58.7974 147.6C58.7974 146.693 58.9787 145.899 59.3414 145.216C59.704 144.533 60.2107 144.011 60.8614 143.648C61.5227 143.275 62.28 143.088 63.1334 143.088C63.9654 143.088 64.7014 143.269 65.3414 143.632C65.9814 143.995 66.472 144.496 66.8134 145.136C67.1654 145.765 67.3414 146.48 67.3414 147.28ZM65.8374 146.976C65.8374 146.421 65.7147 145.947 65.4694 145.552C65.224 145.147 64.888 144.843 64.4614 144.64C64.0454 144.427 63.5814 144.32 63.0694 144.32C62.3334 144.32 61.704 144.555 61.1814 145.024C60.6694 145.493 60.376 146.144 60.3014 146.976H65.8374ZM79.8073 143.072C80.4899 143.072 81.0979 143.216 81.6313 143.504C82.1646 143.781 82.5859 144.203 82.8953 144.768C83.2046 145.333 83.3593 146.021 83.3593 146.832V152H81.9193V147.04C81.9193 146.165 81.7006 145.499 81.2633 145.04C80.8366 144.571 80.2553 144.336 79.5193 144.336C78.7619 144.336 78.1593 144.581 77.7113 145.072C77.2633 145.552 77.0393 146.251 77.0393 147.168V152H75.5993V147.04C75.5993 146.165 75.3806 145.499 74.9433 145.04C74.5166 144.571 73.9353 144.336 73.1993 144.336C72.4419 144.336 71.8393 144.581 71.3913 145.072C70.9433 145.552 70.7193 146.251 70.7193 147.168V152H69.2633V143.232H70.7193V144.496C71.0073 144.037 71.3913 143.685 71.8713 143.44C72.3619 143.195 72.9006 143.072 73.4873 143.072C74.2233 143.072 74.8739 143.237 75.4393 143.568C76.0046 143.899 76.4259 144.384 76.7033 145.024C76.9486 144.405 77.3539 143.925 77.9193 143.584C78.4846 143.243 79.1139 143.072 79.8073 143.072ZM90.7653 141.808C90.4879 141.808 90.2533 141.712 90.0613 141.52C89.8693 141.328 89.7733 141.093 89.7733 140.816C89.7733 140.539 89.8693 140.304 90.0613 140.112C90.2533 139.92 90.4879 139.824 90.7653 139.824C91.0319 139.824 91.2559 139.92 91.4373 140.112C91.6293 140.304 91.7253 140.539 91.7253 140.816C91.7253 141.093 91.6293 141.328 91.4373 141.52C91.2559 141.712 91.0319 141.808 90.7653 141.808ZM91.4693 143.232V152H90.0133V143.232H91.4693ZM95.4068 144.848C95.6948 144.347 96.1214 143.931 96.6868 143.6C97.2628 143.259 97.9294 143.088 98.6868 143.088C99.4654 143.088 100.169 143.275 100.799 143.648C101.439 144.021 101.94 144.549 102.303 145.232C102.665 145.904 102.847 146.688 102.847 147.584C102.847 148.469 102.665 149.259 102.303 149.952C101.94 150.645 101.439 151.184 100.799 151.568C100.169 151.952 99.4654 152.144 98.6868 152.144C97.9401 152.144 97.2788 151.979 96.7028 151.648C96.1374 151.307 95.7054 150.885 95.4068 150.384V156.16H93.9508V143.232H95.4068V144.848ZM101.359 147.584C101.359 146.923 101.225 146.347 100.959 145.856C100.692 145.365 100.329 144.992 99.8708 144.736C99.4228 144.48 98.9268 144.352 98.3828 144.352C97.8494 144.352 97.3534 144.485 96.8948 144.752C96.4468 145.008 96.0841 145.387 95.8068 145.888C95.5401 146.379 95.4068 146.949 95.4068 147.6C95.4068 148.261 95.5401 148.843 95.8068 149.344C96.0841 149.835 96.4468 150.213 96.8948 150.48C97.3534 150.736 97.8494 150.864 98.3828 150.864C98.9268 150.864 99.4228 150.736 99.8708 150.48C100.329 150.213 100.692 149.835 100.959 149.344C101.225 148.843 101.359 148.256 101.359 147.584ZM107.867 152.144C107.195 152.144 106.593 152.032 106.059 151.808C105.526 151.573 105.105 151.253 104.795 150.848C104.486 150.432 104.315 149.957 104.283 149.424H105.787C105.83 149.861 106.033 150.219 106.395 150.496C106.769 150.773 107.254 150.912 107.851 150.912C108.406 150.912 108.843 150.789 109.163 150.544C109.483 150.299 109.643 149.989 109.643 149.616C109.643 149.232 109.473 148.949 109.131 148.768C108.79 148.576 108.262 148.389 107.547 148.208C106.897 148.037 106.363 147.867 105.947 147.696C105.542 147.515 105.19 147.253 104.891 146.912C104.603 146.56 104.459 146.101 104.459 145.536C104.459 145.088 104.593 144.677 104.859 144.304C105.126 143.931 105.505 143.637 105.995 143.424C106.486 143.2 107.046 143.088 107.675 143.088C108.646 143.088 109.43 143.333 110.027 143.824C110.625 144.315 110.945 144.987 110.987 145.84H109.531C109.499 145.381 109.313 145.013 108.971 144.736C108.641 144.459 108.193 144.32 107.627 144.32C107.105 144.32 106.689 144.432 106.379 144.656C106.07 144.88 105.915 145.173 105.915 145.536C105.915 145.824 106.006 146.064 106.187 146.256C106.379 146.437 106.614 146.587 106.891 146.704C107.179 146.811 107.574 146.933 108.075 147.072C108.705 147.243 109.217 147.413 109.611 147.584C110.006 147.744 110.342 147.989 110.619 148.32C110.907 148.651 111.057 149.083 111.067 149.616C111.067 150.096 110.934 150.528 110.667 150.912C110.401 151.296 110.022 151.6 109.531 151.824C109.051 152.037 108.497 152.144 107.867 152.144ZM120.899 143.232V152H119.443V150.704C119.165 151.152 118.776 151.504 118.275 151.76C117.784 152.005 117.24 152.128 116.643 152.128C115.96 152.128 115.347 151.989 114.803 151.712C114.259 151.424 113.827 150.997 113.507 150.432C113.197 149.867 113.043 149.179 113.043 148.368V143.232H114.483V148.176C114.483 149.04 114.701 149.707 115.139 150.176C115.576 150.635 116.173 150.864 116.931 150.864C117.709 150.864 118.323 150.624 118.771 150.144C119.219 149.664 119.443 148.965 119.443 148.048V143.232H120.899ZM133.901 143.072C134.584 143.072 135.192 143.216 135.725 143.504C136.258 143.781 136.68 144.203 136.989 144.768C137.298 145.333 137.453 146.021 137.453 146.832V152H136.013V147.04C136.013 146.165 135.794 145.499 135.357 145.04C134.93 144.571 134.349 144.336 133.613 144.336C132.856 144.336 132.253 144.581 131.805 145.072C131.357 145.552 131.133 146.251 131.133 147.168V152H129.693V147.04C129.693 146.165 129.474 145.499 129.037 145.04C128.61 144.571 128.029 144.336 127.293 144.336C126.536 144.336 125.933 144.581 125.485 145.072C125.037 145.552 124.813 146.251 124.813 147.168V152H123.357V143.232H124.813V144.496C125.101 144.037 125.485 143.685 125.965 143.44C126.456 143.195 126.994 143.072 127.581 143.072C128.317 143.072 128.968 143.237 129.533 143.568C130.098 143.899 130.52 144.384 130.797 145.024C131.042 144.405 131.448 143.925 132.013 143.584C132.578 143.243 133.208 143.072 133.901 143.072ZM143.563 147.584C143.563 146.688 143.744 145.904 144.107 145.232C144.47 144.549 144.966 144.021 145.595 143.648C146.235 143.275 146.95 143.088 147.739 143.088C148.422 143.088 149.056 143.248 149.643 143.568C150.23 143.877 150.678 144.288 150.987 144.8V140.16H152.459V152H150.987V150.352C150.699 150.875 150.272 151.307 149.707 151.648C149.142 151.979 148.48 152.144 147.723 152.144C146.944 152.144 146.235 151.952 145.595 151.568C144.966 151.184 144.47 150.645 144.107 149.952C143.744 149.259 143.563 148.469 143.563 147.584ZM150.987 147.6C150.987 146.939 150.854 146.363 150.587 145.872C150.32 145.381 149.958 145.008 149.499 144.752C149.051 144.485 148.555 144.352 148.011 144.352C147.467 144.352 146.971 144.48 146.523 144.736C146.075 144.992 145.718 145.365 145.451 145.856C145.184 146.347 145.051 146.923 145.051 147.584C145.051 148.256 145.184 148.843 145.451 149.344C145.718 149.835 146.075 150.213 146.523 150.48C146.971 150.736 147.467 150.864 148.011 150.864C148.555 150.864 149.051 150.736 149.499 150.48C149.958 150.213 150.32 149.835 150.587 149.344C150.854 148.843 150.987 148.261 150.987 147.6ZM158.744 152.144C157.922 152.144 157.176 151.957 156.504 151.584C155.842 151.211 155.32 150.683 154.936 150C154.562 149.307 154.376 148.507 154.376 147.6C154.376 146.704 154.568 145.915 154.952 145.232C155.346 144.539 155.88 144.011 156.552 143.648C157.224 143.275 157.976 143.088 158.808 143.088C159.64 143.088 160.392 143.275 161.064 143.648C161.736 144.011 162.264 144.533 162.648 145.216C163.042 145.899 163.24 146.693 163.24 147.6C163.24 148.507 163.037 149.307 162.632 150C162.237 150.683 161.698 151.211 161.016 151.584C160.333 151.957 159.576 152.144 158.744 152.144ZM158.744 150.864C159.266 150.864 159.757 150.741 160.216 150.496C160.674 150.251 161.042 149.883 161.32 149.392C161.608 148.901 161.752 148.304 161.752 147.6C161.752 146.896 161.613 146.299 161.336 145.808C161.058 145.317 160.696 144.955 160.248 144.72C159.8 144.475 159.314 144.352 158.792 144.352C158.258 144.352 157.768 144.475 157.32 144.72C156.882 144.955 156.53 145.317 156.264 145.808C155.997 146.299 155.864 146.896 155.864 147.6C155.864 148.315 155.992 148.917 156.248 149.408C156.514 149.899 156.866 150.267 157.304 150.512C157.741 150.747 158.221 150.864 158.744 150.864ZM166.61 140.16V152H165.154V140.16H166.61ZM172.915 152.144C172.094 152.144 171.347 151.957 170.675 151.584C170.014 151.211 169.491 150.683 169.107 150C168.734 149.307 168.547 148.507 168.547 147.6C168.547 146.704 168.739 145.915 169.123 145.232C169.518 144.539 170.051 144.011 170.723 143.648C171.395 143.275 172.147 143.088 172.979 143.088C173.811 143.088 174.563 143.275 175.235 143.648C175.907 144.011 176.435 144.533 176.819 145.216C177.214 145.899 177.411 146.693 177.411 147.6C177.411 148.507 177.209 149.307 176.803 150C176.409 150.683 175.87 151.211 175.187 151.584C174.505 151.957 173.747 152.144 172.915 152.144ZM172.915 150.864C173.438 150.864 173.929 150.741 174.387 150.496C174.846 150.251 175.214 149.883 175.491 149.392C175.779 148.901 175.923 148.304 175.923 147.6C175.923 146.896 175.785 146.299 175.507 145.808C175.23 145.317 174.867 144.955 174.419 144.72C173.971 144.475 173.486 144.352 172.963 144.352C172.43 144.352 171.939 144.475 171.491 144.72C171.054 144.955 170.702 145.317 170.435 145.808C170.169 146.299 170.035 146.896 170.035 147.6C170.035 148.315 170.163 148.917 170.419 149.408C170.686 149.899 171.038 150.267 171.475 150.512C171.913 150.747 172.393 150.864 172.915 150.864ZM180.782 144.656C181.038 144.155 181.4 143.765 181.87 143.488C182.35 143.211 182.931 143.072 183.614 143.072V144.576H183.23C181.598 144.576 180.782 145.461 180.782 147.232V152H179.326V143.232H180.782V144.656ZM192.664 152.144C191.992 152.144 191.389 152.032 190.856 151.808C190.323 151.573 189.901 151.253 189.592 150.848C189.283 150.432 189.112 149.957 189.08 149.424H190.584C190.627 149.861 190.829 150.219 191.192 150.496C191.565 150.773 192.051 150.912 192.648 150.912C193.203 150.912 193.64 150.789 193.96 150.544C194.28 150.299 194.44 149.989 194.44 149.616C194.44 149.232 194.269 148.949 193.928 148.768C193.587 148.576 193.059 148.389 192.344 148.208C191.693 148.037 191.16 147.867 190.744 147.696C190.339 147.515 189.987 147.253 189.688 146.912C189.4 146.56 189.256 146.101 189.256 145.536C189.256 145.088 189.389 144.677 189.656 144.304C189.923 143.931 190.301 143.637 190.792 143.424C191.283 143.2 191.843 143.088 192.472 143.088C193.443 143.088 194.227 143.333 194.824 143.824C195.421 144.315 195.741 144.987 195.784 145.84H194.328C194.296 145.381 194.109 145.013 193.768 144.736C193.437 144.459 192.989 144.32 192.424 144.32C191.901 144.32 191.485 144.432 191.176 144.656C190.867 144.88 190.712 145.173 190.712 145.536C190.712 145.824 190.803 146.064 190.984 146.256C191.176 146.437 191.411 146.587 191.688 146.704C191.976 146.811 192.371 146.933 192.872 147.072C193.501 147.243 194.013 147.413 194.408 147.584C194.803 147.744 195.139 147.989 195.416 148.32C195.704 148.651 195.853 149.083 195.864 149.616C195.864 150.096 195.731 150.528 195.464 150.912C195.197 151.296 194.819 151.6 194.328 151.824C193.848 152.037 193.293 152.144 192.664 152.144ZM198.672 141.808C198.394 141.808 198.16 141.712 197.968 141.52C197.776 141.328 197.68 141.093 197.68 140.816C197.68 140.539 197.776 140.304 197.968 140.112C198.16 139.92 198.394 139.824 198.672 139.824C198.938 139.824 199.162 139.92 199.344 140.112C199.536 140.304 199.632 140.539 199.632 140.816C199.632 141.093 199.536 141.328 199.344 141.52C199.162 141.712 198.938 141.808 198.672 141.808ZM199.376 143.232V152H197.92V143.232H199.376ZM203.633 144.432V149.6C203.633 150.027 203.724 150.331 203.905 150.512C204.086 150.683 204.401 150.768 204.849 150.768H205.921V152H204.609C203.798 152 203.19 151.813 202.785 151.44C202.38 151.067 202.177 150.453 202.177 149.6V144.432H201.041V143.232H202.177V141.024H203.633V143.232H205.921V144.432H203.633ZM211.407 147.584C211.407 146.688 211.588 145.904 211.951 145.232C212.313 144.549 212.809 144.021 213.439 143.648C214.079 143.275 214.788 143.088 215.567 143.088C216.335 143.088 217.001 143.253 217.567 143.584C218.132 143.915 218.553 144.331 218.831 144.832V143.232H220.303V152H218.831V150.368C218.543 150.88 218.111 151.307 217.535 151.648C216.969 151.979 216.308 152.144 215.551 152.144C214.772 152.144 214.068 151.952 213.439 151.568C212.809 151.184 212.313 150.645 211.951 149.952C211.588 149.259 211.407 148.469 211.407 147.584ZM218.831 147.6C218.831 146.939 218.697 146.363 218.431 145.872C218.164 145.381 217.801 145.008 217.343 144.752C216.895 144.485 216.399 144.352 215.855 144.352C215.311 144.352 214.815 144.48 214.367 144.736C213.919 144.992 213.561 145.365 213.295 145.856C213.028 146.347 212.895 146.923 212.895 147.584C212.895 148.256 213.028 148.843 213.295 149.344C213.561 149.835 213.919 150.213 214.367 150.48C214.815 150.736 215.311 150.864 215.855 150.864C216.399 150.864 216.895 150.736 217.343 150.48C217.801 150.213 218.164 149.835 218.431 149.344C218.697 148.843 218.831 148.261 218.831 147.6ZM233.307 143.072C233.99 143.072 234.598 143.216 235.131 143.504C235.665 143.781 236.086 144.203 236.395 144.768C236.705 145.333 236.859 146.021 236.859 146.832V152H235.419V147.04C235.419 146.165 235.201 145.499 234.763 145.04C234.337 144.571 233.755 144.336 233.019 144.336C232.262 144.336 231.659 144.581 231.211 145.072C230.763 145.552 230.539 146.251 230.539 147.168V152H229.099V147.04C229.099 146.165 228.881 145.499 228.443 145.04C228.017 144.571 227.435 144.336 226.699 144.336C225.942 144.336 225.339 144.581 224.891 145.072C224.443 145.552 224.219 146.251 224.219 147.168V152H222.763V143.232H224.219V144.496C224.507 144.037 224.891 143.685 225.371 143.44C225.862 143.195 226.401 143.072 226.987 143.072C227.723 143.072 228.374 143.237 228.939 143.568C229.505 143.899 229.926 144.384 230.203 145.024C230.449 144.405 230.854 143.925 231.419 143.584C231.985 143.243 232.614 143.072 233.307 143.072ZM247.248 147.28C247.248 147.557 247.232 147.851 247.2 148.16H240.192C240.245 149.024 240.538 149.701 241.072 150.192C241.616 150.672 242.272 150.912 243.04 150.912C243.669 150.912 244.192 150.768 244.608 150.48C245.034 150.181 245.333 149.787 245.504 149.296H247.072C246.837 150.139 246.368 150.827 245.664 151.36C244.96 151.883 244.085 152.144 243.04 152.144C242.208 152.144 241.461 151.957 240.8 151.584C240.149 151.211 239.637 150.683 239.264 150C238.89 149.307 238.704 148.507 238.704 147.6C238.704 146.693 238.885 145.899 239.248 145.216C239.61 144.533 240.117 144.011 240.768 143.648C241.429 143.275 242.186 143.088 243.04 143.088C243.872 143.088 244.608 143.269 245.248 143.632C245.888 143.995 246.378 144.496 246.72 145.136C247.072 145.765 247.248 146.48 247.248 147.28ZM245.744 146.976C245.744 146.421 245.621 145.947 245.376 145.552C245.13 145.147 244.794 144.843 244.368 144.64C243.952 144.427 243.488 144.32 242.976 144.32C242.24 144.32 241.61 144.555 241.088 145.024C240.576 145.493 240.282 146.144 240.208 146.976H245.744ZM250.946 144.432V149.6C250.946 150.027 251.036 150.331 251.218 150.512C251.399 150.683 251.714 150.768 252.161 150.768H253.234V152H251.922C251.111 152 250.503 151.813 250.098 151.44C249.692 151.067 249.49 150.453 249.49 149.6V144.432H248.354V143.232H249.49V141.024H250.946V143.232H253.234V144.432H250.946ZM256.502 149.984L254.71 154.288H253.734L254.902 149.984H256.502ZM261.891 147.6C261.891 146.693 262.072 145.904 262.435 145.232C262.798 144.549 263.299 144.021 263.939 143.648C264.59 143.275 265.331 143.088 266.163 143.088C267.24 143.088 268.126 143.349 268.819 143.872C269.523 144.395 269.987 145.12 270.211 146.048H268.643C268.494 145.515 268.2 145.093 267.763 144.784C267.336 144.475 266.803 144.32 266.163 144.32C265.331 144.32 264.659 144.608 264.147 145.184C263.635 145.749 263.379 146.555 263.379 147.6C263.379 148.656 263.635 149.472 264.147 150.048C264.659 150.624 265.331 150.912 266.163 150.912C266.803 150.912 267.336 150.763 267.763 150.464C268.19 150.165 268.483 149.739 268.643 149.184H270.211C269.976 150.08 269.507 150.8 268.803 151.344C268.099 151.877 267.219 152.144 266.163 152.144C265.331 152.144 264.59 151.957 263.939 151.584C263.299 151.211 262.798 150.683 262.435 150C262.072 149.317 261.891 148.517 261.891 147.6ZM275.978 152.144C275.157 152.144 274.41 151.957 273.738 151.584C273.077 151.211 272.554 150.683 272.17 150C271.797 149.307 271.61 148.507 271.61 147.6C271.61 146.704 271.802 145.915 272.186 145.232C272.581 144.539 273.114 144.011 273.786 143.648C274.458 143.275 275.21 143.088 276.042 143.088C276.874 143.088 277.626 143.275 278.298 143.648C278.97 144.011 279.498 144.533 279.882 145.216C280.277 145.899 280.474 146.693 280.474 147.6C280.474 148.507 280.271 149.307 279.866 150C279.471 150.683 278.933 151.211 278.25 151.584C277.567 151.957 276.81 152.144 275.978 152.144ZM275.978 150.864C276.501 150.864 276.991 150.741 277.45 150.496C277.909 150.251 278.277 149.883 278.554 149.392C278.842 148.901 278.986 148.304 278.986 147.6C278.986 146.896 278.847 146.299 278.57 145.808C278.293 145.317 277.93 144.955 277.482 144.72C277.034 144.475 276.549 144.352 276.026 144.352C275.493 144.352 275.002 144.475 274.554 144.72C274.117 144.955 273.765 145.317 273.498 145.808C273.231 146.299 273.098 146.896 273.098 147.6C273.098 148.315 273.226 148.917 273.482 149.408C273.749 149.899 274.101 150.267 274.538 150.512C274.975 150.747 275.455 150.864 275.978 150.864ZM286.66 143.072C287.727 143.072 288.591 143.397 289.252 144.048C289.914 144.688 290.244 145.616 290.244 146.832V152H288.804V147.04C288.804 146.165 288.586 145.499 288.148 145.04C287.711 144.571 287.114 144.336 286.356 144.336C285.588 144.336 284.975 144.576 284.516 145.056C284.068 145.536 283.844 146.235 283.844 147.152V152H282.388V143.232H283.844V144.48C284.132 144.032 284.522 143.685 285.012 143.44C285.514 143.195 286.063 143.072 286.66 143.072ZM295.727 152.144C295.055 152.144 294.452 152.032 293.919 151.808C293.385 151.573 292.964 151.253 292.655 150.848C292.345 150.432 292.175 149.957 292.143 149.424H293.647C293.689 149.861 293.892 150.219 294.255 150.496C294.628 150.773 295.113 150.912 295.711 150.912C296.265 150.912 296.703 150.789 297.023 150.544C297.343 150.299 297.503 149.989 297.503 149.616C297.503 149.232 297.332 148.949 296.991 148.768C296.649 148.576 296.121 148.389 295.407 148.208C294.756 148.037 294.223 147.867 293.807 147.696C293.401 147.515 293.049 147.253 292.751 146.912C292.463 146.56 292.319 146.101 292.319 145.536C292.319 145.088 292.452 144.677 292.719 144.304C292.985 143.931 293.364 143.637 293.855 143.424C294.345 143.2 294.905 143.088 295.535 143.088C296.505 143.088 297.289 143.333 297.887 143.824C298.484 144.315 298.804 144.987 298.847 145.84H297.391C297.359 145.381 297.172 145.013 296.831 144.736C296.5 144.459 296.052 144.32 295.487 144.32C294.964 144.32 294.548 144.432 294.239 144.656C293.929 144.88 293.775 145.173 293.775 145.536C293.775 145.824 293.865 146.064 294.047 146.256C294.239 146.437 294.473 146.587 294.751 146.704C295.039 146.811 295.433 146.933 295.935 147.072C296.564 147.243 297.076 147.413 297.471 147.584C297.865 147.744 298.201 147.989 298.479 148.32C298.767 148.651 298.916 149.083 298.927 149.616C298.927 150.096 298.793 150.528 298.527 150.912C298.26 151.296 297.881 151.6 297.391 151.824C296.911 152.037 296.356 152.144 295.727 152.144ZM308.982 147.28C308.982 147.557 308.966 147.851 308.934 148.16H301.926C301.979 149.024 302.273 149.701 302.806 150.192C303.35 150.672 304.006 150.912 304.774 150.912C305.403 150.912 305.926 150.768 306.342 150.48C306.769 150.181 307.067 149.787 307.238 149.296H308.806C308.571 150.139 308.102 150.827 307.398 151.36C306.694 151.883 305.819 152.144 304.774 152.144C303.942 152.144 303.195 151.957 302.534 151.584C301.883 151.211 301.371 150.683 300.998 150C300.625 149.307 300.438 148.507 300.438 147.6C300.438 146.693 300.619 145.899 300.982 145.216C301.345 144.533 301.851 144.011 302.502 143.648C303.163 143.275 303.921 143.088 304.774 143.088C305.606 143.088 306.342 143.269 306.982 143.632C307.622 143.995 308.113 144.496 308.454 145.136C308.806 145.765 308.982 146.48 308.982 147.28ZM307.478 146.976C307.478 146.421 307.355 145.947 307.11 145.552C306.865 145.147 306.529 144.843 306.102 144.64C305.686 144.427 305.222 144.32 304.71 144.32C303.974 144.32 303.345 144.555 302.822 145.024C302.31 145.493 302.017 146.144 301.942 146.976H307.478ZM310.36 147.6C310.36 146.693 310.541 145.904 310.904 145.232C311.267 144.549 311.768 144.021 312.408 143.648C313.059 143.275 313.8 143.088 314.632 143.088C315.709 143.088 316.595 143.349 317.288 143.872C317.992 144.395 318.456 145.12 318.68 146.048H317.112C316.963 145.515 316.669 145.093 316.232 144.784C315.805 144.475 315.272 144.32 314.632 144.32C313.8 144.32 313.128 144.608 312.616 145.184C312.104 145.749 311.848 146.555 311.848 147.6C311.848 148.656 312.104 149.472 312.616 150.048C313.128 150.624 313.8 150.912 314.632 150.912C315.272 150.912 315.805 150.763 316.232 150.464C316.659 150.165 316.952 149.739 317.112 149.184H318.68C318.445 150.08 317.976 150.8 317.272 151.344C316.568 151.877 315.688 152.144 314.632 152.144C313.8 152.144 313.059 151.957 312.408 151.584C311.768 151.211 311.267 150.683 310.904 150C310.541 149.317 310.36 148.517 310.36 147.6ZM322.399 144.432V149.6C322.399 150.027 322.489 150.331 322.671 150.512C322.852 150.683 323.167 150.768 323.615 150.768H324.687V152H323.375C322.564 152 321.956 151.813 321.551 151.44C321.145 151.067 320.943 150.453 320.943 149.6V144.432H319.807V143.232H320.943V141.024H322.399V143.232H324.687V144.432H322.399ZM334.451 147.28C334.451 147.557 334.435 147.851 334.403 148.16H327.395C327.448 149.024 327.741 149.701 328.275 150.192C328.819 150.672 329.475 150.912 330.243 150.912C330.872 150.912 331.395 150.768 331.811 150.48C332.237 150.181 332.536 149.787 332.707 149.296H334.275C334.04 150.139 333.571 150.827 332.867 151.36C332.163 151.883 331.288 152.144 330.243 152.144C329.411 152.144 328.664 151.957 328.003 151.584C327.352 151.211 326.84 150.683 326.467 150C326.093 149.307 325.907 148.507 325.907 147.6C325.907 146.693 326.088 145.899 326.451 145.216C326.813 144.533 327.32 144.011 327.971 143.648C328.632 143.275 329.389 143.088 330.243 143.088C331.075 143.088 331.811 143.269 332.451 143.632C333.091 143.995 333.581 144.496 333.923 145.136C334.275 145.765 334.451 146.48 334.451 147.28ZM332.947 146.976C332.947 146.421 332.824 145.947 332.579 145.552C332.333 145.147 331.997 144.843 331.571 144.64C331.155 144.427 330.691 144.32 330.179 144.32C329.443 144.32 328.813 144.555 328.291 145.024C327.779 145.493 327.485 146.144 327.411 146.976H332.947ZM338.149 144.432V149.6C338.149 150.027 338.239 150.331 338.421 150.512C338.602 150.683 338.917 150.768 339.365 150.768H340.437V152H339.125C338.314 152 337.706 151.813 337.301 151.44C336.895 151.067 336.693 150.453 336.693 149.6V144.432H335.557V143.232H336.693V141.024H338.149V143.232H340.437V144.432H338.149ZM349.977 143.232V152H348.521V150.704C348.243 151.152 347.854 151.504 347.353 151.76C346.862 152.005 346.318 152.128 345.721 152.128C345.038 152.128 344.425 151.989 343.881 151.712C343.337 151.424 342.905 150.997 342.585 150.432C342.275 149.867 342.121 149.179 342.121 148.368V143.232H343.561V148.176C343.561 149.04 343.779 149.707 344.217 150.176C344.654 150.635 345.251 150.864 346.009 150.864C346.787 150.864 347.401 150.624 347.849 150.144C348.297 149.664 348.521 148.965 348.521 148.048V143.232H349.977ZM353.891 144.656C354.147 144.155 354.51 143.765 354.979 143.488C355.459 143.211 356.04 143.072 356.723 143.072V144.576H356.339C354.707 144.576 353.891 145.461 353.891 147.232V152H352.435V143.232H353.891V144.656ZM35.688 177.584C35.688 176.688 35.8693 175.904 36.232 175.232C36.5947 174.549 37.0907 174.021 37.72 173.648C38.36 173.275 39.0693 173.088 39.848 173.088C40.616 173.088 41.2827 173.253 41.848 173.584C42.4133 173.915 42.8347 174.331 43.112 174.832V173.232H44.584V182H43.112V180.368C42.824 180.88 42.392 181.307 41.816 181.648C41.2507 181.979 40.5893 182.144 39.832 182.144C39.0533 182.144 38.3493 181.952 37.72 181.568C37.0907 181.184 36.5947 180.645 36.232 179.952C35.8693 179.259 35.688 178.469 35.688 177.584ZM43.112 177.6C43.112 176.939 42.9787 176.363 42.712 175.872C42.4453 175.381 42.0827 175.008 41.624 174.752C41.176 174.485 40.68 174.352 40.136 174.352C39.592 174.352 39.096 174.48 38.648 174.736C38.2 174.992 37.8427 175.365 37.576 175.856C37.3093 176.347 37.176 176.923 37.176 177.584C37.176 178.256 37.3093 178.843 37.576 179.344C37.8427 179.835 38.2 180.213 38.648 180.48C39.096 180.736 39.592 180.864 40.136 180.864C40.68 180.864 41.176 180.736 41.624 180.48C42.0827 180.213 42.4453 179.835 42.712 179.344C42.9787 178.843 43.112 178.261 43.112 177.6ZM46.5005 177.584C46.5005 176.688 46.6818 175.904 47.0445 175.232C47.4072 174.549 47.9032 174.021 48.5325 173.648C49.1725 173.275 49.8872 173.088 50.6765 173.088C51.3592 173.088 51.9938 173.248 52.5805 173.568C53.1672 173.877 53.6152 174.288 53.9245 174.8V170.16H55.3965V182H53.9245V180.352C53.6365 180.875 53.2098 181.307 52.6445 181.648C52.0792 181.979 51.4178 182.144 50.6605 182.144C49.8818 182.144 49.1725 181.952 48.5325 181.568C47.9032 181.184 47.4072 180.645 47.0445 179.952C46.6818 179.259 46.5005 178.469 46.5005 177.584ZM53.9245 177.6C53.9245 176.939 53.7912 176.363 53.5245 175.872C53.2578 175.381 52.8952 175.008 52.4365 174.752C51.9885 174.485 51.4925 174.352 50.9485 174.352C50.4045 174.352 49.9085 174.48 49.4605 174.736C49.0125 174.992 48.6552 175.365 48.3885 175.856C48.1218 176.347 47.9885 176.923 47.9885 177.584C47.9885 178.256 48.1218 178.843 48.3885 179.344C48.6552 179.835 49.0125 180.213 49.4605 180.48C49.9085 180.736 50.4045 180.864 50.9485 180.864C51.4925 180.864 51.9885 180.736 52.4365 180.48C52.8952 180.213 53.2578 179.835 53.5245 179.344C53.7912 178.843 53.9245 178.261 53.9245 177.6ZM58.609 171.808C58.3317 171.808 58.097 171.712 57.905 171.52C57.713 171.328 57.617 171.093 57.617 170.816C57.617 170.539 57.713 170.304 57.905 170.112C58.097 169.92 58.3317 169.824 58.609 169.824C58.8757 169.824 59.0997 169.92 59.281 170.112C59.473 170.304 59.569 170.539 59.569 170.816C59.569 171.093 59.473 171.328 59.281 171.52C59.0997 171.712 58.8757 171.808 58.609 171.808ZM59.313 173.232V182H57.857V173.232H59.313ZM63.2505 174.848C63.5385 174.347 63.9652 173.931 64.5305 173.6C65.1065 173.259 65.7732 173.088 66.5305 173.088C67.3092 173.088 68.0132 173.275 68.6425 173.648C69.2825 174.021 69.7838 174.549 70.1465 175.232C70.5092 175.904 70.6905 176.688 70.6905 177.584C70.6905 178.469 70.5092 179.259 70.1465 179.952C69.7838 180.645 69.2825 181.184 68.6425 181.568C68.0132 181.952 67.3092 182.144 66.5305 182.144C65.7838 182.144 65.1225 181.979 64.5465 181.648C63.9812 181.307 63.5492 180.885 63.2505 180.384V186.16H61.7945V173.232H63.2505V174.848ZM69.2025 177.584C69.2025 176.923 69.0692 176.347 68.8025 175.856C68.5358 175.365 68.1732 174.992 67.7145 174.736C67.2665 174.48 66.7705 174.352 66.2265 174.352C65.6932 174.352 65.1972 174.485 64.7385 174.752C64.2905 175.008 63.9278 175.387 63.6505 175.888C63.3838 176.379 63.2505 176.949 63.2505 177.6C63.2505 178.261 63.3838 178.843 63.6505 179.344C63.9278 179.835 64.2905 180.213 64.7385 180.48C65.1972 180.736 65.6932 180.864 66.2265 180.864C66.7705 180.864 67.2665 180.736 67.7145 180.48C68.1732 180.213 68.5358 179.835 68.8025 179.344C69.0692 178.843 69.2025 178.256 69.2025 177.584ZM73.359 171.808C73.0817 171.808 72.847 171.712 72.655 171.52C72.463 171.328 72.367 171.093 72.367 170.816C72.367 170.539 72.463 170.304 72.655 170.112C72.847 169.92 73.0817 169.824 73.359 169.824C73.6257 169.824 73.8497 169.92 74.031 170.112C74.223 170.304 74.319 170.539 74.319 170.816C74.319 171.093 74.223 171.328 74.031 171.52C73.8497 171.712 73.6257 171.808 73.359 171.808ZM74.063 173.232V182H72.607V173.232H74.063ZM79.6485 182.144C78.9765 182.144 78.3738 182.032 77.8405 181.808C77.3072 181.573 76.8858 181.253 76.5765 180.848C76.2672 180.432 76.0965 179.957 76.0645 179.424H77.5685C77.6112 179.861 77.8138 180.219 78.1765 180.496C78.5498 180.773 79.0352 180.912 79.6325 180.912C80.1872 180.912 80.6245 180.789 80.9445 180.544C81.2645 180.299 81.4245 179.989 81.4245 179.616C81.4245 179.232 81.2538 178.949 80.9125 178.768C80.5712 178.576 80.0432 178.389 79.3285 178.208C78.6778 178.037 78.1445 177.867 77.7285 177.696C77.3232 177.515 76.9712 177.253 76.6725 176.912C76.3845 176.56 76.2405 176.101 76.2405 175.536C76.2405 175.088 76.3738 174.677 76.6405 174.304C76.9072 173.931 77.2858 173.637 77.7765 173.424C78.2672 173.2 78.8272 173.088 79.4565 173.088C80.4272 173.088 81.2112 173.333 81.8085 173.824C82.4058 174.315 82.7258 174.987 82.7685 175.84H81.3125C81.2805 175.381 81.0938 175.013 80.7525 174.736C80.4218 174.459 79.9738 174.32 79.4085 174.32C78.8858 174.32 78.4698 174.432 78.1605 174.656C77.8512 174.88 77.6965 175.173 77.6965 175.536C77.6965 175.824 77.7872 176.064 77.9685 176.256C78.1605 176.437 78.3952 176.587 78.6725 176.704C78.9605 176.811 79.3552 176.933 79.8565 177.072C80.4858 177.243 80.9978 177.413 81.3925 177.584C81.7872 177.744 82.1232 177.989 82.4005 178.32C82.6885 178.651 82.8378 179.083 82.8485 179.616C82.8485 180.096 82.7152 180.528 82.4485 180.912C82.1818 181.296 81.8032 181.6 81.3125 181.824C80.8325 182.037 80.2778 182.144 79.6485 182.144ZM84.3599 177.6C84.3599 176.693 84.5412 175.904 84.9039 175.232C85.2665 174.549 85.7679 174.021 86.4079 173.648C87.0585 173.275 87.7999 173.088 88.6319 173.088C89.7092 173.088 90.5945 173.349 91.2879 173.872C91.9919 174.395 92.4559 175.12 92.6799 176.048H91.1119C90.9625 175.515 90.6692 175.093 90.2319 174.784C89.8052 174.475 89.2719 174.32 88.6319 174.32C87.7999 174.32 87.1279 174.608 86.6159 175.184C86.1039 175.749 85.8479 176.555 85.8479 177.6C85.8479 178.656 86.1039 179.472 86.6159 180.048C87.1279 180.624 87.7999 180.912 88.6319 180.912C89.2719 180.912 89.8052 180.763 90.2319 180.464C90.6585 180.165 90.9519 179.739 91.1119 179.184H92.6799C92.4452 180.08 91.9759 180.8 91.2719 181.344C90.5679 181.877 89.6879 182.144 88.6319 182.144C87.7999 182.144 87.0585 181.957 86.4079 181.584C85.7679 181.211 85.2665 180.683 84.9039 180C84.5412 179.317 84.3599 178.517 84.3599 177.6ZM95.3746 171.808C95.0973 171.808 94.8626 171.712 94.6706 171.52C94.4786 171.328 94.3826 171.093 94.3826 170.816C94.3826 170.539 94.4786 170.304 94.6706 170.112C94.8626 169.92 95.0973 169.824 95.3746 169.824C95.6413 169.824 95.8653 169.92 96.0466 170.112C96.2386 170.304 96.3346 170.539 96.3346 170.816C96.3346 171.093 96.2386 171.328 96.0466 171.52C95.8653 171.712 95.6413 171.808 95.3746 171.808ZM96.0786 173.232V182H94.6226V173.232H96.0786ZM102.832 173.072C103.899 173.072 104.763 173.397 105.424 174.048C106.085 174.688 106.416 175.616 106.416 176.832V182H104.976V177.04C104.976 176.165 104.757 175.499 104.32 175.04C103.883 174.571 103.285 174.336 102.528 174.336C101.76 174.336 101.147 174.576 100.688 175.056C100.24 175.536 100.016 176.235 100.016 177.152V182H98.5601V173.232H100.016V174.48C100.304 174.032 100.693 173.685 101.184 173.44C101.685 173.195 102.235 173.072 102.832 173.072ZM112.411 173.088C113.168 173.088 113.829 173.253 114.395 173.584C114.971 173.915 115.397 174.331 115.675 174.832V173.232H117.147V182.192C117.147 182.992 116.976 183.701 116.635 184.32C116.293 184.949 115.803 185.44 115.163 185.792C114.533 186.144 113.797 186.32 112.955 186.32C111.803 186.32 110.843 186.048 110.075 185.504C109.307 184.96 108.853 184.219 108.715 183.28H110.155C110.315 183.813 110.645 184.24 111.147 184.56C111.648 184.891 112.251 185.056 112.955 185.056C113.755 185.056 114.405 184.805 114.907 184.304C115.419 183.803 115.675 183.099 115.675 182.192V180.352C115.387 180.864 114.96 181.291 114.395 181.632C113.829 181.973 113.168 182.144 112.411 182.144C111.632 182.144 110.923 181.952 110.283 181.568C109.653 181.184 109.157 180.645 108.795 179.952C108.432 179.259 108.251 178.469 108.251 177.584C108.251 176.688 108.432 175.904 108.795 175.232C109.157 174.549 109.653 174.021 110.283 173.648C110.923 173.275 111.632 173.088 112.411 173.088ZM115.675 177.6C115.675 176.939 115.541 176.363 115.275 175.872C115.008 175.381 114.645 175.008 114.187 174.752C113.739 174.485 113.243 174.352 112.699 174.352C112.155 174.352 111.659 174.48 111.211 174.736C110.763 174.992 110.405 175.365 110.139 175.856C109.872 176.347 109.739 176.923 109.739 177.584C109.739 178.256 109.872 178.843 110.139 179.344C110.405 179.835 110.763 180.213 111.211 180.48C111.659 180.736 112.155 180.864 112.699 180.864C113.243 180.864 113.739 180.736 114.187 180.48C114.645 180.213 115.008 179.835 115.275 179.344C115.541 178.843 115.675 178.261 115.675 177.6ZM131.873 177.28C131.873 177.557 131.857 177.851 131.825 178.16H124.817C124.87 179.024 125.163 179.701 125.697 180.192C126.241 180.672 126.897 180.912 127.665 180.912C128.294 180.912 128.817 180.768 129.233 180.48C129.659 180.181 129.958 179.787 130.129 179.296H131.697C131.462 180.139 130.993 180.827 130.289 181.36C129.585 181.883 128.71 182.144 127.665 182.144C126.833 182.144 126.086 181.957 125.425 181.584C124.774 181.211 124.262 180.683 123.889 180C123.515 179.307 123.329 178.507 123.329 177.6C123.329 176.693 123.51 175.899 123.873 175.216C124.235 174.533 124.742 174.011 125.393 173.648C126.054 173.275 126.811 173.088 127.665 173.088C128.497 173.088 129.233 173.269 129.873 173.632C130.513 173.995 131.003 174.496 131.345 175.136C131.697 175.765 131.873 176.48 131.873 177.28ZM130.369 176.976C130.369 176.421 130.246 175.947 130.001 175.552C129.755 175.147 129.419 174.843 128.993 174.64C128.577 174.427 128.113 174.32 127.601 174.32C126.865 174.32 126.235 174.555 125.713 175.024C125.201 175.493 124.907 176.144 124.833 176.976H130.369ZM135.251 170.16V182H133.795V170.16H135.251ZM138.484 171.808C138.207 171.808 137.972 171.712 137.78 171.52C137.588 171.328 137.492 171.093 137.492 170.816C137.492 170.539 137.588 170.304 137.78 170.112C137.972 169.92 138.207 169.824 138.484 169.824C138.751 169.824 138.975 169.92 139.156 170.112C139.348 170.304 139.444 170.539 139.444 170.816C139.444 171.093 139.348 171.328 139.156 171.52C138.975 171.712 138.751 171.808 138.484 171.808ZM139.188 173.232V182H137.732V173.232H139.188ZM143.446 174.432V179.6C143.446 180.027 143.536 180.331 143.718 180.512C143.899 180.683 144.214 180.768 144.661 180.768H145.734V182H144.422C143.611 182 143.003 181.813 142.598 181.44C142.192 181.067 141.99 180.453 141.99 179.6V174.432H140.854V173.232H141.99V171.024H143.446V173.232H145.734V174.432H143.446ZM147.962 182.096C147.684 182.096 147.45 182 147.258 181.808C147.066 181.616 146.97 181.381 146.97 181.104C146.97 180.827 147.066 180.592 147.258 180.4C147.45 180.208 147.684 180.112 147.962 180.112C148.228 180.112 148.452 180.208 148.634 180.4C148.826 180.592 148.922 180.827 148.922 181.104C148.922 181.381 148.826 181.616 148.634 181.808C148.452 182 148.228 182.096 147.962 182.096Z" fill="white" fill-opacity="0.78"/>
<g clip-path="url(#clip0_38_36)">
<path d="M67 40L48.9637 41.8725L35 60.2781L67 96.867L99 60.2779L85.0365 41.8725L67 40Z" fill="#FDB300"/>
<path d="M35 60.2782L67 96.8671L47.9615 60.2782H35Z" fill="#EB6C00"/>
<path d="M86.0382 60.2782L67 96.8671L99 60.2782H86.0382Z" fill="#EB6C00"/>
<path d="M47.9617 60.2782L67.0002 96.8671L86.0387 60.2782H47.9617Z" fill="#FDAD00"/>
<path d="M48.9636 41.8725L47.9611 60.2781L66.9998 40L48.9636 41.8725Z" fill="#FDD231"/>
<path d="M86.0382 60.2781L85.0363 41.8725L67 40L86.0382 60.2781Z" fill="#FDD231"/>
<path d="M86.0383 60.2781H98.9998L85.0363 41.8724L86.0383 60.2781Z" fill="#FDAD00"/>
<path d="M35 60.2781H47.9615L48.9637 41.8724L35 60.2781Z" fill="#FDAD00"/>
<path d="M67.0002 40L47.9617 60.2779H86.0387L67.0002 40Z" fill="#FEEEB7"/>
</g>
<path d="M136.296 61.168C135.176 61.168 134.168 60.976 133.272 60.592C132.376 60.192 131.672 59.632 131.16 58.912C130.648 58.192 130.392 57.352 130.392 56.392H133.32C133.384 57.112 133.664 57.704 134.16 58.168C134.672 58.632 135.384 58.864 136.296 58.864C137.24 58.864 137.976 58.64 138.504 58.192C139.032 57.728 139.296 57.136 139.296 56.416C139.296 55.856 139.128 55.4 138.792 55.048C138.472 54.696 138.064 54.424 137.568 54.232C137.088 54.04 136.416 53.832 135.552 53.608C134.464 53.32 133.576 53.032 132.888 52.744C132.216 52.44 131.64 51.976 131.16 51.352C130.68 50.728 130.44 49.896 130.44 48.856C130.44 47.896 130.68 47.056 131.16 46.336C131.64 45.616 132.312 45.064 133.176 44.68C134.04 44.296 135.04 44.104 136.176 44.104C137.792 44.104 139.112 44.512 140.136 45.328C141.176 46.128 141.752 47.232 141.864 48.64H138.84C138.792 48.032 138.504 47.512 137.976 47.08C137.448 46.648 136.752 46.432 135.888 46.432C135.104 46.432 134.464 46.632 133.968 47.032C133.472 47.432 133.224 48.008 133.224 48.76C133.224 49.272 133.376 49.696 133.68 50.032C134 50.352 134.4 50.608 134.88 50.8C135.36 50.992 136.016 51.2 136.848 51.424C137.952 51.728 138.848 52.032 139.536 52.336C140.24 52.64 140.832 53.112 141.312 53.752C141.808 54.376 142.056 55.216 142.056 56.272C142.056 57.12 141.824 57.92 141.36 58.672C140.912 59.424 140.248 60.032 139.368 60.496C138.504 60.944 137.48 61.168 136.296 61.168ZM150.516 54.4L156.612 61H152.916L148.02 55.312V61H145.284V43.24H148.02V53.56L152.82 47.776H156.612L150.516 54.4ZM170.693 54.064C170.693 54.56 170.661 55.008 170.597 55.408H160.493C160.573 56.464 160.965 57.312 161.669 57.952C162.373 58.592 163.237 58.912 164.261 58.912C165.733 58.912 166.773 58.296 167.381 57.064H170.333C169.933 58.28 169.205 59.28 168.149 60.064C167.109 60.832 165.813 61.216 164.261 61.216C162.997 61.216 161.861 60.936 160.853 60.376C159.861 59.8 159.077 59 158.501 57.976C157.941 56.936 157.661 55.736 157.661 54.376C157.661 53.016 157.933 51.824 158.477 50.8C159.037 49.76 159.813 48.96 160.805 48.4C161.813 47.84 162.965 47.56 164.261 47.56C165.509 47.56 166.621 47.832 167.597 48.376C168.573 48.92 169.333 49.688 169.877 50.68C170.421 51.656 170.693 52.784 170.693 54.064ZM167.837 53.2C167.821 52.192 167.461 51.384 166.757 50.776C166.053 50.168 165.181 49.864 164.141 49.864C163.197 49.864 162.389 50.168 161.717 50.776C161.045 51.368 160.645 52.176 160.517 53.2H167.837ZM176.578 50.008V57.328C176.578 57.824 176.69 58.184 176.914 58.408C177.154 58.616 177.554 58.72 178.114 58.72H179.794V61H177.634C176.402 61 175.458 60.712 174.802 60.136C174.146 59.56 173.818 58.624 173.818 57.328V50.008H172.258V47.776H173.818V44.488H176.578V47.776H179.794V50.008H176.578ZM181.404 54.376C181.404 53.016 181.676 51.824 182.22 50.8C182.78 49.76 183.548 48.96 184.524 48.4C185.5 47.84 186.62 47.56 187.884 47.56C189.484 47.56 190.804 47.944 191.844 48.712C192.9 49.464 193.612 50.544 193.98 51.952H191.028C190.788 51.296 190.404 50.784 189.876 50.416C189.348 50.048 188.684 49.864 187.884 49.864C186.764 49.864 185.868 50.264 185.196 51.064C184.54 51.848 184.212 52.952 184.212 54.376C184.212 55.8 184.54 56.912 185.196 57.712C185.868 58.512 186.764 58.912 187.884 58.912C189.468 58.912 190.516 58.216 191.028 56.824H193.98C193.596 58.168 192.876 59.24 191.82 60.04C190.764 60.824 189.452 61.216 187.884 61.216C186.62 61.216 185.5 60.936 184.524 60.376C183.548 59.8 182.78 59 182.22 57.976C181.676 56.936 181.404 55.736 181.404 54.376ZM203.546 47.56C204.554 47.56 205.45 47.776 206.234 48.208C207.034 48.64 207.658 49.28 208.106 50.128C208.57 50.976 208.802 52 208.802 53.2V61H206.09V53.608C206.09 52.424 205.794 51.52 205.202 50.896C204.61 50.256 203.802 49.936 202.778 49.936C201.754 49.936 200.938 50.256 200.33 50.896C199.738 51.52 199.442 52.424 199.442 53.608V61H196.706V43.24H199.442V49.312C199.906 48.752 200.49 48.32 201.194 48.016C201.914 47.712 202.698 47.56 203.546 47.56Z" fill="white" fill-opacity="0.9"/>
<path d="M138.108 81.454V82.786H134.688V94H133.05V82.786H129.612V81.454H138.108ZM141.762 85.738C142.05 85.174 142.458 84.736 142.986 84.424C143.526 84.112 144.18 83.956 144.948 83.956V85.648H144.516C142.68 85.648 141.762 86.644 141.762 88.636V94H140.124V84.136H141.762V85.738ZM147.685 82.534C147.373 82.534 147.109 82.426 146.893 82.21C146.677 81.994 146.569 81.73 146.569 81.418C146.569 81.106 146.677 80.842 146.893 80.626C147.109 80.41 147.373 80.302 147.685 80.302C147.985 80.302 148.237 80.41 148.441 80.626C148.657 80.842 148.765 81.106 148.765 81.418C148.765 81.73 148.657 81.994 148.441 82.21C148.237 82.426 147.985 82.534 147.685 82.534ZM148.477 84.136V94H146.839V84.136H148.477ZM150.657 89.032C150.657 88.024 150.861 87.142 151.269 86.386C151.677 85.618 152.235 85.024 152.943 84.604C153.663 84.184 154.461 83.974 155.337 83.974C156.201 83.974 156.951 84.16 157.587 84.532C158.223 84.904 158.697 85.372 159.009 85.936V84.136H160.665V94H159.009V92.164C158.685 92.74 158.199 93.22 157.551 93.604C156.915 93.976 156.171 94.162 155.319 94.162C154.443 94.162 153.651 93.946 152.943 93.514C152.235 93.082 151.677 92.476 151.269 91.696C150.861 90.916 150.657 90.028 150.657 89.032ZM159.009 89.05C159.009 88.306 158.859 87.658 158.559 87.106C158.259 86.554 157.851 86.134 157.335 85.846C156.831 85.546 156.273 85.396 155.661 85.396C155.049 85.396 154.491 85.54 153.987 85.828C153.483 86.116 153.081 86.536 152.781 87.088C152.481 87.64 152.331 88.288 152.331 89.032C152.331 89.788 152.481 90.448 152.781 91.012C153.081 91.564 153.483 91.99 153.987 92.29C154.491 92.578 155.049 92.722 155.661 92.722C156.273 92.722 156.831 92.578 157.335 92.29C157.851 91.99 158.259 91.564 158.559 91.012C158.859 90.448 159.009 89.794 159.009 89.05ZM165.071 80.68V94H163.433V80.68H165.071ZM182.291 94L180.653 92.344C180.041 92.98 179.387 93.454 178.691 93.766C177.995 94.066 177.209 94.216 176.333 94.216C175.469 94.216 174.701 94.06 174.029 93.748C173.369 93.436 172.853 92.992 172.481 92.416C172.121 91.84 171.941 91.168 171.941 90.4C171.941 89.524 172.187 88.756 172.679 88.096C173.183 87.424 173.921 86.896 174.893 86.512C174.509 86.056 174.233 85.636 174.065 85.252C173.897 84.868 173.813 84.448 173.813 83.992C173.813 83.464 173.945 82.99 174.209 82.57C174.485 82.138 174.875 81.802 175.379 81.562C175.883 81.322 176.465 81.202 177.125 81.202C177.773 81.202 178.337 81.328 178.817 81.58C179.297 81.832 179.657 82.186 179.897 82.642C180.137 83.086 180.245 83.584 180.221 84.136H178.583C178.595 83.644 178.457 83.26 178.169 82.984C177.881 82.696 177.509 82.552 177.053 82.552C176.573 82.552 176.183 82.69 175.883 82.966C175.595 83.23 175.451 83.572 175.451 83.992C175.451 84.352 175.547 84.7 175.739 85.036C175.943 85.372 176.279 85.786 176.747 86.278L180.491 90.04L180.815 89.536L182.039 87.484H183.803L182.327 90.04C182.123 90.4 181.883 90.778 181.607 91.174L184.433 94H182.291ZM176.333 92.812C176.981 92.812 177.563 92.686 178.079 92.434C178.607 92.182 179.105 91.792 179.573 91.264L175.883 87.556C174.347 88.144 173.579 89.074 173.579 90.346C173.579 91.054 173.831 91.642 174.335 92.11C174.851 92.578 175.517 92.812 176.333 92.812ZM199.155 85.126C199.155 86.17 198.795 87.04 198.075 87.736C197.367 88.42 196.281 88.762 194.817 88.762H192.405V94H190.767V81.454H194.817C196.233 81.454 197.307 81.796 198.039 82.48C198.783 83.164 199.155 84.046 199.155 85.126ZM194.817 87.412C195.729 87.412 196.401 87.214 196.833 86.818C197.265 86.422 197.481 85.858 197.481 85.126C197.481 83.578 196.593 82.804 194.817 82.804H192.405V87.412H194.817ZM200.579 89.032C200.579 88.024 200.783 87.142 201.191 86.386C201.599 85.618 202.157 85.024 202.865 84.604C203.585 84.184 204.383 83.974 205.259 83.974C206.123 83.974 206.873 84.16 207.509 84.532C208.145 84.904 208.619 85.372 208.931 85.936V84.136H210.587V94H208.931V92.164C208.607 92.74 208.121 93.22 207.473 93.604C206.837 93.976 206.093 94.162 205.241 94.162C204.365 94.162 203.573 93.946 202.865 93.514C202.157 93.082 201.599 92.476 201.191 91.696C200.783 90.916 200.579 90.028 200.579 89.032ZM208.931 89.05C208.931 88.306 208.781 87.658 208.481 87.106C208.181 86.554 207.773 86.134 207.257 85.846C206.753 85.546 206.195 85.396 205.583 85.396C204.971 85.396 204.413 85.54 203.909 85.828C203.405 86.116 203.003 86.536 202.703 87.088C202.403 87.64 202.253 88.288 202.253 89.032C202.253 89.788 202.403 90.448 202.703 91.012C203.003 91.564 203.405 91.99 203.909 92.29C204.413 92.578 204.971 92.722 205.583 92.722C206.195 92.722 206.753 92.578 207.257 92.29C207.773 91.99 208.181 91.564 208.481 91.012C208.781 90.448 208.931 89.794 208.931 89.05ZM214.201 82.534C213.889 82.534 213.625 82.426 213.409 82.21C213.193 81.994 213.085 81.73 213.085 81.418C213.085 81.106 213.193 80.842 213.409 80.626C213.625 80.41 213.889 80.302 214.201 80.302C214.501 80.302 214.753 80.41 214.957 80.626C215.173 80.842 215.281 81.106 215.281 81.418C215.281 81.73 215.173 81.994 214.957 82.21C214.753 82.426 214.501 82.534 214.201 82.534ZM214.993 84.136V94H213.355V84.136H214.993ZM217.172 89.032C217.172 88.024 217.376 87.142 217.784 86.386C218.192 85.618 218.75 85.024 219.458 84.604C220.178 84.184 220.982 83.974 221.87 83.974C222.638 83.974 223.352 84.154 224.012 84.514C224.672 84.862 225.176 85.324 225.524 85.9V80.68H227.18V94H225.524V92.146C225.2 92.734 224.72 93.22 224.084 93.604C223.448 93.976 222.704 94.162 221.852 94.162C220.976 94.162 220.178 93.946 219.458 93.514C218.75 93.082 218.192 92.476 217.784 91.696C217.376 90.916 217.172 90.028 217.172 89.032ZM225.524 89.05C225.524 88.306 225.374 87.658 225.074 87.106C224.774 86.554 224.366 86.134 223.85 85.846C223.346 85.546 222.788 85.396 222.176 85.396C221.564 85.396 221.006 85.54 220.502 85.828C219.998 86.116 219.596 86.536 219.296 87.088C218.996 87.64 218.846 88.288 218.846 89.032C218.846 89.788 218.996 90.448 219.296 91.012C219.596 91.564 219.998 91.99 220.502 92.29C221.006 92.578 221.564 92.722 222.176 92.722C222.788 92.722 223.346 92.578 223.85 92.29C224.366 91.99 224.774 91.564 225.074 91.012C225.374 90.448 225.524 89.794 225.524 89.05Z" fill="#FFA537"/>
<rect x="255" y="221" width="106" height="42" rx="8" fill="#FF6E30"/>
<path d="M301.136 236.832L297.04 248H294.32L290.224 236.832H292.624L295.696 245.712L298.752 236.832H301.136ZM303.615 238.08C303.22 238.08 302.89 237.957 302.623 237.712C302.367 237.456 302.239 237.141 302.239 236.768C302.239 236.395 302.367 236.085 302.623 235.84C302.89 235.584 303.22 235.456 303.615 235.456C304.01 235.456 304.335 235.584 304.591 235.84C304.858 236.085 304.991 236.395 304.991 236.768C304.991 237.141 304.858 237.456 304.591 237.712C304.335 237.957 304.01 238.08 303.615 238.08ZM304.719 239.136V248H302.479V239.136H304.719ZM310.324 248.144C309.599 248.144 308.948 248.016 308.372 247.76C307.796 247.493 307.337 247.136 306.996 246.688C306.665 246.24 306.484 245.744 306.452 245.2H308.708C308.751 245.541 308.916 245.824 309.204 246.048C309.503 246.272 309.871 246.384 310.308 246.384C310.735 246.384 311.065 246.299 311.3 246.128C311.545 245.957 311.668 245.739 311.668 245.472C311.668 245.184 311.519 244.971 311.22 244.832C310.932 244.683 310.468 244.523 309.828 244.352C309.167 244.192 308.623 244.027 308.196 243.856C307.78 243.685 307.417 243.424 307.108 243.072C306.809 242.72 306.66 242.245 306.66 241.648C306.66 241.157 306.799 240.709 307.076 240.304C307.364 239.899 307.769 239.579 308.292 239.344C308.825 239.109 309.449 238.992 310.164 238.992C311.22 238.992 312.063 239.259 312.692 239.792C313.321 240.315 313.668 241.024 313.732 241.92H311.588C311.556 241.568 311.407 241.291 311.14 241.088C310.884 240.875 310.537 240.768 310.1 240.768C309.695 240.768 309.38 240.843 309.156 240.992C308.943 241.141 308.836 241.349 308.836 241.616C308.836 241.915 308.985 242.144 309.284 242.304C309.583 242.453 310.047 242.608 310.676 242.768C311.316 242.928 311.844 243.093 312.26 243.264C312.676 243.435 313.033 243.701 313.332 244.064C313.641 244.416 313.801 244.885 313.812 245.472C313.812 245.984 313.668 246.443 313.38 246.848C313.103 247.253 312.697 247.573 312.164 247.808C311.641 248.032 311.028 248.144 310.324 248.144ZM316.787 238.08C316.392 238.08 316.062 237.957 315.795 237.712C315.539 237.456 315.411 237.141 315.411 236.768C315.411 236.395 315.539 236.085 315.795 235.84C316.062 235.584 316.392 235.456 316.787 235.456C317.182 235.456 317.507 235.584 317.763 235.84C318.03 236.085 318.163 236.395 318.163 236.768C318.163 237.141 318.03 237.456 317.763 237.712C317.507 237.957 317.182 238.08 316.787 238.08ZM317.891 239.136V248H315.651V239.136H317.891ZM322.712 240.976V245.264C322.712 245.563 322.781 245.781 322.92 245.92C323.069 246.048 323.315 246.112 323.656 246.112H324.696V248H323.288C321.4 248 320.456 247.083 320.456 245.248V240.976H319.4V239.136H320.456V236.944H322.712V239.136H324.696V240.976H322.712Z" fill="white"/>
<g filter="url(#filter1_d_38_36)">
<rect x="35" y="221" width="42" height="42" rx="8" fill="#283036"/>
</g>
<path d="M61.8333 233.25C59.3833 233.25 57.225 234.475 56 236.4C54.775 234.475 52.6167 233.25 50.1667 233.25C46.3167 233.25 43.1667 236.4 43.1667 240.25C43.1667 247.192 56 254.25 56 254.25C56 254.25 68.8333 247.25 68.8333 240.25C68.8333 236.4 65.6833 233.25 61.8333 233.25Z" fill="#FD3B41"/>
<rect x="89" y="221" width="42" height="42" rx="8" fill="#242C32"/>
<path d="M112.5 243.25H111.25V242C111.25 241.668 111.118 241.351 110.884 241.116C110.649 240.882 110.332 240.75 110 240.75C109.668 240.75 109.351 240.882 109.116 241.116C108.882 241.351 108.75 241.668 108.75 242V243.25H107.5C107.168 243.25 106.851 243.382 106.616 243.616C106.382 243.851 106.25 244.168 106.25 244.5C106.25 244.832 106.382 245.149 106.616 245.384C106.851 245.618 107.168 245.75 107.5 245.75H108.75V247C108.75 247.332 108.882 247.649 109.116 247.884C109.351 248.118 109.668 248.25 110 248.25C110.332 248.25 110.649 248.118 110.884 247.884C111.118 247.649 111.25 247.332 111.25 247V245.75H112.5C112.832 245.75 113.149 245.618 113.384 245.384C113.618 245.149 113.75 244.832 113.75 244.5C113.75 244.168 113.618 243.851 113.384 243.616C113.149 243.382 112.832 243.25 112.5 243.25Z" fill="white" fill-opacity="0.55"/>
<path d="M119.375 235.812H110.625L107.338 231.837C107.221 231.694 107.075 231.578 106.908 231.498C106.742 231.418 106.56 231.376 106.375 231.375H100.625C99.8083 231.365 99.0208 231.679 98.4351 232.248C97.8494 232.818 97.5132 233.596 97.5 234.412V249.587C97.5132 250.404 97.8494 251.182 98.4351 251.752C99.0208 252.321 99.8083 252.635 100.625 252.625H119.375C120.192 252.635 120.979 252.321 121.565 251.752C122.151 251.182 122.487 250.404 122.5 249.587V238.85C122.487 238.033 122.151 237.255 121.565 236.686C120.979 236.116 120.192 235.802 119.375 235.812ZM120 249.562C119.995 249.639 119.975 249.714 119.941 249.783C119.907 249.852 119.859 249.913 119.801 249.963C119.743 250.013 119.675 250.051 119.602 250.075C119.529 250.098 119.452 250.107 119.375 250.1H100.625C100.548 250.107 100.471 250.098 100.398 250.075C100.325 250.051 100.257 250.013 100.199 249.963C100.141 249.913 100.093 249.852 100.059 249.783C100.025 249.714 100.005 249.639 100 249.562V234.412C100.005 234.336 100.025 234.261 100.059 234.192C100.093 234.123 100.141 234.062 100.199 234.012C100.257 233.962 100.325 233.924 100.398 233.9C100.471 233.877 100.548 233.868 100.625 233.875H105.788L109.038 237.85C109.154 237.993 109.3 238.109 109.467 238.189C109.633 238.269 109.815 238.311 110 238.312H119.375C119.452 238.306 119.529 238.314 119.602 238.338C119.675 238.361 119.743 238.399 119.801 238.449C119.859 238.499 119.907 238.561 119.941 238.629C119.975 238.698 119.995 238.773 120 238.85V249.562Z" fill="white" fill-opacity="0.55"/>
<defs>
<filter id="filter0_b_38_36" x="-50" y="-50" width="496" height="398" filterUnits="userSpaceOnUse" color-interpolation-filters="sRGB">
<feFlood flood-opacity="0" result="BackgroundImageFix"/>
<feGaussianBlur in="BackgroundImage" stdDeviation="25"/>
<feComposite in2="SourceAlpha" operator="in" result="effect1_backgroundBlur_38_36"/>
<feBlend mode="normal" in="SourceGraphic" in2="effect1_backgroundBlur_38_36" result="shape"/>
</filter>
<filter id="filter1_d_38_36" x="28" y="219" width="56" height="56" filterUnits="userSpaceOnUse" color-interpolation-filters="sRGB">
<feFlood flood-opacity="0" result="BackgroundImageFix"/>
<feColorMatrix in="SourceAlpha" type="matrix" values="0 0 0 0 0 0 0 0 0 0 0 0 0 0 0 0 0 0 127 0" result="hardAlpha"/>
<feMorphology radius="3" operator="erode" in="SourceAlpha" result="effect1_dropShadow_38_36"/>
<feOffset dy="5"/>
<feGaussianBlur stdDeviation="5"/>
<feColorMatrix type="matrix" values="0 0 0 0 0.0705882 0 0 0 0 0.0705882 0 0 0 0 0.0705882 0 0 0 0.15 0"/>
<feBlend mode="normal" in2="BackgroundImageFix" result="effect1_dropShadow_38_36"/>
<feBlend mode="normal" in="SourceGraphic" in2="effect1_dropShadow_38_36" result="shape"/>
</filter>
<linearGradient id="paint0_linear_38_36" x1="-7.5" y1="-2.5" x2="385" y2="281.5" gradientUnits="userSpaceOnUse">
<stop stop-color="white" stop-opacity="0.8"/>
<stop offset="0.310056" stop-color="white" stop-opacity="0"/>
<stop offset="0.473246" stop-color="white" stop-opacity="0.5"/>
<stop offset="1" stop-color="white" stop-opacity="0"/>
</linearGradient>
<clipPath id="clip0_38_36">
<rect width="64" height="56.95" fill="white" transform="translate(35 40)"/>
</clipPath>
</defs>
</svg>
