<svg width="392" height="294" viewBox="0 0 392 294" fill="none" xmlns="http://www.w3.org/2000/svg">
<rect width="392" height="294" rx="15" fill="#1E252B"/>
<path d="M35.688 148.816H39.592V150H34.232V138.848H35.688V148.816ZM44.9623 150.144C44.1409 150.144 43.3943 149.957 42.7223 149.584C42.0609 149.211 41.5383 148.683 41.1543 148C40.7809 147.307 40.5943 146.507 40.5943 145.6C40.5943 144.704 40.7863 143.915 41.1703 143.232C41.5649 142.539 42.0983 142.011 42.7703 141.648C43.4423 141.275 44.1943 141.088 45.0263 141.088C45.8583 141.088 46.6103 141.275 47.2823 141.648C47.9543 142.011 48.4823 142.533 48.8663 143.216C49.2609 143.899 49.4583 144.693 49.4583 145.6C49.4583 146.507 49.2556 147.307 48.8503 148C48.4556 148.683 47.9169 149.211 47.2343 149.584C46.5516 149.957 45.7943 150.144 44.9623 150.144ZM44.9623 148.864C45.4849 148.864 45.9756 148.741 46.4343 148.496C46.8929 148.251 47.2609 147.883 47.5383 147.392C47.8263 146.901 47.9703 146.304 47.9703 145.6C47.9703 144.896 47.8316 144.299 47.5543 143.808C47.2769 143.317 46.9143 142.955 46.4663 142.72C46.0183 142.475 45.5329 142.352 45.0103 142.352C44.4769 142.352 43.9863 142.475 43.5383 142.72C43.1009 142.955 42.7489 143.317 42.4823 143.808C42.2156 144.299 42.0823 144.896 42.0823 145.6C42.0823 146.315 42.2103 146.917 42.4663 147.408C42.7329 147.899 43.0849 148.267 43.5223 148.512C43.9596 148.747 44.4396 148.864 44.9623 148.864ZM52.8286 142.656C53.0846 142.155 53.4473 141.765 53.9166 141.488C54.3966 141.211 54.978 141.072 55.6606 141.072V142.576H55.2766C53.6446 142.576 52.8286 143.461 52.8286 145.232V150H51.3726V141.232H52.8286V142.656ZM65.3414 145.28C65.3414 145.557 65.3254 145.851 65.2934 146.16H58.2854C58.3387 147.024 58.632 147.701 59.1654 148.192C59.7094 148.672 60.3654 148.912 61.1334 148.912C61.7627 148.912 62.2854 148.768 62.7014 148.48C63.128 148.181 63.4267 147.787 63.5974 147.296H65.1654C64.9307 148.139 64.4614 148.827 63.7574 149.36C63.0534 149.883 62.1787 150.144 61.1334 150.144C60.3014 150.144 59.5547 149.957 58.8934 149.584C58.2427 149.211 57.7307 148.683 57.3574 148C56.984 147.307 56.7974 146.507 56.7974 145.6C56.7974 144.693 56.9787 143.899 57.3414 143.216C57.704 142.533 58.2107 142.011 58.8614 141.648C59.5227 141.275 60.28 141.088 61.1334 141.088C61.9654 141.088 62.7014 141.269 63.3414 141.632C63.9814 141.995 64.472 142.496 64.8134 143.136C65.1654 143.765 65.3414 144.48 65.3414 145.28ZM63.8374 144.976C63.8374 144.421 63.7147 143.947 63.4694 143.552C63.224 143.147 62.888 142.843 62.4614 142.64C62.0454 142.427 61.5814 142.32 61.0694 142.32C60.3334 142.32 59.704 142.555 59.1814 143.024C58.6694 143.493 58.376 144.144 58.3014 144.976H63.8374ZM77.8073 141.072C78.4899 141.072 79.0979 141.216 79.6313 141.504C80.1646 141.781 80.5859 142.203 80.8953 142.768C81.2046 143.333 81.3593 144.021 81.3593 144.832V150H79.9193V145.04C79.9193 144.165 79.7006 143.499 79.2633 143.04C78.8366 142.571 78.2553 142.336 77.5193 142.336C76.7619 142.336 76.1593 142.581 75.7113 143.072C75.2633 143.552 75.0393 144.251 75.0393 145.168V150H73.5993V145.04C73.5993 144.165 73.3806 143.499 72.9433 143.04C72.5166 142.571 71.9353 142.336 71.1993 142.336C70.4419 142.336 69.8393 142.581 69.3913 143.072C68.9433 143.552 68.7193 144.251 68.7193 145.168V150H67.2633V141.232H68.7193V142.496C69.0073 142.037 69.3913 141.685 69.8713 141.44C70.3619 141.195 70.9006 141.072 71.4873 141.072C72.2233 141.072 72.8739 141.237 73.4393 141.568C74.0046 141.899 74.4259 142.384 74.7033 143.024C74.9486 142.405 75.3539 141.925 75.9193 141.584C76.4846 141.243 77.1139 141.072 77.8073 141.072ZM88.7653 139.808C88.4879 139.808 88.2533 139.712 88.0613 139.52C87.8693 139.328 87.7733 139.093 87.7733 138.816C87.7733 138.539 87.8693 138.304 88.0613 138.112C88.2533 137.92 88.4879 137.824 88.7653 137.824C89.0319 137.824 89.2559 137.92 89.4373 138.112C89.6293 138.304 89.7253 138.539 89.7253 138.816C89.7253 139.093 89.6293 139.328 89.4373 139.52C89.2559 139.712 89.0319 139.808 88.7653 139.808ZM89.4693 141.232V150H88.0133V141.232H89.4693ZM93.4068 142.848C93.6948 142.347 94.1214 141.931 94.6868 141.6C95.2628 141.259 95.9294 141.088 96.6868 141.088C97.4654 141.088 98.1694 141.275 98.7987 141.648C99.4387 142.021 99.9401 142.549 100.303 143.232C100.665 143.904 100.847 144.688 100.847 145.584C100.847 146.469 100.665 147.259 100.303 147.952C99.9401 148.645 99.4387 149.184 98.7987 149.568C98.1694 149.952 97.4654 150.144 96.6868 150.144C95.9401 150.144 95.2788 149.979 94.7028 149.648C94.1374 149.307 93.7054 148.885 93.4068 148.384V154.16H91.9508V141.232H93.4068V142.848ZM99.3588 145.584C99.3588 144.923 99.2254 144.347 98.9588 143.856C98.6921 143.365 98.3294 142.992 97.8708 142.736C97.4228 142.48 96.9268 142.352 96.3828 142.352C95.8494 142.352 95.3534 142.485 94.8948 142.752C94.4468 143.008 94.0841 143.387 93.8068 143.888C93.5401 144.379 93.4068 144.949 93.4068 145.6C93.4068 146.261 93.5401 146.843 93.8068 147.344C94.0841 147.835 94.4468 148.213 94.8948 148.48C95.3534 148.736 95.8494 148.864 96.3828 148.864C96.9268 148.864 97.4228 148.736 97.8708 148.48C98.3294 148.213 98.6921 147.835 98.9588 147.344C99.2254 146.843 99.3588 146.256 99.3588 145.584ZM105.867 150.144C105.195 150.144 104.593 150.032 104.059 149.808C103.526 149.573 103.105 149.253 102.795 148.848C102.486 148.432 102.315 147.957 102.283 147.424H103.787C103.83 147.861 104.033 148.219 104.395 148.496C104.769 148.773 105.254 148.912 105.851 148.912C106.406 148.912 106.843 148.789 107.163 148.544C107.483 148.299 107.643 147.989 107.643 147.616C107.643 147.232 107.473 146.949 107.131 146.768C106.79 146.576 106.262 146.389 105.547 146.208C104.897 146.037 104.363 145.867 103.947 145.696C103.542 145.515 103.19 145.253 102.891 144.912C102.603 144.56 102.459 144.101 102.459 143.536C102.459 143.088 102.593 142.677 102.859 142.304C103.126 141.931 103.505 141.637 103.995 141.424C104.486 141.2 105.046 141.088 105.675 141.088C106.646 141.088 107.43 141.333 108.027 141.824C108.625 142.315 108.945 142.987 108.987 143.84H107.531C107.499 143.381 107.313 143.013 106.971 142.736C106.641 142.459 106.193 142.32 105.627 142.32C105.105 142.32 104.689 142.432 104.379 142.656C104.07 142.88 103.915 143.173 103.915 143.536C103.915 143.824 104.006 144.064 104.187 144.256C104.379 144.437 104.614 144.587 104.891 144.704C105.179 144.811 105.574 144.933 106.075 145.072C106.705 145.243 107.217 145.413 107.611 145.584C108.006 145.744 108.342 145.989 108.619 146.32C108.907 146.651 109.057 147.083 109.067 147.616C109.067 148.096 108.934 148.528 108.667 148.912C108.401 149.296 108.022 149.6 107.531 149.824C107.051 150.037 106.497 150.144 105.867 150.144ZM118.899 141.232V150H117.443V148.704C117.165 149.152 116.776 149.504 116.275 149.76C115.784 150.005 115.24 150.128 114.643 150.128C113.96 150.128 113.347 149.989 112.803 149.712C112.259 149.424 111.827 148.997 111.507 148.432C111.197 147.867 111.043 147.179 111.043 146.368V141.232H112.483V146.176C112.483 147.04 112.701 147.707 113.139 148.176C113.576 148.635 114.173 148.864 114.931 148.864C115.709 148.864 116.323 148.624 116.771 148.144C117.219 147.664 117.443 146.965 117.443 146.048V141.232H118.899ZM131.901 141.072C132.584 141.072 133.192 141.216 133.725 141.504C134.258 141.781 134.68 142.203 134.989 142.768C135.298 143.333 135.453 144.021 135.453 144.832V150H134.013V145.04C134.013 144.165 133.794 143.499 133.357 143.04C132.93 142.571 132.349 142.336 131.613 142.336C130.856 142.336 130.253 142.581 129.805 143.072C129.357 143.552 129.133 144.251 129.133 145.168V150H127.693V145.04C127.693 144.165 127.474 143.499 127.037 143.04C126.61 142.571 126.029 142.336 125.293 142.336C124.536 142.336 123.933 142.581 123.485 143.072C123.037 143.552 122.813 144.251 122.813 145.168V150H121.357V141.232H122.813V142.496C123.101 142.037 123.485 141.685 123.965 141.44C124.456 141.195 124.994 141.072 125.581 141.072C126.317 141.072 126.968 141.237 127.533 141.568C128.098 141.899 128.52 142.384 128.797 143.024C129.042 142.405 129.448 141.925 130.013 141.584C130.578 141.243 131.208 141.072 131.901 141.072ZM141.563 145.584C141.563 144.688 141.744 143.904 142.107 143.232C142.47 142.549 142.966 142.021 143.595 141.648C144.235 141.275 144.95 141.088 145.739 141.088C146.422 141.088 147.056 141.248 147.643 141.568C148.23 141.877 148.678 142.288 148.987 142.8V138.16H150.459V150H148.987V148.352C148.699 148.875 148.272 149.307 147.707 149.648C147.142 149.979 146.48 150.144 145.723 150.144C144.944 150.144 144.235 149.952 143.595 149.568C142.966 149.184 142.47 148.645 142.107 147.952C141.744 147.259 141.563 146.469 141.563 145.584ZM148.987 145.6C148.987 144.939 148.854 144.363 148.587 143.872C148.32 143.381 147.958 143.008 147.499 142.752C147.051 142.485 146.555 142.352 146.011 142.352C145.467 142.352 144.971 142.48 144.523 142.736C144.075 142.992 143.718 143.365 143.451 143.856C143.184 144.347 143.051 144.923 143.051 145.584C143.051 146.256 143.184 146.843 143.451 147.344C143.718 147.835 144.075 148.213 144.523 148.48C144.971 148.736 145.467 148.864 146.011 148.864C146.555 148.864 147.051 148.736 147.499 148.48C147.958 148.213 148.32 147.835 148.587 147.344C148.854 146.843 148.987 146.261 148.987 145.6ZM156.744 150.144C155.922 150.144 155.176 149.957 154.504 149.584C153.842 149.211 153.32 148.683 152.936 148C152.562 147.307 152.376 146.507 152.376 145.6C152.376 144.704 152.568 143.915 152.952 143.232C153.346 142.539 153.88 142.011 154.552 141.648C155.224 141.275 155.976 141.088 156.808 141.088C157.64 141.088 158.392 141.275 159.064 141.648C159.736 142.011 160.264 142.533 160.648 143.216C161.042 143.899 161.24 144.693 161.24 145.6C161.24 146.507 161.037 147.307 160.632 148C160.237 148.683 159.698 149.211 159.016 149.584C158.333 149.957 157.576 150.144 156.744 150.144ZM156.744 148.864C157.266 148.864 157.757 148.741 158.216 148.496C158.674 148.251 159.042 147.883 159.32 147.392C159.608 146.901 159.752 146.304 159.752 145.6C159.752 144.896 159.613 144.299 159.336 143.808C159.058 143.317 158.696 142.955 158.248 142.72C157.8 142.475 157.314 142.352 156.792 142.352C156.258 142.352 155.768 142.475 155.32 142.72C154.882 142.955 154.53 143.317 154.264 143.808C153.997 144.299 153.864 144.896 153.864 145.6C153.864 146.315 153.992 146.917 154.248 147.408C154.514 147.899 154.866 148.267 155.304 148.512C155.741 148.747 156.221 148.864 156.744 148.864ZM164.61 138.16V150H163.154V138.16H164.61ZM170.915 150.144C170.094 150.144 169.347 149.957 168.675 149.584C168.014 149.211 167.491 148.683 167.107 148C166.734 147.307 166.547 146.507 166.547 145.6C166.547 144.704 166.739 143.915 167.123 143.232C167.518 142.539 168.051 142.011 168.723 141.648C169.395 141.275 170.147 141.088 170.979 141.088C171.811 141.088 172.563 141.275 173.235 141.648C173.907 142.011 174.435 142.533 174.819 143.216C175.214 143.899 175.411 144.693 175.411 145.6C175.411 146.507 175.209 147.307 174.803 148C174.409 148.683 173.87 149.211 173.187 149.584C172.505 149.957 171.747 150.144 170.915 150.144ZM170.915 148.864C171.438 148.864 171.929 148.741 172.387 148.496C172.846 148.251 173.214 147.883 173.491 147.392C173.779 146.901 173.923 146.304 173.923 145.6C173.923 144.896 173.785 144.299 173.507 143.808C173.23 143.317 172.867 142.955 172.419 142.72C171.971 142.475 171.486 142.352 170.963 142.352C170.43 142.352 169.939 142.475 169.491 142.72C169.054 142.955 168.702 143.317 168.435 143.808C168.169 144.299 168.035 144.896 168.035 145.6C168.035 146.315 168.163 146.917 168.419 147.408C168.686 147.899 169.038 148.267 169.475 148.512C169.913 148.747 170.393 148.864 170.915 148.864ZM178.782 142.656C179.038 142.155 179.4 141.765 179.87 141.488C180.35 141.211 180.931 141.072 181.614 141.072V142.576H181.23C179.598 142.576 178.782 143.461 178.782 145.232V150H177.326V141.232H178.782V142.656ZM190.664 150.144C189.992 150.144 189.389 150.032 188.856 149.808C188.323 149.573 187.901 149.253 187.592 148.848C187.283 148.432 187.112 147.957 187.08 147.424H188.584C188.627 147.861 188.829 148.219 189.192 148.496C189.565 148.773 190.051 148.912 190.648 148.912C191.203 148.912 191.64 148.789 191.96 148.544C192.28 148.299 192.44 147.989 192.44 147.616C192.44 147.232 192.269 146.949 191.928 146.768C191.587 146.576 191.059 146.389 190.344 146.208C189.693 146.037 189.16 145.867 188.744 145.696C188.339 145.515 187.987 145.253 187.688 144.912C187.4 144.56 187.256 144.101 187.256 143.536C187.256 143.088 187.389 142.677 187.656 142.304C187.923 141.931 188.301 141.637 188.792 141.424C189.283 141.2 189.843 141.088 190.472 141.088C191.443 141.088 192.227 141.333 192.824 141.824C193.421 142.315 193.741 142.987 193.784 143.84H192.328C192.296 143.381 192.109 143.013 191.768 142.736C191.437 142.459 190.989 142.32 190.424 142.32C189.901 142.32 189.485 142.432 189.176 142.656C188.867 142.88 188.712 143.173 188.712 143.536C188.712 143.824 188.803 144.064 188.984 144.256C189.176 144.437 189.411 144.587 189.688 144.704C189.976 144.811 190.371 144.933 190.872 145.072C191.501 145.243 192.013 145.413 192.408 145.584C192.803 145.744 193.139 145.989 193.416 146.32C193.704 146.651 193.853 147.083 193.864 147.616C193.864 148.096 193.731 148.528 193.464 148.912C193.197 149.296 192.819 149.6 192.328 149.824C191.848 150.037 191.293 150.144 190.664 150.144ZM196.672 139.808C196.394 139.808 196.16 139.712 195.968 139.52C195.776 139.328 195.68 139.093 195.68 138.816C195.68 138.539 195.776 138.304 195.968 138.112C196.16 137.92 196.394 137.824 196.672 137.824C196.938 137.824 197.162 137.92 197.344 138.112C197.536 138.304 197.632 138.539 197.632 138.816C197.632 139.093 197.536 139.328 197.344 139.52C197.162 139.712 196.938 139.808 196.672 139.808ZM197.376 141.232V150H195.92V141.232H197.376ZM201.633 142.432V147.6C201.633 148.027 201.724 148.331 201.905 148.512C202.086 148.683 202.401 148.768 202.849 148.768H203.921V150H202.609C201.798 150 201.19 149.813 200.785 149.44C200.38 149.067 200.177 148.453 200.177 147.6V142.432H199.041V141.232H200.177V139.024H201.633V141.232H203.921V142.432H201.633ZM209.407 145.584C209.407 144.688 209.588 143.904 209.951 143.232C210.313 142.549 210.809 142.021 211.439 141.648C212.079 141.275 212.788 141.088 213.567 141.088C214.335 141.088 215.001 141.253 215.567 141.584C216.132 141.915 216.553 142.331 216.831 142.832V141.232H218.303V150H216.831V148.368C216.543 148.88 216.111 149.307 215.535 149.648C214.969 149.979 214.308 150.144 213.551 150.144C212.772 150.144 212.068 149.952 211.439 149.568C210.809 149.184 210.313 148.645 209.951 147.952C209.588 147.259 209.407 146.469 209.407 145.584ZM216.831 145.6C216.831 144.939 216.697 144.363 216.431 143.872C216.164 143.381 215.801 143.008 215.343 142.752C214.895 142.485 214.399 142.352 213.855 142.352C213.311 142.352 212.815 142.48 212.367 142.736C211.919 142.992 211.561 143.365 211.295 143.856C211.028 144.347 210.895 144.923 210.895 145.584C210.895 146.256 211.028 146.843 211.295 147.344C211.561 147.835 211.919 148.213 212.367 148.48C212.815 148.736 213.311 148.864 213.855 148.864C214.399 148.864 214.895 148.736 215.343 148.48C215.801 148.213 216.164 147.835 216.431 147.344C216.697 146.843 216.831 146.261 216.831 145.6ZM231.307 141.072C231.99 141.072 232.598 141.216 233.131 141.504C233.665 141.781 234.086 142.203 234.395 142.768C234.705 143.333 234.859 144.021 234.859 144.832V150H233.419V145.04C233.419 144.165 233.201 143.499 232.763 143.04C232.337 142.571 231.755 142.336 231.019 142.336C230.262 142.336 229.659 142.581 229.211 143.072C228.763 143.552 228.539 144.251 228.539 145.168V150H227.099V145.04C227.099 144.165 226.881 143.499 226.443 143.04C226.017 142.571 225.435 142.336 224.699 142.336C223.942 142.336 223.339 142.581 222.891 143.072C222.443 143.552 222.219 144.251 222.219 145.168V150H220.763V141.232H222.219V142.496C222.507 142.037 222.891 141.685 223.371 141.44C223.862 141.195 224.401 141.072 224.987 141.072C225.723 141.072 226.374 141.237 226.939 141.568C227.505 141.899 227.926 142.384 228.203 143.024C228.449 142.405 228.854 141.925 229.419 141.584C229.985 141.243 230.614 141.072 231.307 141.072ZM245.248 145.28C245.248 145.557 245.232 145.851 245.2 146.16H238.192C238.245 147.024 238.538 147.701 239.072 148.192C239.616 148.672 240.272 148.912 241.04 148.912C241.669 148.912 242.192 148.768 242.608 148.48C243.034 148.181 243.333 147.787 243.504 147.296H245.072C244.837 148.139 244.368 148.827 243.664 149.36C242.96 149.883 242.085 150.144 241.04 150.144C240.208 150.144 239.461 149.957 238.8 149.584C238.149 149.211 237.637 148.683 237.264 148C236.89 147.307 236.704 146.507 236.704 145.6C236.704 144.693 236.885 143.899 237.248 143.216C237.61 142.533 238.117 142.011 238.768 141.648C239.429 141.275 240.186 141.088 241.04 141.088C241.872 141.088 242.608 141.269 243.248 141.632C243.888 141.995 244.378 142.496 244.72 143.136C245.072 143.765 245.248 144.48 245.248 145.28ZM243.744 144.976C243.744 144.421 243.621 143.947 243.376 143.552C243.13 143.147 242.794 142.843 242.368 142.64C241.952 142.427 241.488 142.32 240.976 142.32C240.24 142.32 239.61 142.555 239.088 143.024C238.576 143.493 238.282 144.144 238.208 144.976H243.744ZM248.946 142.432V147.6C248.946 148.027 249.036 148.331 249.218 148.512C249.399 148.683 249.714 148.768 250.161 148.768H251.234V150H249.922C249.111 150 248.503 149.813 248.098 149.44C247.692 149.067 247.49 148.453 247.49 147.6V142.432H246.354V141.232H247.49V139.024H248.946V141.232H251.234V142.432H248.946ZM254.502 147.984L252.71 152.288H251.734L252.902 147.984H254.502ZM259.891 145.6C259.891 144.693 260.072 143.904 260.435 143.232C260.798 142.549 261.299 142.021 261.939 141.648C262.59 141.275 263.331 141.088 264.163 141.088C265.24 141.088 266.126 141.349 266.819 141.872C267.523 142.395 267.987 143.12 268.211 144.048H266.643C266.494 143.515 266.2 143.093 265.763 142.784C265.336 142.475 264.803 142.32 264.163 142.32C263.331 142.32 262.659 142.608 262.147 143.184C261.635 143.749 261.379 144.555 261.379 145.6C261.379 146.656 261.635 147.472 262.147 148.048C262.659 148.624 263.331 148.912 264.163 148.912C264.803 148.912 265.336 148.763 265.763 148.464C266.19 148.165 266.483 147.739 266.643 147.184H268.211C267.976 148.08 267.507 148.8 266.803 149.344C266.099 149.877 265.219 150.144 264.163 150.144C263.331 150.144 262.59 149.957 261.939 149.584C261.299 149.211 260.798 148.683 260.435 148C260.072 147.317 259.891 146.517 259.891 145.6ZM273.978 150.144C273.157 150.144 272.41 149.957 271.738 149.584C271.077 149.211 270.554 148.683 270.17 148C269.797 147.307 269.61 146.507 269.61 145.6C269.61 144.704 269.802 143.915 270.186 143.232C270.581 142.539 271.114 142.011 271.786 141.648C272.458 141.275 273.21 141.088 274.042 141.088C274.874 141.088 275.626 141.275 276.298 141.648C276.97 142.011 277.498 142.533 277.882 143.216C278.277 143.899 278.474 144.693 278.474 145.6C278.474 146.507 278.271 147.307 277.866 148C277.471 148.683 276.933 149.211 276.25 149.584C275.567 149.957 274.81 150.144 273.978 150.144ZM273.978 148.864C274.501 148.864 274.991 148.741 275.45 148.496C275.909 148.251 276.277 147.883 276.554 147.392C276.842 146.901 276.986 146.304 276.986 145.6C276.986 144.896 276.847 144.299 276.57 143.808C276.293 143.317 275.93 142.955 275.482 142.72C275.034 142.475 274.549 142.352 274.026 142.352C273.493 142.352 273.002 142.475 272.554 142.72C272.117 142.955 271.765 143.317 271.498 143.808C271.231 144.299 271.098 144.896 271.098 145.6C271.098 146.315 271.226 146.917 271.482 147.408C271.749 147.899 272.101 148.267 272.538 148.512C272.975 148.747 273.455 148.864 273.978 148.864ZM284.66 141.072C285.727 141.072 286.591 141.397 287.252 142.048C287.914 142.688 288.244 143.616 288.244 144.832V150H286.804V145.04C286.804 144.165 286.586 143.499 286.148 143.04C285.711 142.571 285.114 142.336 284.356 142.336C283.588 142.336 282.975 142.576 282.516 143.056C282.068 143.536 281.844 144.235 281.844 145.152V150H280.388V141.232H281.844V142.48C282.132 142.032 282.522 141.685 283.012 141.44C283.514 141.195 284.063 141.072 284.66 141.072ZM293.727 150.144C293.055 150.144 292.452 150.032 291.919 149.808C291.385 149.573 290.964 149.253 290.655 148.848C290.345 148.432 290.175 147.957 290.143 147.424H291.647C291.689 147.861 291.892 148.219 292.255 148.496C292.628 148.773 293.113 148.912 293.711 148.912C294.265 148.912 294.703 148.789 295.023 148.544C295.343 148.299 295.503 147.989 295.503 147.616C295.503 147.232 295.332 146.949 294.991 146.768C294.649 146.576 294.121 146.389 293.407 146.208C292.756 146.037 292.223 145.867 291.807 145.696C291.401 145.515 291.049 145.253 290.751 144.912C290.463 144.56 290.319 144.101 290.319 143.536C290.319 143.088 290.452 142.677 290.719 142.304C290.985 141.931 291.364 141.637 291.855 141.424C292.345 141.2 292.905 141.088 293.535 141.088C294.505 141.088 295.289 141.333 295.887 141.824C296.484 142.315 296.804 142.987 296.847 143.84H295.391C295.359 143.381 295.172 143.013 294.831 142.736C294.5 142.459 294.052 142.32 293.487 142.32C292.964 142.32 292.548 142.432 292.239 142.656C291.929 142.88 291.775 143.173 291.775 143.536C291.775 143.824 291.865 144.064 292.047 144.256C292.239 144.437 292.473 144.587 292.751 144.704C293.039 144.811 293.433 144.933 293.935 145.072C294.564 145.243 295.076 145.413 295.471 145.584C295.865 145.744 296.201 145.989 296.479 146.32C296.767 146.651 296.916 147.083 296.927 147.616C296.927 148.096 296.793 148.528 296.527 148.912C296.26 149.296 295.881 149.6 295.391 149.824C294.911 150.037 294.356 150.144 293.727 150.144ZM306.982 145.28C306.982 145.557 306.966 145.851 306.934 146.16H299.926C299.979 147.024 300.273 147.701 300.806 148.192C301.35 148.672 302.006 148.912 302.774 148.912C303.403 148.912 303.926 148.768 304.342 148.48C304.769 148.181 305.067 147.787 305.238 147.296H306.806C306.571 148.139 306.102 148.827 305.398 149.36C304.694 149.883 303.819 150.144 302.774 150.144C301.942 150.144 301.195 149.957 300.534 149.584C299.883 149.211 299.371 148.683 298.998 148C298.625 147.307 298.438 146.507 298.438 145.6C298.438 144.693 298.619 143.899 298.982 143.216C299.345 142.533 299.851 142.011 300.502 141.648C301.163 141.275 301.921 141.088 302.774 141.088C303.606 141.088 304.342 141.269 304.982 141.632C305.622 141.995 306.113 142.496 306.454 143.136C306.806 143.765 306.982 144.48 306.982 145.28ZM305.478 144.976C305.478 144.421 305.355 143.947 305.11 143.552C304.865 143.147 304.529 142.843 304.102 142.64C303.686 142.427 303.222 142.32 302.71 142.32C301.974 142.32 301.345 142.555 300.822 143.024C300.31 143.493 300.017 144.144 299.942 144.976H305.478ZM308.36 145.6C308.36 144.693 308.541 143.904 308.904 143.232C309.267 142.549 309.768 142.021 310.408 141.648C311.059 141.275 311.8 141.088 312.632 141.088C313.709 141.088 314.595 141.349 315.288 141.872C315.992 142.395 316.456 143.12 316.68 144.048H315.112C314.963 143.515 314.669 143.093 314.232 142.784C313.805 142.475 313.272 142.32 312.632 142.32C311.8 142.32 311.128 142.608 310.616 143.184C310.104 143.749 309.848 144.555 309.848 145.6C309.848 146.656 310.104 147.472 310.616 148.048C311.128 148.624 311.8 148.912 312.632 148.912C313.272 148.912 313.805 148.763 314.232 148.464C314.659 148.165 314.952 147.739 315.112 147.184H316.68C316.445 148.08 315.976 148.8 315.272 149.344C314.568 149.877 313.688 150.144 312.632 150.144C311.8 150.144 311.059 149.957 310.408 149.584C309.768 149.211 309.267 148.683 308.904 148C308.541 147.317 308.36 146.517 308.36 145.6ZM320.399 142.432V147.6C320.399 148.027 320.489 148.331 320.671 148.512C320.852 148.683 321.167 148.768 321.615 148.768H322.687V150H321.375C320.564 150 319.956 149.813 319.551 149.44C319.145 149.067 318.943 148.453 318.943 147.6V142.432H317.807V141.232H318.943V139.024H320.399V141.232H322.687V142.432H320.399ZM332.451 145.28C332.451 145.557 332.435 145.851 332.403 146.16H325.395C325.448 147.024 325.741 147.701 326.275 148.192C326.819 148.672 327.475 148.912 328.243 148.912C328.872 148.912 329.395 148.768 329.811 148.48C330.237 148.181 330.536 147.787 330.707 147.296H332.275C332.04 148.139 331.571 148.827 330.867 149.36C330.163 149.883 329.288 150.144 328.243 150.144C327.411 150.144 326.664 149.957 326.003 149.584C325.352 149.211 324.84 148.683 324.467 148C324.093 147.307 323.907 146.507 323.907 145.6C323.907 144.693 324.088 143.899 324.451 143.216C324.813 142.533 325.32 142.011 325.971 141.648C326.632 141.275 327.389 141.088 328.243 141.088C329.075 141.088 329.811 141.269 330.451 141.632C331.091 141.995 331.581 142.496 331.923 143.136C332.275 143.765 332.451 144.48 332.451 145.28ZM330.947 144.976C330.947 144.421 330.824 143.947 330.579 143.552C330.333 143.147 329.997 142.843 329.571 142.64C329.155 142.427 328.691 142.32 328.179 142.32C327.443 142.32 326.813 142.555 326.291 143.024C325.779 143.493 325.485 144.144 325.411 144.976H330.947ZM336.149 142.432V147.6C336.149 148.027 336.239 148.331 336.421 148.512C336.602 148.683 336.917 148.768 337.365 148.768H338.437V150H337.125C336.314 150 335.706 149.813 335.301 149.44C334.895 149.067 334.693 148.453 334.693 147.6V142.432H333.557V141.232H334.693V139.024H336.149V141.232H338.437V142.432H336.149ZM347.977 141.232V150H346.521V148.704C346.243 149.152 345.854 149.504 345.353 149.76C344.862 150.005 344.318 150.128 343.721 150.128C343.038 150.128 342.425 149.989 341.881 149.712C341.337 149.424 340.905 148.997 340.585 148.432C340.275 147.867 340.121 147.179 340.121 146.368V141.232H341.561V146.176C341.561 147.04 341.779 147.707 342.217 148.176C342.654 148.635 343.251 148.864 344.009 148.864C344.787 148.864 345.401 148.624 345.849 148.144C346.297 147.664 346.521 146.965 346.521 146.048V141.232H347.977ZM351.891 142.656C352.147 142.155 352.51 141.765 352.979 141.488C353.459 141.211 354.04 141.072 354.723 141.072V142.576H354.339C352.707 142.576 351.891 143.461 351.891 145.232V150H350.435V141.232H351.891V142.656ZM33.688 175.584C33.688 174.688 33.8693 173.904 34.232 173.232C34.5947 172.549 35.0907 172.021 35.72 171.648C36.36 171.275 37.0693 171.088 37.848 171.088C38.616 171.088 39.2827 171.253 39.848 171.584C40.4133 171.915 40.8347 172.331 41.112 172.832V171.232H42.584V180H41.112V178.368C40.824 178.88 40.392 179.307 39.816 179.648C39.2507 179.979 38.5893 180.144 37.832 180.144C37.0533 180.144 36.3493 179.952 35.72 179.568C35.0907 179.184 34.5947 178.645 34.232 177.952C33.8693 177.259 33.688 176.469 33.688 175.584ZM41.112 175.6C41.112 174.939 40.9787 174.363 40.712 173.872C40.4453 173.381 40.0827 173.008 39.624 172.752C39.176 172.485 38.68 172.352 38.136 172.352C37.592 172.352 37.096 172.48 36.648 172.736C36.2 172.992 35.8427 173.365 35.576 173.856C35.3093 174.347 35.176 174.923 35.176 175.584C35.176 176.256 35.3093 176.843 35.576 177.344C35.8427 177.835 36.2 178.213 36.648 178.48C37.096 178.736 37.592 178.864 38.136 178.864C38.68 178.864 39.176 178.736 39.624 178.48C40.0827 178.213 40.4453 177.835 40.712 177.344C40.9787 176.843 41.112 176.261 41.112 175.6ZM44.5005 175.584C44.5005 174.688 44.6818 173.904 45.0445 173.232C45.4072 172.549 45.9032 172.021 46.5325 171.648C47.1725 171.275 47.8872 171.088 48.6765 171.088C49.3592 171.088 49.9938 171.248 50.5805 171.568C51.1672 171.877 51.6152 172.288 51.9245 172.8V168.16H53.3965V180H51.9245V178.352C51.6365 178.875 51.2098 179.307 50.6445 179.648C50.0792 179.979 49.4178 180.144 48.6605 180.144C47.8818 180.144 47.1725 179.952 46.5325 179.568C45.9032 179.184 45.4072 178.645 45.0445 177.952C44.6818 177.259 44.5005 176.469 44.5005 175.584ZM51.9245 175.6C51.9245 174.939 51.7912 174.363 51.5245 173.872C51.2578 173.381 50.8952 173.008 50.4365 172.752C49.9885 172.485 49.4925 172.352 48.9485 172.352C48.4045 172.352 47.9085 172.48 47.4605 172.736C47.0125 172.992 46.6552 173.365 46.3885 173.856C46.1218 174.347 45.9885 174.923 45.9885 175.584C45.9885 176.256 46.1218 176.843 46.3885 177.344C46.6552 177.835 47.0125 178.213 47.4605 178.48C47.9085 178.736 48.4045 178.864 48.9485 178.864C49.4925 178.864 49.9885 178.736 50.4365 178.48C50.8952 178.213 51.2578 177.835 51.5245 177.344C51.7912 176.843 51.9245 176.261 51.9245 175.6ZM56.609 169.808C56.3317 169.808 56.097 169.712 55.905 169.52C55.713 169.328 55.617 169.093 55.617 168.816C55.617 168.539 55.713 168.304 55.905 168.112C56.097 167.92 56.3317 167.824 56.609 167.824C56.8757 167.824 57.0997 167.92 57.281 168.112C57.473 168.304 57.569 168.539 57.569 168.816C57.569 169.093 57.473 169.328 57.281 169.52C57.0997 169.712 56.8757 169.808 56.609 169.808ZM57.313 171.232V180H55.857V171.232H57.313ZM61.2505 172.848C61.5385 172.347 61.9652 171.931 62.5305 171.6C63.1065 171.259 63.7732 171.088 64.5305 171.088C65.3092 171.088 66.0132 171.275 66.6425 171.648C67.2825 172.021 67.7838 172.549 68.1465 173.232C68.5092 173.904 68.6905 174.688 68.6905 175.584C68.6905 176.469 68.5092 177.259 68.1465 177.952C67.7838 178.645 67.2825 179.184 66.6425 179.568C66.0132 179.952 65.3092 180.144 64.5305 180.144C63.7838 180.144 63.1225 179.979 62.5465 179.648C61.9812 179.307 61.5492 178.885 61.2505 178.384V184.16H59.7945V171.232H61.2505V172.848ZM67.2025 175.584C67.2025 174.923 67.0692 174.347 66.8025 173.856C66.5358 173.365 66.1732 172.992 65.7145 172.736C65.2665 172.48 64.7705 172.352 64.2265 172.352C63.6932 172.352 63.1972 172.485 62.7385 172.752C62.2905 173.008 61.9278 173.387 61.6505 173.888C61.3838 174.379 61.2505 174.949 61.2505 175.6C61.2505 176.261 61.3838 176.843 61.6505 177.344C61.9278 177.835 62.2905 178.213 62.7385 178.48C63.1972 178.736 63.6932 178.864 64.2265 178.864C64.7705 178.864 65.2665 178.736 65.7145 178.48C66.1732 178.213 66.5358 177.835 66.8025 177.344C67.0692 176.843 67.2025 176.256 67.2025 175.584ZM71.359 169.808C71.0817 169.808 70.847 169.712 70.655 169.52C70.463 169.328 70.367 169.093 70.367 168.816C70.367 168.539 70.463 168.304 70.655 168.112C70.847 167.92 71.0817 167.824 71.359 167.824C71.6257 167.824 71.8497 167.92 72.031 168.112C72.223 168.304 72.319 168.539 72.319 168.816C72.319 169.093 72.223 169.328 72.031 169.52C71.8497 169.712 71.6257 169.808 71.359 169.808ZM72.063 171.232V180H70.607V171.232H72.063ZM77.6485 180.144C76.9765 180.144 76.3738 180.032 75.8405 179.808C75.3072 179.573 74.8858 179.253 74.5765 178.848C74.2672 178.432 74.0965 177.957 74.0645 177.424H75.5685C75.6112 177.861 75.8138 178.219 76.1765 178.496C76.5498 178.773 77.0352 178.912 77.6325 178.912C78.1872 178.912 78.6245 178.789 78.9445 178.544C79.2645 178.299 79.4245 177.989 79.4245 177.616C79.4245 177.232 79.2538 176.949 78.9125 176.768C78.5712 176.576 78.0432 176.389 77.3285 176.208C76.6778 176.037 76.1445 175.867 75.7285 175.696C75.3232 175.515 74.9712 175.253 74.6725 174.912C74.3845 174.56 74.2405 174.101 74.2405 173.536C74.2405 173.088 74.3738 172.677 74.6405 172.304C74.9072 171.931 75.2858 171.637 75.7765 171.424C76.2672 171.2 76.8272 171.088 77.4565 171.088C78.4272 171.088 79.2112 171.333 79.8085 171.824C80.4058 172.315 80.7258 172.987 80.7685 173.84H79.3125C79.2805 173.381 79.0938 173.013 78.7525 172.736C78.4218 172.459 77.9738 172.32 77.4085 172.32C76.8858 172.32 76.4698 172.432 76.1605 172.656C75.8512 172.88 75.6965 173.173 75.6965 173.536C75.6965 173.824 75.7872 174.064 75.9685 174.256C76.1605 174.437 76.3952 174.587 76.6725 174.704C76.9605 174.811 77.3552 174.933 77.8565 175.072C78.4858 175.243 78.9978 175.413 79.3925 175.584C79.7872 175.744 80.1232 175.989 80.4005 176.32C80.6885 176.651 80.8378 177.083 80.8485 177.616C80.8485 178.096 80.7152 178.528 80.4485 178.912C80.1818 179.296 79.8032 179.6 79.3125 179.824C78.8325 180.037 78.2778 180.144 77.6485 180.144ZM82.3599 175.6C82.3599 174.693 82.5412 173.904 82.9039 173.232C83.2665 172.549 83.7679 172.021 84.4079 171.648C85.0585 171.275 85.7999 171.088 86.6319 171.088C87.7092 171.088 88.5945 171.349 89.2879 171.872C89.9919 172.395 90.4559 173.12 90.6799 174.048H89.1119C88.9625 173.515 88.6692 173.093 88.2319 172.784C87.8052 172.475 87.2719 172.32 86.6319 172.32C85.7999 172.32 85.1279 172.608 84.6159 173.184C84.1039 173.749 83.8479 174.555 83.8479 175.6C83.8479 176.656 84.1039 177.472 84.6159 178.048C85.1279 178.624 85.7999 178.912 86.6319 178.912C87.2719 178.912 87.8052 178.763 88.2319 178.464C88.6585 178.165 88.9519 177.739 89.1119 177.184H90.6799C90.4452 178.08 89.9759 178.8 89.2719 179.344C88.5679 179.877 87.6879 180.144 86.6319 180.144C85.7999 180.144 85.0585 179.957 84.4079 179.584C83.7679 179.211 83.2665 178.683 82.9039 178C82.5412 177.317 82.3599 176.517 82.3599 175.6ZM93.3746 169.808C93.0973 169.808 92.8626 169.712 92.6706 169.52C92.4786 169.328 92.3826 169.093 92.3826 168.816C92.3826 168.539 92.4786 168.304 92.6706 168.112C92.8626 167.92 93.0973 167.824 93.3746 167.824C93.6413 167.824 93.8653 167.92 94.0466 168.112C94.2386 168.304 94.3346 168.539 94.3346 168.816C94.3346 169.093 94.2386 169.328 94.0466 169.52C93.8653 169.712 93.6413 169.808 93.3746 169.808ZM94.0786 171.232V180H92.6226V171.232H94.0786ZM100.832 171.072C101.899 171.072 102.763 171.397 103.424 172.048C104.085 172.688 104.416 173.616 104.416 174.832V180H102.976V175.04C102.976 174.165 102.757 173.499 102.32 173.04C101.883 172.571 101.285 172.336 100.528 172.336C99.7601 172.336 99.1468 172.576 98.6881 173.056C98.2401 173.536 98.0161 174.235 98.0161 175.152V180H96.5601V171.232H98.0161V172.48C98.3041 172.032 98.6935 171.685 99.1841 171.44C99.6855 171.195 100.235 171.072 100.832 171.072ZM110.411 171.088C111.168 171.088 111.829 171.253 112.395 171.584C112.971 171.915 113.397 172.331 113.675 172.832V171.232H115.147V180.192C115.147 180.992 114.976 181.701 114.635 182.32C114.293 182.949 113.803 183.44 113.163 183.792C112.533 184.144 111.797 184.32 110.955 184.32C109.803 184.32 108.843 184.048 108.075 183.504C107.307 182.96 106.853 182.219 106.715 181.28H108.155C108.315 181.813 108.645 182.24 109.147 182.56C109.648 182.891 110.251 183.056 110.955 183.056C111.755 183.056 112.405 182.805 112.907 182.304C113.419 181.803 113.675 181.099 113.675 180.192V178.352C113.387 178.864 112.96 179.291 112.395 179.632C111.829 179.973 111.168 180.144 110.411 180.144C109.632 180.144 108.923 179.952 108.283 179.568C107.653 179.184 107.157 178.645 106.795 177.952C106.432 177.259 106.251 176.469 106.251 175.584C106.251 174.688 106.432 173.904 106.795 173.232C107.157 172.549 107.653 172.021 108.283 171.648C108.923 171.275 109.632 171.088 110.411 171.088ZM113.675 175.6C113.675 174.939 113.541 174.363 113.275 173.872C113.008 173.381 112.645 173.008 112.187 172.752C111.739 172.485 111.243 172.352 110.699 172.352C110.155 172.352 109.659 172.48 109.211 172.736C108.763 172.992 108.405 173.365 108.139 173.856C107.872 174.347 107.739 174.923 107.739 175.584C107.739 176.256 107.872 176.843 108.139 177.344C108.405 177.835 108.763 178.213 109.211 178.48C109.659 178.736 110.155 178.864 110.699 178.864C111.243 178.864 111.739 178.736 112.187 178.48C112.645 178.213 113.008 177.835 113.275 177.344C113.541 176.843 113.675 176.261 113.675 175.6ZM129.873 175.28C129.873 175.557 129.857 175.851 129.825 176.16H122.817C122.87 177.024 123.163 177.701 123.697 178.192C124.241 178.672 124.897 178.912 125.665 178.912C126.294 178.912 126.817 178.768 127.233 178.48C127.659 178.181 127.958 177.787 128.129 177.296H129.697C129.462 178.139 128.993 178.827 128.289 179.36C127.585 179.883 126.71 180.144 125.665 180.144C124.833 180.144 124.086 179.957 123.425 179.584C122.774 179.211 122.262 178.683 121.889 178C121.515 177.307 121.329 176.507 121.329 175.6C121.329 174.693 121.51 173.899 121.873 173.216C122.235 172.533 122.742 172.011 123.393 171.648C124.054 171.275 124.811 171.088 125.665 171.088C126.497 171.088 127.233 171.269 127.873 171.632C128.513 171.995 129.003 172.496 129.345 173.136C129.697 173.765 129.873 174.48 129.873 175.28ZM128.369 174.976C128.369 174.421 128.246 173.947 128.001 173.552C127.755 173.147 127.419 172.843 126.993 172.64C126.577 172.427 126.113 172.32 125.601 172.32C124.865 172.32 124.235 172.555 123.713 173.024C123.201 173.493 122.907 174.144 122.833 174.976H128.369ZM133.251 168.16V180H131.795V168.16H133.251ZM136.484 169.808C136.207 169.808 135.972 169.712 135.78 169.52C135.588 169.328 135.492 169.093 135.492 168.816C135.492 168.539 135.588 168.304 135.78 168.112C135.972 167.92 136.207 167.824 136.484 167.824C136.751 167.824 136.975 167.92 137.156 168.112C137.348 168.304 137.444 168.539 137.444 168.816C137.444 169.093 137.348 169.328 137.156 169.52C136.975 169.712 136.751 169.808 136.484 169.808ZM137.188 171.232V180H135.732V171.232H137.188ZM141.446 172.432V177.6C141.446 178.027 141.536 178.331 141.718 178.512C141.899 178.683 142.214 178.768 142.661 178.768H143.734V180H142.422C141.611 180 141.003 179.813 140.598 179.44C140.192 179.067 139.99 178.453 139.99 177.6V172.432H138.854V171.232H139.99V169.024H141.446V171.232H143.734V172.432H141.446ZM145.962 180.096C145.684 180.096 145.45 180 145.258 179.808C145.066 179.616 144.97 179.381 144.97 179.104C144.97 178.827 145.066 178.592 145.258 178.4C145.45 178.208 145.684 178.112 145.962 178.112C146.228 178.112 146.452 178.208 146.634 178.4C146.826 178.592 146.922 178.827 146.922 179.104C146.922 179.381 146.826 179.616 146.634 179.808C146.452 180 146.228 180.096 145.962 180.096Z" fill="white" fill-opacity="0.55"/>
<g opacity="0.78" clip-path="url(#clip0_42_16)">
<path fill-rule="evenodd" clip-rule="evenodd" d="M46.6717 74.2192C46.6724 75.0975 46.4967 75.9674 46.1546 76.779C45.8125 77.5906 45.3108 78.328 44.6781 78.949C44.0454 79.57 43.2942 80.0624 42.4675 80.3979C41.6408 80.7335 40.7548 80.9057 39.8602 80.9046C38.9661 80.905 38.0807 80.7323 37.2546 80.3964C36.4286 80.0605 35.678 79.568 35.0459 78.9471C34.4138 78.3262 33.9125 77.5891 33.5708 76.7778C33.229 75.9665 33.0535 75.0971 33.0542 74.2192C33.0535 73.341 33.2291 72.4714 33.571 71.6599C33.913 70.8485 34.4145 70.1112 35.0468 69.4903C35.6792 68.8693 36.4301 68.3769 37.2565 68.0412C38.0829 67.7054 38.9686 67.533 39.863 67.5337H46.6744V74.2192H46.6717ZM50.0761 74.2192C50.0754 73.341 50.251 72.4714 50.5929 71.6599C50.9348 70.8485 51.4363 70.1112 52.0687 69.4903C52.7011 68.8693 53.452 68.3769 54.2784 68.0412C55.1048 67.7054 55.9905 67.533 56.8848 67.5337C57.7792 67.533 58.6649 67.7054 59.4913 68.0412C60.3177 68.3769 61.0685 68.8693 61.7009 69.4903C62.3333 70.1112 62.8348 70.8485 63.1767 71.6599C63.5187 72.4714 63.6943 73.341 63.6936 74.2192V90.9355C63.6943 91.8136 63.5187 92.6833 63.1767 93.4947C62.8348 94.3062 62.3333 95.0435 61.7009 95.6644C61.0685 96.2853 60.3177 96.7778 59.4913 97.1135C58.6649 97.4492 57.7792 97.6217 56.8848 97.621C55.9905 97.6217 55.1048 97.4492 54.2784 97.1135C53.452 96.7778 52.7011 96.2853 52.0687 95.6644C51.4363 95.0435 50.9348 94.3062 50.5929 93.4947C50.251 92.6833 50.0754 91.8136 50.0761 90.9355V74.2192Z" fill="#E01E5A"/>
<path fill-rule="evenodd" clip-rule="evenodd" d="M56.8848 47.3736C55.9902 47.3743 55.1043 47.2018 54.2777 46.8659C53.4512 46.53 52.7002 46.0373 52.0677 45.4161C51.4353 44.7949 50.9339 44.0573 50.5921 43.2455C50.2503 42.4338 50.075 41.5638 50.076 40.6855C50.0753 39.8073 50.251 38.9377 50.5929 38.1262C50.9348 37.3148 51.4363 36.5775 52.0687 35.9566C52.7011 35.3356 53.452 34.8432 54.2784 34.5075C55.1048 34.1718 55.9905 33.9993 56.8848 34C57.7791 33.9993 58.6648 34.1718 59.4912 34.5075C60.3176 34.8432 61.0685 35.3356 61.7009 35.9566C62.3333 36.5775 62.8348 37.3148 63.1767 38.1262C63.5186 38.9377 63.6943 39.8073 63.6935 40.6855V47.3763H56.8875L56.8848 47.3736ZM56.8848 50.7669C57.7791 50.7662 58.6648 50.9386 59.4912 51.2743C60.3176 51.6101 61.0685 52.1025 61.7009 52.7234C62.3333 53.3444 62.8348 54.0817 63.1767 54.8931C63.5186 55.7045 63.6943 56.5742 63.6935 57.4523C63.6943 58.3305 63.5186 59.2001 63.1767 60.0116C62.8348 60.823 62.3333 61.5603 61.7009 62.1812C61.0685 62.8022 60.3176 63.2946 59.4912 63.6303C58.6648 63.9661 57.7791 64.1385 56.8848 64.1378H39.8088C38.9146 64.1385 38.0292 63.9662 37.2029 63.6306C36.3767 63.295 35.626 62.8028 34.9936 62.1822C34.3613 61.5615 33.8597 60.8246 33.5176 60.0134C33.1755 59.2023 32.9996 58.3329 33 57.455C32.9993 56.5769 33.1749 55.7072 33.5168 54.8958C33.8588 54.0843 34.3603 53.347 34.9927 52.7261C35.625 52.1052 36.3759 51.6127 37.2023 51.277C38.0287 50.9413 38.9144 50.7688 39.8088 50.7695H56.8875L56.8848 50.7669Z" fill="#36C5F0"/>
<path fill-rule="evenodd" clip-rule="evenodd" d="M84.1738 57.4523C84.1731 56.574 84.3488 55.7041 84.6909 54.8925C85.0329 54.0809 85.5347 53.3435 86.1674 52.7225C86.8 52.1015 87.5512 51.6092 88.378 51.2736C89.2047 50.938 90.0907 50.7658 90.9852 50.7669C91.8796 50.7662 92.7653 50.9386 93.5917 51.2743C94.4181 51.6101 95.1689 52.1025 95.8013 52.7234C96.4337 53.3444 96.9352 54.0817 97.2771 54.8931C97.6191 55.7045 97.7947 56.5742 97.794 57.4523C97.7947 58.3305 97.6191 59.2002 97.2771 60.0116C96.9352 60.823 96.4337 61.5603 95.8013 62.1812C95.1689 62.8022 94.4181 63.2946 93.5917 63.6303C92.7653 63.9661 91.8796 64.1385 90.9852 64.1378H84.1738V57.455V57.4523ZM80.7694 57.4523C80.7701 58.3305 80.5945 59.2002 80.2526 60.0116C79.9106 60.823 79.4091 61.5603 78.7767 62.1812C78.1444 62.8022 77.3935 63.2946 76.5671 63.6303C75.7407 63.9661 74.855 64.1385 73.9606 64.1378C73.0661 64.1389 72.1801 63.9667 71.3534 63.6311C70.5267 63.2955 69.7755 62.8032 69.1428 62.1822C68.5101 61.5612 68.0084 60.8238 67.6663 60.0122C67.3242 59.2006 67.1485 58.3307 67.1492 57.4523V40.6855C67.1485 39.8071 67.3242 38.9372 67.6663 38.1256C68.0084 37.314 68.5101 36.5766 69.1428 35.9556C69.7755 35.3347 70.5267 34.8423 71.3534 34.5067C72.1801 34.1711 73.0661 33.999 73.9606 34C74.855 33.9993 75.7407 34.1718 76.5671 34.5075C77.3935 34.8432 78.1444 35.3356 78.7767 35.9566C79.4091 36.5775 79.9106 37.3148 80.2526 38.1262C80.5945 38.9377 80.7701 39.8073 80.7694 40.6855V57.455V57.4523Z" fill="#2EB67D"/>
<path fill-rule="evenodd" clip-rule="evenodd" d="M73.9606 84.2474C74.8549 84.2467 75.7406 84.4191 76.567 84.7548C77.3934 85.0906 78.1443 85.583 78.7767 86.2039C79.4091 86.8249 79.9106 87.5622 80.2525 88.3736C80.5944 89.185 80.7701 90.0547 80.7693 90.9328C80.7704 91.8112 80.5951 92.6812 80.2533 93.4929C79.9115 94.3046 79.4101 95.0422 78.7777 95.6635C78.1452 96.2847 77.3942 96.7773 76.5677 97.1132C75.7411 97.4491 74.8552 97.6217 73.9606 97.621C73.066 97.6217 72.1801 97.4491 71.3535 97.1132C70.527 96.7773 69.776 96.2847 69.1435 95.6635C68.5111 95.0422 68.0097 94.3046 67.6679 93.4929C67.3261 92.6812 67.1508 91.8112 67.1518 90.9328V84.2474H73.9606ZM73.9606 80.9046C73.0663 80.9053 72.1806 80.7329 71.3542 80.3972C70.5278 80.0614 69.7769 79.569 69.1445 78.9481C68.5121 78.3271 68.0106 77.5898 67.6687 76.7784C67.3268 75.967 67.1511 75.0973 67.1518 74.2192C67.1511 73.341 67.3268 72.4714 67.6687 71.6599C68.0106 70.8485 68.5121 70.1112 69.1445 69.4903C69.7769 68.8693 70.5278 68.3769 71.3542 68.0412C72.1806 67.7054 73.0663 67.533 73.9606 67.5337H91.0366C91.931 67.533 92.8167 67.7054 93.6431 68.0412C94.4695 68.3769 95.2203 68.8693 95.8527 69.4903C96.4851 70.1112 96.9866 70.8485 97.3286 71.6599C97.6705 72.4714 97.8461 73.341 97.8454 74.2192C97.8461 75.0973 97.6705 75.967 97.3286 76.7784C96.9866 77.5898 96.4851 78.3271 95.8527 78.9481C95.2203 79.569 94.4695 80.0614 93.6431 80.3972C92.8167 80.7329 91.931 80.9053 91.0366 80.9046H73.9606Z" fill="#ECB22E"/>
</g>
<path d="M135.296 59.168C134.176 59.168 133.168 58.976 132.272 58.592C131.376 58.192 130.672 57.632 130.16 56.912C129.648 56.192 129.392 55.352 129.392 54.392H132.32C132.384 55.112 132.664 55.704 133.16 56.168C133.672 56.632 134.384 56.864 135.296 56.864C136.24 56.864 136.976 56.64 137.504 56.192C138.032 55.728 138.296 55.136 138.296 54.416C138.296 53.856 138.128 53.4 137.792 53.048C137.472 52.696 137.064 52.424 136.568 52.232C136.088 52.04 135.416 51.832 134.552 51.608C133.464 51.32 132.576 51.032 131.888 50.744C131.216 50.44 130.64 49.976 130.16 49.352C129.68 48.728 129.44 47.896 129.44 46.856C129.44 45.896 129.68 45.056 130.16 44.336C130.64 43.616 131.312 43.064 132.176 42.68C133.04 42.296 134.04 42.104 135.176 42.104C136.792 42.104 138.112 42.512 139.136 43.328C140.176 44.128 140.752 45.232 140.864 46.64H137.84C137.792 46.032 137.504 45.512 136.976 45.08C136.448 44.648 135.752 44.432 134.888 44.432C134.104 44.432 133.464 44.632 132.968 45.032C132.472 45.432 132.224 46.008 132.224 46.76C132.224 47.272 132.376 47.696 132.68 48.032C133 48.352 133.4 48.608 133.88 48.8C134.36 48.992 135.016 49.2 135.848 49.424C136.952 49.728 137.848 50.032 138.536 50.336C139.24 50.64 139.832 51.112 140.312 51.752C140.808 52.376 141.056 53.216 141.056 54.272C141.056 55.12 140.824 55.92 140.36 56.672C139.912 57.424 139.248 58.032 138.368 58.496C137.504 58.944 136.48 59.168 135.296 59.168ZM147.02 41.24V59H144.284V41.24H147.02ZM149.701 52.328C149.701 51 149.973 49.824 150.517 48.8C151.077 47.776 151.829 46.984 152.773 46.424C153.733 45.848 154.789 45.56 155.941 45.56C156.981 45.56 157.885 45.768 158.653 46.184C159.437 46.584 160.061 47.088 160.525 47.696V45.776H163.285V59H160.525V57.032C160.061 57.656 159.429 58.176 158.629 58.592C157.829 59.008 156.917 59.216 155.893 59.216C154.757 59.216 153.717 58.928 152.773 58.352C151.829 57.76 151.077 56.944 150.517 55.904C149.973 54.848 149.701 53.656 149.701 52.328ZM160.525 52.376C160.525 51.464 160.333 50.672 159.949 50C159.581 49.328 159.093 48.816 158.485 48.464C157.877 48.112 157.221 47.936 156.517 47.936C155.813 47.936 155.157 48.112 154.549 48.464C153.941 48.8 153.445 49.304 153.061 49.976C152.693 50.632 152.509 51.416 152.509 52.328C152.509 53.24 152.693 54.04 153.061 54.728C153.445 55.416 153.941 55.944 154.549 56.312C155.173 56.664 155.829 56.84 156.517 56.84C157.221 56.84 157.877 56.664 158.485 56.312C159.093 55.96 159.581 55.448 159.949 54.776C160.333 54.088 160.525 53.288 160.525 52.376ZM165.966 52.376C165.966 51.016 166.238 49.824 166.782 48.8C167.342 47.76 168.11 46.96 169.086 46.4C170.062 45.84 171.182 45.56 172.446 45.56C174.046 45.56 175.366 45.944 176.406 46.712C177.462 47.464 178.174 48.544 178.542 49.952H175.59C175.35 49.296 174.966 48.784 174.438 48.416C173.91 48.048 173.246 47.864 172.446 47.864C171.326 47.864 170.43 48.264 169.758 49.064C169.102 49.848 168.774 50.952 168.774 52.376C168.774 53.8 169.102 54.912 169.758 55.712C170.43 56.512 171.326 56.912 172.446 56.912C174.03 56.912 175.078 56.216 175.59 54.824H178.542C178.158 56.168 177.438 57.24 176.382 58.04C175.326 58.824 174.014 59.216 172.446 59.216C171.182 59.216 170.062 58.936 169.086 58.376C168.11 57.8 167.342 57 166.782 55.976C166.238 54.936 165.966 53.736 165.966 52.376ZM186.501 52.4L192.597 59H188.901L184.005 53.312V59H181.269V41.24H184.005V51.56L188.805 45.776H192.597L186.501 52.4Z" fill="white" fill-opacity="0.78"/>
<path d="M136.478 79.454V80.786H131.024V85.016H135.452V86.348H131.024V92H129.386V79.454H136.478ZM140.094 83.738C140.382 83.174 140.79 82.736 141.318 82.424C141.858 82.112 142.512 81.956 143.28 81.956V83.648H142.848C141.012 83.648 140.094 84.644 140.094 86.636V92H138.456V82.136H140.094V83.738ZM154.171 86.69C154.171 87.002 154.153 87.332 154.117 87.68H146.233C146.293 88.652 146.623 89.414 147.223 89.966C147.835 90.506 148.573 90.776 149.437 90.776C150.145 90.776 150.733 90.614 151.201 90.29C151.681 89.954 152.017 89.51 152.209 88.958H153.973C153.709 89.906 153.181 90.68 152.389 91.28C151.597 91.868 150.613 92.162 149.437 92.162C148.501 92.162 147.661 91.952 146.917 91.532C146.185 91.112 145.609 90.518 145.189 89.75C144.769 88.97 144.559 88.07 144.559 87.05C144.559 86.03 144.763 85.136 145.171 84.368C145.579 83.6 146.149 83.012 146.881 82.604C147.625 82.184 148.477 81.974 149.437 81.974C150.373 81.974 151.201 82.178 151.921 82.586C152.641 82.994 153.193 83.558 153.577 84.278C153.973 84.986 154.171 85.79 154.171 86.69ZM152.479 86.348C152.479 85.724 152.341 85.19 152.065 84.746C151.789 84.29 151.411 83.948 150.931 83.72C150.463 83.48 149.941 83.36 149.365 83.36C148.537 83.36 147.829 83.624 147.241 84.152C146.665 84.68 146.335 85.412 146.251 86.348H152.479ZM165.333 86.69C165.333 87.002 165.315 87.332 165.279 87.68H157.395C157.455 88.652 157.785 89.414 158.385 89.966C158.997 90.506 159.735 90.776 160.599 90.776C161.307 90.776 161.895 90.614 162.363 90.29C162.843 89.954 163.179 89.51 163.371 88.958H165.135C164.871 89.906 164.343 90.68 163.551 91.28C162.759 91.868 161.775 92.162 160.599 92.162C159.663 92.162 158.823 91.952 158.079 91.532C157.347 91.112 156.771 90.518 156.351 89.75C155.931 88.97 155.721 88.07 155.721 87.05C155.721 86.03 155.925 85.136 156.333 84.368C156.741 83.6 157.311 83.012 158.043 82.604C158.787 82.184 159.639 81.974 160.599 81.974C161.535 81.974 162.363 82.178 163.083 82.586C163.803 82.994 164.355 83.558 164.739 84.278C165.135 84.986 165.333 85.79 165.333 86.69ZM163.641 86.348C163.641 85.724 163.503 85.19 163.227 84.746C162.951 84.29 162.573 83.948 162.093 83.72C161.625 83.48 161.103 83.36 160.527 83.36C159.699 83.36 158.991 83.624 158.403 84.152C157.827 84.68 157.497 85.412 157.413 86.348H163.641ZM181.924 92L180.286 90.344C179.674 90.98 179.02 91.454 178.324 91.766C177.628 92.066 176.842 92.216 175.966 92.216C175.102 92.216 174.334 92.06 173.662 91.748C173.002 91.436 172.486 90.992 172.114 90.416C171.754 89.84 171.574 89.168 171.574 88.4C171.574 87.524 171.82 86.756 172.312 86.096C172.816 85.424 173.554 84.896 174.526 84.512C174.142 84.056 173.866 83.636 173.698 83.252C173.53 82.868 173.446 82.448 173.446 81.992C173.446 81.464 173.578 80.99 173.842 80.57C174.118 80.138 174.508 79.802 175.012 79.562C175.516 79.322 176.098 79.202 176.758 79.202C177.406 79.202 177.97 79.328 178.45 79.58C178.93 79.832 179.29 80.186 179.53 80.642C179.77 81.086 179.878 81.584 179.854 82.136H178.216C178.228 81.644 178.09 81.26 177.802 80.984C177.514 80.696 177.142 80.552 176.686 80.552C176.206 80.552 175.816 80.69 175.516 80.966C175.228 81.23 175.084 81.572 175.084 81.992C175.084 82.352 175.18 82.7 175.372 83.036C175.576 83.372 175.912 83.786 176.38 84.278L180.124 88.04L180.448 87.536L181.672 85.484H183.436L181.96 88.04C181.756 88.4 181.516 88.778 181.24 89.174L184.066 92H181.924ZM175.966 90.812C176.614 90.812 177.196 90.686 177.712 90.434C178.24 90.182 178.738 89.792 179.206 89.264L175.516 85.556C173.98 86.144 173.212 87.074 173.212 88.346C173.212 89.054 173.464 89.642 173.968 90.11C174.484 90.578 175.15 90.812 175.966 90.812ZM198.788 83.126C198.788 84.17 198.428 85.04 197.708 85.736C197 86.42 195.914 86.762 194.45 86.762H192.038V92H190.4V79.454H194.45C195.866 79.454 196.94 79.796 197.672 80.48C198.416 81.164 198.788 82.046 198.788 83.126ZM194.45 85.412C195.362 85.412 196.034 85.214 196.466 84.818C196.898 84.422 197.114 83.858 197.114 83.126C197.114 81.578 196.226 80.804 194.45 80.804H192.038V85.412H194.45ZM200.212 87.032C200.212 86.024 200.416 85.142 200.824 84.386C201.232 83.618 201.79 83.024 202.498 82.604C203.218 82.184 204.016 81.974 204.892 81.974C205.756 81.974 206.506 82.16 207.142 82.532C207.778 82.904 208.252 83.372 208.564 83.936V82.136H210.22V92H208.564V90.164C208.24 90.74 207.754 91.22 207.106 91.604C206.47 91.976 205.726 92.162 204.874 92.162C203.998 92.162 203.206 91.946 202.498 91.514C201.79 91.082 201.232 90.476 200.824 89.696C200.416 88.916 200.212 88.028 200.212 87.032ZM208.564 87.05C208.564 86.306 208.414 85.658 208.114 85.106C207.814 84.554 207.406 84.134 206.89 83.846C206.386 83.546 205.828 83.396 205.216 83.396C204.604 83.396 204.046 83.54 203.542 83.828C203.038 84.116 202.636 84.536 202.336 85.088C202.036 85.64 201.886 86.288 201.886 87.032C201.886 87.788 202.036 88.448 202.336 89.012C202.636 89.564 203.038 89.99 203.542 90.29C204.046 90.578 204.604 90.722 205.216 90.722C205.828 90.722 206.386 90.578 206.89 90.29C207.406 89.99 207.814 89.564 208.114 89.012C208.414 88.448 208.564 87.794 208.564 87.05ZM213.834 80.534C213.522 80.534 213.258 80.426 213.042 80.21C212.826 79.994 212.718 79.73 212.718 79.418C212.718 79.106 212.826 78.842 213.042 78.626C213.258 78.41 213.522 78.302 213.834 78.302C214.134 78.302 214.386 78.41 214.59 78.626C214.806 78.842 214.914 79.106 214.914 79.418C214.914 79.73 214.806 79.994 214.59 80.21C214.386 80.426 214.134 80.534 213.834 80.534ZM214.626 82.136V92H212.988V82.136H214.626ZM216.805 87.032C216.805 86.024 217.009 85.142 217.417 84.386C217.825 83.618 218.383 83.024 219.091 82.604C219.811 82.184 220.615 81.974 221.503 81.974C222.271 81.974 222.985 82.154 223.645 82.514C224.305 82.862 224.809 83.324 225.157 83.9V78.68H226.813V92H225.157V90.146C224.833 90.734 224.353 91.22 223.717 91.604C223.081 91.976 222.337 92.162 221.485 92.162C220.609 92.162 219.811 91.946 219.091 91.514C218.383 91.082 217.825 90.476 217.417 89.696C217.009 88.916 216.805 88.028 216.805 87.032ZM225.157 87.05C225.157 86.306 225.007 85.658 224.707 85.106C224.407 84.554 223.999 84.134 223.483 83.846C222.979 83.546 222.421 83.396 221.809 83.396C221.197 83.396 220.639 83.54 220.135 83.828C219.631 84.116 219.229 84.536 218.929 85.088C218.629 85.64 218.479 86.288 218.479 87.032C218.479 87.788 218.629 88.448 218.929 89.012C219.229 89.564 219.631 89.99 220.135 90.29C220.639 90.578 221.197 90.722 221.809 90.722C222.421 90.722 222.979 90.578 223.483 90.29C223.999 89.99 224.407 89.564 224.707 89.012C225.007 88.448 225.157 87.794 225.157 87.05Z" fill="#FFA537" fill-opacity="0.55"/>
<rect x="253" y="219" width="106" height="42" rx="8" fill="#1E252B"/>
<path d="M299.136 234.832L295.04 246H292.32L288.224 234.832H290.624L293.696 243.712L296.752 234.832H299.136ZM301.615 236.08C301.22 236.08 300.89 235.957 300.623 235.712C300.367 235.456 300.239 235.141 300.239 234.768C300.239 234.395 300.367 234.085 300.623 233.84C300.89 233.584 301.22 233.456 301.615 233.456C302.01 233.456 302.335 233.584 302.591 233.84C302.858 234.085 302.991 234.395 302.991 234.768C302.991 235.141 302.858 235.456 302.591 235.712C302.335 235.957 302.01 236.08 301.615 236.08ZM302.719 237.136V246H300.479V237.136H302.719ZM308.324 246.144C307.599 246.144 306.948 246.016 306.372 245.76C305.796 245.493 305.337 245.136 304.996 244.688C304.665 244.24 304.484 243.744 304.452 243.2H306.708C306.751 243.541 306.916 243.824 307.204 244.048C307.503 244.272 307.871 244.384 308.308 244.384C308.735 244.384 309.065 244.299 309.3 244.128C309.545 243.957 309.668 243.739 309.668 243.472C309.668 243.184 309.519 242.971 309.22 242.832C308.932 242.683 308.468 242.523 307.828 242.352C307.167 242.192 306.623 242.027 306.196 241.856C305.78 241.685 305.417 241.424 305.108 241.072C304.809 240.72 304.66 240.245 304.66 239.648C304.66 239.157 304.799 238.709 305.076 238.304C305.364 237.899 305.769 237.579 306.292 237.344C306.825 237.109 307.449 236.992 308.164 236.992C309.22 236.992 310.063 237.259 310.692 237.792C311.321 238.315 311.668 239.024 311.732 239.92H309.588C309.556 239.568 309.407 239.291 309.14 239.088C308.884 238.875 308.537 238.768 308.1 238.768C307.695 238.768 307.38 238.843 307.156 238.992C306.943 239.141 306.836 239.349 306.836 239.616C306.836 239.915 306.985 240.144 307.284 240.304C307.583 240.453 308.047 240.608 308.676 240.768C309.316 240.928 309.844 241.093 310.26 241.264C310.676 241.435 311.033 241.701 311.332 242.064C311.641 242.416 311.801 242.885 311.812 243.472C311.812 243.984 311.668 244.443 311.38 244.848C311.103 245.253 310.697 245.573 310.164 245.808C309.641 246.032 309.028 246.144 308.324 246.144ZM314.787 236.08C314.392 236.08 314.062 235.957 313.795 235.712C313.539 235.456 313.411 235.141 313.411 234.768C313.411 234.395 313.539 234.085 313.795 233.84C314.062 233.584 314.392 233.456 314.787 233.456C315.182 233.456 315.507 233.584 315.763 233.84C316.03 234.085 316.163 234.395 316.163 234.768C316.163 235.141 316.03 235.456 315.763 235.712C315.507 235.957 315.182 236.08 314.787 236.08ZM315.891 237.136V246H313.651V237.136H315.891ZM320.712 238.976V243.264C320.712 243.563 320.781 243.781 320.92 243.92C321.069 244.048 321.315 244.112 321.656 244.112H322.696V246H321.288C319.4 246 318.456 245.083 318.456 243.248V238.976H317.4V237.136H318.456V234.944H320.712V237.136H322.696V238.976H320.712Z" fill="white" fill-opacity="0.55"/>
<rect x="33" y="219" width="42" height="42" rx="8" fill="#1E252B"/>
<path d="M59.8333 231.25C57.3833 231.25 55.225 232.475 54 234.4C52.775 232.475 50.6167 231.25 48.1667 231.25C44.3167 231.25 41.1667 234.4 41.1667 238.25C41.1667 245.192 54 252.25 54 252.25C54 252.25 66.8333 245.25 66.8333 238.25C66.8333 234.4 63.6833 231.25 59.8333 231.25Z" fill="white" fill-opacity="0.38"/>
<rect x="87" y="219" width="42" height="42" rx="8" fill="#1E252B"/>
<path d="M110.5 242.25H109.25V241C109.25 240.668 109.118 240.351 108.884 240.116C108.649 239.882 108.332 239.75 108 239.75C107.668 239.75 107.351 239.882 107.116 240.116C106.882 240.351 106.75 240.668 106.75 241V242.25H105.5C105.168 242.25 104.851 242.382 104.616 242.616C104.382 242.851 104.25 243.168 104.25 243.5C104.25 243.832 104.382 244.149 104.616 244.384C104.851 244.618 105.168 244.75 105.5 244.75H106.75V246C106.75 246.332 106.882 246.649 107.116 246.884C107.351 247.118 107.668 247.25 108 247.25C108.332 247.25 108.649 247.118 108.884 246.884C109.118 246.649 109.25 246.332 109.25 246V244.75H110.5C110.832 244.75 111.149 244.618 111.384 244.384C111.618 244.149 111.75 243.832 111.75 243.5C111.75 243.168 111.618 242.851 111.384 242.616C111.149 242.382 110.832 242.25 110.5 242.25Z" fill="white" fill-opacity="0.38"/>
<path d="M117.375 234.812H108.625L105.338 230.837C105.221 230.694 105.075 230.578 104.908 230.498C104.742 230.418 104.56 230.376 104.375 230.375H98.625C97.8083 230.365 97.0208 230.679 96.4351 231.248C95.8494 231.818 95.5132 232.596 95.5 233.412V248.587C95.5132 249.404 95.8494 250.182 96.4351 250.752C97.0208 251.321 97.8083 251.635 98.625 251.625H117.375C118.192 251.635 118.979 251.321 119.565 250.752C120.151 250.182 120.487 249.404 120.5 248.587V237.85C120.487 237.033 120.151 236.255 119.565 235.686C118.979 235.116 118.192 234.802 117.375 234.812ZM118 248.562C117.995 248.639 117.975 248.714 117.941 248.783C117.907 248.852 117.859 248.913 117.801 248.963C117.743 249.013 117.675 249.051 117.602 249.075C117.529 249.098 117.452 249.107 117.375 249.1H98.625C98.5485 249.107 98.4713 249.098 98.3982 249.075C98.325 249.051 98.2573 249.013 98.199 248.963C98.1407 248.913 98.0931 248.852 98.0589 248.783C98.0247 248.714 98.0047 248.639 98 248.562V233.412C98.0047 233.336 98.0247 233.261 98.0589 233.192C98.0931 233.123 98.1407 233.062 98.199 233.012C98.2573 232.962 98.325 232.924 98.3982 232.9C98.4713 232.877 98.5485 232.868 98.625 232.875H103.788L107.038 236.85C107.154 236.993 107.3 237.109 107.467 237.189C107.633 237.269 107.815 237.311 108 237.312H117.375C117.452 237.306 117.529 237.314 117.602 237.338C117.675 237.361 117.743 237.399 117.801 237.449C117.859 237.499 117.907 237.561 117.941 237.629C117.975 237.698 117.995 237.773 118 237.85V248.562Z" fill="white" fill-opacity="0.38"/>
<defs>
<clipPath id="clip0_42_16">
<rect width="65" height="63.8231" fill="white" transform="translate(33 34)"/>
</clipPath>
</defs>
</svg>
